<svg width="320" height="47" viewBox="0 0 320 47" fill="none" xmlns="http://www.w3.org/2000/svg">
<g clip-path="url(#clip0)">
<path d="M15.7233 0.711516C15.4861 0.780177 15.2548 0.868774 15.0317 0.976408C14.5229 1.23791 0.920363 9.14492 0.941431 9.16657C1.08404 9.15116 1.22471 9.12057 1.36117 9.07531C2.68405 8.70838 3.24876 8.9115 7.00629 11.106C9.29745 12.4443 10.0737 12.8641 10.1686 12.8163C11.8853 11.9515 19.0022 7.66543 19.4103 7.25054C22.1567 4.45968 19.4595 -0.322083 15.7221 0.711749" fill="#EA4235"/>
<path d="M31.9318 14.0123C26.8343 17.1637 26.6688 17.3036 26.2858 18.783C25.4365 22.0619 28.7671 24.832 31.7134 23.2981C32.1051 23.0942 45.675 14.7335 45.6143 14.7335C45.4411 14.7925 45.271 14.8606 45.1048 14.9377C44.6834 15.1216 44.5536 15.1415 43.8 15.1386C42.7047 15.1336 42.7258 15.143 39.2265 13.0994C37.6692 12.1904 36.3491 11.4307 36.2932 11.4123C36.2373 11.394 34.2745 12.564 31.9318 14.0123Z" fill="#FABB04"/>
<path d="M3.36301 7.89923C2.60951 8.05134 2.38802 8.11568 2.02909 8.2837C1.85558 8.3567 1.69208 8.45262 1.54273 8.56907C1.40856 8.70916 1.26735 8.84195 1.11968 8.96688C0.927119 9.13513 0.836702 9.2258 0.390086 9.8795C0.356606 9.90488 0.184314 10.2735 0.0551794 11.0626C-0.0877886 11.9295 0.0488497 12.8205 0.444289 13.6002C0.492714 13.6874 0.531555 13.7799 0.5601 13.8759C0.55099 13.993 1.65546 15.0998 1.70477 15.0226C1.71308 15.0087 1.78049 15.0503 1.85372 15.1145C1.99868 15.2421 3.30813 16.0111 14.1393 22.3309C16.4262 23.6648 16.6419 23.7452 17.8199 23.697C21.1513 23.5601 22.6654 19.1661 20.1615 16.9012C19.8455 16.6159 13.0859 12.6064 11.5184 11.775C11.1181 11.5624 9.59386 10.6887 8.13277 9.83269C6.67165 8.9767 5.308 8.21713 5.10405 8.14341C4.507 7.92696 3.74973 7.82095 3.36325 7.89923" fill="#4286F5"/>
<path d="M28.3074 0.672639C26.0102 1.25999 24.8911 3.96227 26.0046 6.23024C26.4042 7.04341 26.7967 7.35452 29.1789 8.74708C30.3673 9.44196 32.1208 10.4681 33.0756 11.0277C34.0305 11.5872 35.0186 12.1531 35.2718 12.2848C35.5251 12.4164 36.9427 13.2311 38.4224 14.0955C41.6672 15.9904 41.6367 15.9773 42.7107 15.9833C45.1963 15.9983 46.9065 13.7377 46.2863 11.258C45.9714 9.99947 45.4475 9.43354 43.5963 8.3529C36.8351 4.40595 33.6681 2.55626 32.4203 1.82417C30.438 0.661757 29.4417 0.382356 28.3074 0.672639Z" fill="#109D58"/>
<path d="M58.4437 32.3521H60.0835V32.4086L56.4183 36.7549L60.3311 42.4321V42.4886H58.7745L55.564 37.7601L54.0483 39.5581V42.4887H52.7805V32.3521H54.0482V37.5761H54.1033L58.4437 32.3521Z" fill="white"/>
<path d="M63.5006 35.3247C64.4375 35.3247 65.1769 35.582 65.719 36.0964C66.261 36.6108 66.532 37.3162 66.5319 38.2128V42.4884H65.319V41.5257H65.2638C64.74 42.3185 64.0419 42.7149 63.1694 42.7149C62.4255 42.7149 61.803 42.4884 61.3019 42.0353C61.0616 41.8274 60.8696 41.567 60.7396 41.2731C60.6098 40.9792 60.5453 40.6592 60.551 40.3365C60.54 40.0066 60.6062 39.6789 60.7442 39.3809C60.882 39.0828 61.0875 38.8231 61.3433 38.6234C61.8715 38.1988 62.5765 37.9864 63.4583 37.9864C64.2114 37.9864 64.8314 38.128 65.3185 38.4111V38.1137C65.32 37.8934 65.2739 37.6757 65.1833 37.4761C65.0927 37.2766 64.9599 37.1002 64.7947 36.96C64.4586 36.6488 64.0207 36.4794 63.5684 36.4856C63.2348 36.4778 62.9049 36.5583 62.6105 36.7195C62.3161 36.8807 62.0671 37.1171 61.8874 37.4059L60.7713 36.6838C61.3874 35.7778 62.2971 35.3247 63.5006 35.3247ZM61.8607 40.3647C61.8599 40.5305 61.8976 40.694 61.9706 40.8419C62.0437 40.9896 62.1502 41.1173 62.2811 41.2142C62.5616 41.4406 62.9096 41.5605 63.2662 41.5534C63.8012 41.5526 64.314 41.3338 64.6923 40.9451C64.8895 40.766 65.0474 40.5459 65.1554 40.2993C65.2634 40.0529 65.3193 39.7855 65.3192 39.5151C64.9244 39.1944 64.3732 39.034 63.6657 39.0338C63.2075 39.0167 62.7561 39.1506 62.3774 39.416C62.0331 39.6709 61.8609 39.9871 61.8609 40.3647H61.8607Z" fill="white"/>
<path d="M69.1777 32.3516V42.4882H67.9099V32.3516H69.1777Z" fill="white"/>
<path d="M72.3051 33.1584C72.3048 33.3707 72.2328 33.5764 72.1014 33.7404C71.97 33.9044 71.7874 34.0165 71.5846 34.0576C71.3818 34.0987 71.1714 34.0663 70.9891 33.9661C70.807 33.8658 70.6643 33.7036 70.5853 33.5074C70.5064 33.3111 70.4961 33.0927 70.5562 32.8895C70.6163 32.6863 70.7432 32.5109 70.9151 32.3928C71.087 32.2749 71.2933 32.2219 71.4991 32.2427C71.7048 32.2635 71.8971 32.357 72.0433 32.5071C72.1279 32.5915 72.1948 32.6929 72.2398 32.8049C72.2849 32.9169 72.3071 33.0372 72.3051 33.1584ZM72.0433 35.5509V42.4881H70.7758V35.5511L72.0433 35.5509Z" fill="white"/>
<path d="M73.6416 35.5512H74.8541V36.5139H74.9091C75.124 36.1527 75.4313 35.8588 75.7973 35.6644C76.1778 35.4433 76.6072 35.3264 77.0443 35.3252C77.871 35.3252 78.5072 35.5682 78.9527 36.0542C79.3983 36.5403 79.621 37.2316 79.6209 38.1283V42.4884H78.354V38.2128C78.3264 37.0802 77.7706 36.5139 76.6866 36.5139C76.4423 36.5114 76.2009 36.567 75.981 36.6763C75.761 36.7856 75.5687 36.9456 75.419 37.1439C75.0779 37.567 74.8969 38.1024 74.9091 38.6516V42.4884H73.6416V35.5512Z" fill="white"/>
<path d="M83.9759 45.7728C83.6171 45.7754 83.2599 45.7253 82.9149 45.6241C82.596 45.5305 82.292 45.3898 82.0124 45.2066C81.7486 45.0338 81.5137 44.8188 81.3165 44.5695C81.1239 44.3245 80.9747 44.0465 80.8756 43.7484L82.0744 43.2387C82.2051 43.6348 82.4563 43.9773 82.7909 44.2155C83.1383 44.4633 83.553 44.5921 83.9759 44.5836C84.6648 44.5836 85.2022 44.3713 85.588 43.9466C85.9738 43.5218 86.1667 42.9368 86.1667 42.1915V41.5262H86.1116C85.8676 41.8987 85.5326 42.1989 85.1403 42.3968C84.7279 42.61 84.2721 42.7192 83.8105 42.7154C82.9286 42.7154 82.1709 42.3614 81.537 41.6536C80.9127 40.9285 80.578 39.988 80.5999 39.0203C80.5999 37.9917 80.9123 37.1186 81.537 36.4012C82.1708 35.684 82.9286 35.3253 83.8105 35.3248C84.2721 35.3211 84.7279 35.4305 85.1401 35.6439C85.5325 35.8416 85.8675 36.1419 86.1115 36.5145H86.1666V35.5518H87.3791V42.1915C87.3791 43.3051 87.0713 44.1781 86.456 44.8106C85.8311 45.452 85.0045 45.7728 83.9759 45.7728ZM84.0172 41.5257C84.3063 41.5344 84.5938 41.4767 84.8583 41.3566C85.123 41.2366 85.3581 41.0573 85.5467 40.8319C85.96 40.3697 86.1667 39.7656 86.1667 39.0198C86.1667 38.2932 85.96 37.6938 85.5467 37.2218C85.3591 36.9944 85.1244 36.8128 84.8598 36.6904C84.5951 36.5679 84.3073 36.5077 84.0172 36.514C83.7273 36.5096 83.4401 36.5707 83.1757 36.693C82.9114 36.8153 82.6764 36.9958 82.4876 37.2218C82.0743 37.6939 81.8676 38.2933 81.8676 39.0198C81.8676 39.756 82.0743 40.3553 82.4876 40.8178C82.6764 41.0439 82.9114 41.2245 83.1757 41.3468C83.4401 41.4691 83.7274 41.5302 84.0173 41.5257H84.0172Z" fill="white"/>
<path d="M91.3613 35.3247C92.2982 35.3247 93.0372 35.582 93.5796 36.0964C94.1219 36.6108 94.3926 37.3162 94.3926 38.2128V42.4884H93.1805V41.5257H93.1247C92.6011 42.3185 91.9031 42.7149 91.0306 42.7149C90.2866 42.7149 89.6641 42.4884 89.1631 42.0353C88.9228 41.8274 88.7307 41.567 88.6008 41.2731C88.4708 40.9792 88.4064 40.6592 88.412 40.3365C88.4012 40.0066 88.4674 39.6789 88.6053 39.3809C88.7431 39.0828 88.9486 38.8231 89.2044 38.6234C89.7326 38.1988 90.4375 37.9864 91.3194 37.9864C92.0725 37.9864 92.6926 38.128 93.1796 38.4111V38.1137C93.1814 37.8934 93.1349 37.6757 93.0447 37.4761C92.9537 37.2766 92.821 37.1003 92.6557 36.96C92.3197 36.6488 91.8816 36.4794 91.4293 36.4856C91.0958 36.4778 90.7659 36.5583 90.4715 36.7195C90.1771 36.8807 89.928 37.1171 89.7483 37.4059L88.6323 36.6838C89.2481 35.7778 90.1578 35.3247 91.3613 35.3247ZM89.7215 40.3647C89.7206 40.5304 89.7583 40.694 89.8314 40.8418C89.9045 40.9895 90.0108 41.1172 90.1417 41.2142C90.4222 41.4406 90.7702 41.5605 91.1268 41.5534C91.6619 41.5526 92.1747 41.3338 92.5529 40.9451C92.7501 40.766 92.908 40.5459 93.0161 40.2994C93.1247 40.0529 93.1805 39.7855 93.1796 39.5151C92.7851 39.1944 92.234 39.034 91.5265 39.0338C91.0683 39.0167 90.6169 39.1506 90.2382 39.416C89.8938 39.6709 89.7216 39.9871 89.7216 40.3647H89.7215Z" fill="white"/>
<path d="M100.234 42.4882H98.9666V32.3516H100.234V42.4882Z" fill="white"/>
<path d="M101.943 35.5512H103.155V36.5139H103.21C103.425 36.1527 103.733 35.8588 104.099 35.6644C104.479 35.4433 104.909 35.3264 105.346 35.3252C106.172 35.3252 106.808 35.5682 107.254 36.0542C107.7 36.5403 107.923 37.2316 107.923 38.1283V42.4884H106.656V38.2128C106.628 37.0802 106.073 36.5139 104.988 36.5139C104.744 36.5114 104.502 36.567 104.283 36.6763C104.062 36.7856 103.871 36.9456 103.721 37.1439C103.38 37.567 103.198 38.1024 103.211 38.6516V42.4884H101.943V35.5512Z" fill="white"/>
<path d="M114.454 40.5631C114.454 41.1671 114.197 41.6769 113.683 42.092C113.168 42.5072 112.521 42.7149 111.739 42.715C111.102 42.7279 110.476 42.5374 109.949 42.1699C109.445 41.8203 109.059 41.318 108.846 40.7329L109.976 40.2374C110.121 40.6257 110.372 40.9624 110.699 41.2072C111.002 41.4336 111.366 41.555 111.739 41.5541C112.096 41.5673 112.447 41.4738 112.752 41.285C113.023 41.1056 113.159 40.8932 113.159 40.6478C113.159 40.2043 112.829 39.8788 112.167 39.671L111.009 39.3737C109.696 39.034 109.039 38.3826 109.04 37.4198C109.032 37.1221 109.098 36.8273 109.229 36.5618C109.36 36.2963 109.552 36.0682 109.791 35.8978C110.291 35.5156 110.932 35.3245 111.712 35.3245C112.281 35.3168 112.841 35.4685 113.332 35.7634C113.789 36.0265 114.146 36.4406 114.344 36.9385L113.215 37.4198C113.085 37.1262 112.865 36.8849 112.589 36.7331C112.291 36.5659 111.956 36.4805 111.617 36.4853C111.303 36.4805 110.994 36.569 110.728 36.7401C110.467 36.91 110.336 37.1176 110.336 37.3631C110.336 37.7594 110.699 38.0426 111.424 38.2125L112.445 38.4816C113.784 38.8215 114.454 39.5154 114.454 40.5631Z" fill="white"/>
<path d="M118.106 42.6016C117.599 42.619 117.107 42.4308 116.735 42.0778C116.372 41.7287 116.186 41.2427 116.177 40.6196V36.7405H114.992V35.5513H116.176V33.4277H117.444V35.5513H119.098V36.7405H117.444V40.1952C117.444 40.6578 117.531 40.9716 117.706 41.1366C117.864 41.2953 118.076 41.3841 118.298 41.3844C118.397 41.3847 118.497 41.373 118.595 41.3494C118.687 41.3274 118.776 41.2966 118.862 41.2574L119.262 42.4183C118.89 42.5474 118.499 42.6094 118.106 42.6016Z" fill="white"/>
<path d="M121.963 33.1584C121.963 33.3707 121.891 33.5764 121.759 33.7404C121.628 33.9044 121.446 34.0165 121.243 34.0576C121.04 34.0987 120.83 34.0663 120.647 33.9661C120.465 33.8658 120.323 33.7036 120.244 33.5074C120.165 33.3111 120.154 33.0927 120.214 32.8895C120.274 32.6863 120.401 32.5109 120.573 32.3928C120.745 32.2749 120.952 32.2219 121.157 32.2427C121.363 32.2635 121.555 32.357 121.701 32.5071C121.786 32.5915 121.853 32.6929 121.898 32.8049C121.943 32.9169 121.966 33.0372 121.963 33.1584ZM121.701 35.5509V42.4881H120.434V35.5511L121.701 35.5509Z" fill="white"/>
<path d="M125.904 42.6016C125.398 42.619 124.905 42.4308 124.533 42.0778C124.17 41.7287 123.984 41.2427 123.975 40.6196V36.7405H122.791V35.5513H123.975V33.4277H125.243V35.5513H126.897V36.7405H125.243V40.1952C125.243 40.6578 125.33 40.9716 125.505 41.1366C125.663 41.2953 125.875 41.3841 126.097 41.3844C126.196 41.3847 126.296 41.373 126.394 41.3494C126.486 41.3274 126.575 41.2966 126.661 41.2574L127.061 42.4183C126.688 42.5475 126.297 42.6095 125.904 42.6016Z" fill="white"/>
<path d="M133.979 42.488H132.766V41.5253H132.711C132.496 41.8866 132.189 42.1804 131.822 42.3747C131.442 42.5959 131.012 42.7128 130.576 42.7141C129.749 42.7141 129.113 42.4711 128.667 41.985C128.221 41.499 127.999 40.8076 127.999 39.9109V35.5508H129.266V39.8263C129.294 40.9589 129.85 41.5252 130.934 41.5252C131.178 41.5277 131.419 41.4722 131.639 41.3628C131.859 41.2536 132.052 41.0935 132.202 40.8952C132.542 40.4719 132.723 39.9366 132.71 39.3874V35.5508H133.978L133.979 42.488Z" fill="white"/>
<path d="M138.208 42.6016C137.702 42.619 137.209 42.4308 136.837 42.0778C136.474 41.7287 136.288 41.2427 136.279 40.6196V36.7405H135.094V35.5513H136.279V33.4277H137.547V35.5513H139.2V36.7405H137.547V40.1952C137.547 40.6578 137.634 40.9716 137.809 41.1366C137.967 41.2953 138.18 41.3841 138.401 41.3844C138.5 41.3847 138.6 41.373 138.697 41.3494C138.789 41.3274 138.879 41.2966 138.966 41.2574L139.366 42.4183C138.993 42.5475 138.601 42.6095 138.208 42.6016Z" fill="white"/>
<path d="M143.32 42.7148C142.327 42.7148 141.511 42.3656 140.867 41.6671C140.224 40.9688 139.903 40.0862 139.902 39.0197C139.902 37.9628 140.215 37.0828 140.84 36.3795C141.464 35.6762 142.263 35.3246 143.237 35.3247C144.238 35.3247 145.035 35.6575 145.628 36.3229C146.22 36.9883 146.516 37.9204 146.516 39.1192L146.502 39.2608H141.197C141.216 39.9403 141.436 40.4878 141.859 40.903C142.059 41.1048 142.296 41.2639 142.556 41.3708C142.816 41.4777 143.095 41.5305 143.375 41.526C144.183 41.526 144.817 41.1107 145.276 40.2801L146.407 40.8464C146.118 41.4153 145.681 41.8907 145.145 42.2193C144.593 42.5538 143.961 42.7252 143.32 42.7148ZM141.295 38.1845H145.167C145.153 37.9561 145.095 37.7328 144.997 37.5274C144.899 37.3221 144.762 37.1389 144.594 36.9883C144.25 36.6721 143.789 36.5141 143.209 36.5139C142.758 36.5042 142.319 36.6655 141.977 36.967C141.624 37.2836 141.384 37.712 141.295 38.1845Z" fill="white"/>
<path d="M150.209 39.0197C150.209 37.9534 150.535 37.0708 151.187 36.3724C151.848 35.674 152.68 35.3248 153.681 35.3247C154.682 35.3246 155.509 35.6739 156.161 36.3724C156.822 37.0709 157.153 37.9534 157.153 39.0197C157.153 40.0957 156.822 40.9782 156.161 41.6671C155.509 42.3658 154.682 42.715 153.681 42.7148C152.68 42.7147 151.848 42.3654 151.187 41.6671C150.535 40.9688 150.209 40.0863 150.209 39.0197ZM151.476 39.0197C151.476 39.7654 151.688 40.3695 152.111 40.8319C152.312 41.051 152.556 41.2255 152.826 41.3449C153.097 41.4642 153.387 41.5256 153.681 41.5256C153.975 41.5256 154.266 41.4642 154.536 41.3449C154.806 41.2255 155.05 41.051 155.252 40.8319C155.674 40.3696 155.885 39.7655 155.885 39.0197C155.885 38.2836 155.674 37.6843 155.252 37.2218C155.052 36.9986 154.809 36.8205 154.539 36.6986C154.269 36.5769 153.977 36.5139 153.681 36.5139C153.386 36.5139 153.094 36.5769 152.823 36.6986C152.553 36.8205 152.311 36.9986 152.111 37.2218C151.687 37.6843 151.476 38.2836 151.476 39.0197Z" fill="white"/>
<path d="M161.164 32.2386C161.554 32.2232 161.941 32.3058 162.293 32.4793L161.949 33.6259C161.717 33.51 161.462 33.4518 161.205 33.456C161.061 33.4512 160.919 33.4785 160.787 33.5359C160.655 33.5934 160.537 33.6796 160.44 33.7888C160.234 34.0337 160.128 34.3506 160.144 34.6737V35.5511H161.908V36.7403H160.144V42.488H158.876V36.74H157.608V35.5509H158.876V34.5456C158.876 33.8567 159.09 33.2999 159.517 32.8751C159.944 32.4503 160.493 32.2382 161.164 32.2386Z" fill="white"/>
<path d="M167.529 42.4882H166.261V32.3516H167.529V42.4882Z" fill="white"/>
<path d="M169.237 35.5512H170.45V36.5139H170.505C170.72 36.1527 171.027 35.8588 171.394 35.6644C171.774 35.4433 172.203 35.3264 172.64 35.3252C173.467 35.3252 174.103 35.5682 174.549 36.0542C174.995 36.5403 175.217 37.2316 175.217 38.1283V42.4884H173.95V38.2128C173.922 37.0802 173.367 36.5139 172.283 36.5139C172.038 36.5114 171.796 36.567 171.577 36.6763C171.357 36.7856 171.165 36.9456 171.015 37.1439C170.674 37.567 170.493 38.1024 170.505 38.6516V42.4884H169.237V35.5512Z" fill="white"/>
<path d="M179.475 42.7146C178.593 42.7146 177.835 42.3559 177.202 41.6382C176.596 40.9071 176.264 39.9788 176.264 39.0191C176.264 38.0596 176.596 37.1312 177.202 36.4C177.835 35.6829 178.593 35.3241 179.475 35.3236C179.946 35.3177 180.412 35.4295 180.833 35.6493C181.217 35.8443 181.543 36.1427 181.776 36.5129H181.832L181.776 35.5502V32.3516H183.044V42.4882H181.832V41.5255H181.776C181.543 41.8958 181.217 42.1942 180.833 42.3891C180.412 42.6089 179.946 42.7206 179.475 42.7146ZM179.682 41.5254C179.971 41.5342 180.259 41.4765 180.523 41.3565C180.788 41.2365 181.022 41.0572 181.211 40.8317C181.624 40.3694 181.832 39.7654 181.832 39.0196C181.832 38.2929 181.624 37.6936 181.211 37.2217C181.023 36.9942 180.789 36.8126 180.525 36.6901C180.26 36.5677 179.972 36.5074 179.682 36.5138C179.392 36.5093 179.104 36.5704 178.84 36.6927C178.576 36.8151 178.341 36.9957 178.153 37.2217C177.739 37.6937 177.532 38.293 177.532 39.0196C177.532 39.7558 177.739 40.3551 178.153 40.8176C178.341 41.0436 178.576 41.2242 178.84 41.3465C179.104 41.4689 179.392 41.5299 179.682 41.5254Z" fill="white"/>
<path d="M190.457 42.488H189.244V41.5253H189.189C188.974 41.8866 188.667 42.1804 188.301 42.3747C187.92 42.5959 187.491 42.7128 187.054 42.7141C186.227 42.7141 185.591 42.4711 185.145 41.985C184.7 41.499 184.477 40.8076 184.477 39.9109V35.5508H185.745V39.8263C185.772 40.9589 186.328 41.5252 187.412 41.5252C187.657 41.5277 187.898 41.4722 188.118 41.3628C188.338 41.2536 188.53 41.0935 188.68 40.8952C189.021 40.4721 189.202 39.9367 189.19 39.3874V35.5508H190.458L190.457 42.488Z" fill="white"/>
<path d="M197.043 40.5631C197.043 41.1671 196.786 41.6769 196.272 42.092C195.757 42.5072 195.11 42.7149 194.328 42.715C193.691 42.7279 193.065 42.5374 192.538 42.1699C192.033 41.8203 191.648 41.318 191.435 40.7329L192.565 40.2374C192.71 40.6257 192.961 40.9624 193.288 41.2072C193.591 41.4336 193.954 41.555 194.328 41.5541C194.685 41.5673 195.036 41.4738 195.341 41.285C195.612 41.1056 195.748 40.8932 195.748 40.6478C195.748 40.2043 195.418 39.8788 194.756 39.671L193.598 39.3737C192.285 39.034 191.628 38.3826 191.629 37.4198C191.621 37.1221 191.686 36.8273 191.818 36.5618C191.949 36.2963 192.141 36.0682 192.379 35.8978C192.88 35.5156 193.521 35.3245 194.301 35.3245C194.87 35.3168 195.43 35.4685 195.921 35.7634C196.378 36.0265 196.735 36.4406 196.933 36.9385L195.804 37.4198C195.674 37.1262 195.454 36.8849 195.177 36.7331C194.88 36.5659 194.545 36.4805 194.206 36.4853C193.892 36.4805 193.583 36.569 193.317 36.7401C193.056 36.91 192.925 37.1176 192.925 37.3631C192.925 37.7594 193.287 38.0426 194.013 38.2125L195.033 38.4816C196.373 38.8215 197.043 39.5154 197.043 40.5631Z" fill="white"/>
<path d="M200.694 42.6016C200.188 42.619 199.696 42.4308 199.324 42.0778C198.96 41.7287 198.774 41.2427 198.766 40.6196V36.7405H197.581V35.5513H198.766V33.4277H200.033V35.5513H201.687V36.7405H200.033V40.1952C200.033 40.6578 200.12 40.9716 200.295 41.1366C200.453 41.2953 200.666 41.3841 200.887 41.3844C200.987 41.3847 201.086 41.373 201.183 41.3494C201.275 41.3274 201.365 41.2966 201.451 41.2574L201.851 42.4183C201.479 42.5475 201.088 42.6095 200.694 42.6016Z" fill="white"/>
<path d="M204.112 42.4882H202.844V35.5511H204.056V36.6838H204.112C204.263 36.2866 204.543 35.9545 204.903 35.7422C205.252 35.4992 205.66 35.3642 206.082 35.3529C206.402 35.3441 206.721 35.4019 207.019 35.5229L206.633 36.7828C206.393 36.7043 206.141 36.6708 205.888 36.6838C205.651 36.6842 205.417 36.7376 205.202 36.8403C204.986 36.9429 204.795 37.0924 204.642 37.2783C204.297 37.6527 204.106 38.1501 204.112 38.6657V42.4882Z" fill="white"/>
<path d="M209.43 33.1584C209.43 33.3707 209.357 33.5764 209.226 33.7404C209.095 33.9044 208.913 34.0165 208.71 34.0576C208.507 34.0987 208.296 34.0663 208.114 33.9661C207.932 33.8658 207.789 33.7036 207.71 33.5074C207.631 33.3111 207.621 33.0927 207.681 32.8895C207.741 32.6863 207.868 32.5109 208.04 32.3928C208.212 32.2749 208.418 32.2219 208.624 32.2427C208.83 32.2635 209.021 32.357 209.168 32.5071C209.253 32.5915 209.32 32.6929 209.365 32.8049C209.409 32.9169 209.432 33.0372 209.43 33.1584ZM209.168 35.5509V42.4881H207.901V35.5511L209.168 35.5509Z" fill="white"/>
<path d="M213.26 35.3247C214.197 35.3247 214.937 35.582 215.478 36.0964C216.02 36.6108 216.291 37.3162 216.292 38.2128V42.4884H215.079V41.5257H215.024C214.5 42.3185 213.802 42.7149 212.929 42.7149C212.186 42.7149 211.563 42.4884 211.062 42.0353C210.821 41.8274 210.63 41.567 210.499 41.2731C210.37 40.9792 210.305 40.6592 210.311 40.3365C210.3 40.0066 210.366 39.6789 210.504 39.3809C210.642 39.0828 210.847 38.8231 211.103 38.6234C211.632 38.1988 212.337 37.9864 213.219 37.9864C213.971 37.9864 214.592 38.128 215.078 38.4111V38.1137C215.08 37.8934 215.033 37.6757 214.943 37.4761C214.853 37.2766 214.72 37.1003 214.554 36.96C214.219 36.6488 213.78 36.4794 213.328 36.4856C212.994 36.4778 212.665 36.5583 212.37 36.7195C212.076 36.8807 211.827 37.1171 211.647 37.4059L210.531 36.6838C211.147 35.7778 212.057 35.3247 213.26 35.3247ZM211.62 40.3647C211.619 40.5304 211.658 40.694 211.73 40.8418C211.804 40.9895 211.91 41.1172 212.041 41.2142C212.321 41.4406 212.669 41.5605 213.026 41.5534C213.561 41.5526 214.073 41.3338 214.452 40.9451C214.649 40.766 214.807 40.5459 214.915 40.2994C215.023 40.0529 215.079 39.7855 215.079 39.5151C214.684 39.1944 214.133 39.034 213.425 39.0338C212.967 39.0167 212.516 39.1506 212.137 39.416C211.792 39.6709 211.62 39.9871 211.62 40.3647Z" fill="white"/>
<path d="M218.938 32.3516V42.4882H217.67V32.3516H218.938Z" fill="white"/>
<path d="M226.432 33.5973V42.4882H225.165V33.5973H222.409V32.3516H229.188V33.5973H226.432Z" fill="white"/>
<path d="M232.165 42.7148C231.173 42.7148 230.355 42.3656 229.712 41.6671C229.069 40.9688 228.748 40.0862 228.748 39.0197C228.748 37.9628 229.059 37.0828 229.685 36.3795C230.31 35.6762 231.109 35.3246 232.082 35.3247C233.083 35.3247 233.88 35.6575 234.472 36.3229C235.065 36.9883 235.361 37.9204 235.361 39.1192L235.347 39.2608H230.042C230.06 39.9403 230.281 40.4878 230.704 40.903C230.903 41.1048 231.14 41.2639 231.401 41.3708C231.661 41.4777 231.939 41.5305 232.219 41.526C233.028 41.526 233.661 41.1107 234.121 40.2801L235.251 40.8464C234.963 41.4152 234.526 41.8907 233.991 42.2193C233.438 42.5538 232.806 42.7252 232.165 42.7148ZM230.139 38.1845H234.011C233.997 37.9561 233.94 37.7328 233.842 37.5274C233.744 37.3221 233.606 37.1388 233.439 36.9883C233.095 36.6721 232.633 36.5141 232.055 36.5139C231.603 36.5042 231.165 36.6655 230.821 36.967C230.469 37.2836 230.229 37.712 230.139 38.1845Z" fill="white"/>
<path d="M239.619 42.7147C238.618 42.7147 237.786 42.3656 237.126 41.6671C236.473 40.95 236.147 40.0675 236.147 39.0197C236.147 37.9532 236.473 37.0708 237.126 36.3722C237.787 35.6739 238.618 35.3247 239.619 35.3247C240.252 35.3053 240.876 35.4863 241.407 35.8434C241.936 36.2004 242.346 36.7162 242.581 37.3208L241.424 37.8163C241.066 36.9481 240.436 36.5139 239.537 36.5138C239.25 36.514 238.967 36.5788 238.708 36.7035C238.448 36.8283 238.219 37.01 238.034 37.2358C237.633 37.7391 237.415 38.3693 237.415 39.0197C237.415 39.67 237.633 40.3003 238.034 40.8035C238.219 41.0293 238.448 41.2111 238.708 41.3358C238.967 41.4606 239.25 41.5253 239.537 41.5256C240.464 41.5256 241.116 41.0913 241.493 40.223L242.623 40.7185C242.393 41.3194 241.985 41.8316 241.459 42.1838C240.91 42.5437 240.27 42.7285 239.619 42.7147Z" fill="white"/>
<path d="M243.67 32.3516H244.938V35.5511L244.882 36.5138H244.938C245.152 36.1525 245.459 35.8587 245.826 35.6644C246.205 35.4431 246.635 35.3263 247.072 35.325C247.899 35.325 248.536 35.568 248.981 36.0541C249.426 36.5401 249.649 37.2315 249.649 38.1282V42.4882H248.381V38.3826C248.381 37.1368 247.844 36.5139 246.769 36.5139C246.517 36.5128 246.269 36.5716 246.043 36.6858C245.817 36.8 245.62 36.9665 245.467 37.1722C245.116 37.6021 244.928 38.1473 244.937 38.7081V42.4882H243.67V32.3516Z" fill="white"/>
<path d="M251.083 35.5512H252.295V36.5139H252.351C252.566 36.1527 252.873 35.8588 253.239 35.6644C253.619 35.4433 254.048 35.3264 254.486 35.3252C255.313 35.3252 255.949 35.5682 256.394 36.0542C256.839 36.5403 257.062 37.2316 257.062 38.1283V42.4884H255.794V38.2128C255.766 37.0802 255.211 36.5139 254.127 36.5139C253.883 36.5114 253.642 36.567 253.421 36.6763C253.202 36.7856 253.009 36.9456 252.86 37.1439C252.518 37.567 252.338 38.1024 252.35 38.6516V42.4884H251.083V35.5512Z" fill="white"/>
<path d="M258.11 39.0197C258.11 37.9534 258.435 37.0708 259.088 36.3724C259.749 35.674 260.581 35.3248 261.582 35.3247C262.582 35.3246 263.409 35.6739 264.062 36.3724C264.723 37.0709 265.054 37.9534 265.054 39.0197C265.054 40.0957 264.723 40.9782 264.062 41.6671C263.409 42.3658 262.582 42.715 261.582 42.7148C260.581 42.7147 259.749 42.3654 259.088 41.6671C258.435 40.9688 258.109 40.0863 258.11 39.0197ZM259.377 39.0197C259.377 39.7654 259.589 40.3695 260.011 40.8319C260.213 41.051 260.457 41.2255 260.727 41.3449C260.997 41.4642 261.288 41.5256 261.582 41.5256C261.875 41.5256 262.167 41.4642 262.436 41.3449C262.707 41.2255 262.951 41.051 263.153 40.8319C263.575 40.3696 263.786 39.7655 263.786 39.0197C263.786 38.2836 263.575 37.6843 263.153 37.2218C262.953 36.9986 262.71 36.8205 262.439 36.6986C262.169 36.5769 261.877 36.5139 261.582 36.5139C261.287 36.5139 260.995 36.5769 260.724 36.6986C260.454 36.8205 260.211 36.9986 260.011 37.2218C259.588 37.6843 259.377 38.2836 259.377 39.0197Z" fill="white"/>
<path d="M267.355 32.3516V42.4882H266.087V32.3516H267.355Z" fill="white"/>
<path d="M268.389 39.0197C268.389 37.9534 268.715 37.0708 269.368 36.3724C270.029 35.674 270.861 35.3248 271.861 35.3247C272.862 35.3246 273.689 35.6739 274.341 36.3724C275.003 37.0709 275.333 37.9534 275.334 39.0197C275.334 40.0957 275.003 40.9782 274.341 41.6671C273.689 42.3658 272.862 42.715 271.861 42.7148C270.861 42.7147 270.029 42.3654 269.368 41.6671C268.715 40.9688 268.389 40.0863 268.389 39.0197ZM269.657 39.0197C269.657 39.7654 269.868 40.3695 270.29 40.8319C270.493 41.051 270.737 41.2255 271.007 41.3449C271.276 41.4642 271.568 41.5256 271.861 41.5256C272.155 41.5256 272.447 41.4642 272.716 41.3449C272.986 41.2255 273.23 41.051 273.433 40.8319C273.855 40.3696 274.066 39.7655 274.066 39.0197C274.066 38.2836 273.855 37.6843 273.433 37.2218C273.233 36.9986 272.99 36.8205 272.719 36.6986C272.448 36.5769 272.156 36.5139 271.861 36.5139C271.567 36.5139 271.274 36.5769 271.004 36.6986C270.733 36.8205 270.49 36.9986 270.29 37.2218C269.868 37.6843 269.657 38.2836 269.657 39.0197Z" fill="white"/>
<path d="M279.427 45.7728C279.068 45.7754 278.711 45.7253 278.366 45.6241C278.047 45.5305 277.742 45.3899 277.463 45.2066C277.199 45.0339 276.965 44.8188 276.767 44.5695C276.575 44.3245 276.425 44.0465 276.327 43.7484L277.525 43.2387C277.656 43.6349 277.907 43.9773 278.242 44.2155C278.589 44.4633 279.004 44.5921 279.427 44.5836C280.115 44.5836 280.653 44.3713 281.039 43.9466C281.424 43.5218 281.618 42.9369 281.618 42.1915V41.5262H281.562C281.318 41.8988 280.983 42.1989 280.591 42.3968C280.179 42.61 279.723 42.7192 279.261 42.7154C278.38 42.7154 277.621 42.3614 276.988 41.6536C276.364 40.9285 276.029 39.9881 276.05 39.0203C276.05 37.9917 276.363 37.1187 276.988 36.4012C277.621 35.684 278.38 35.3253 279.261 35.3248C279.723 35.321 280.179 35.4302 280.591 35.6434C280.983 35.8412 281.318 36.1414 281.562 36.514H281.618V35.5513H282.83V42.1911C282.83 43.3046 282.522 44.1777 281.907 44.8102C281.282 45.4519 280.455 45.7728 279.427 45.7728ZM279.468 41.5257C279.757 41.5345 280.045 41.4767 280.309 41.3567C280.574 41.2366 280.808 41.0573 280.997 40.832C281.41 40.3697 281.618 39.7656 281.618 39.0198C281.618 38.2932 281.41 37.6938 280.997 37.2218C280.809 36.9944 280.575 36.8128 280.311 36.6904C280.046 36.5679 279.758 36.5077 279.468 36.514C279.178 36.5096 278.891 36.5707 278.626 36.693C278.362 36.8153 278.127 36.9959 277.939 37.2218C277.525 37.6939 277.318 38.2933 277.318 39.0198C277.318 39.7561 277.525 40.3553 277.939 40.8178C278.127 41.0438 278.362 41.2243 278.626 41.3466C278.89 41.4689 279.178 41.5301 279.467 41.5257H279.468Z" fill="white"/>
<path d="M290.353 35.5508L286.122 45.5458H284.813L286.383 42.049L283.6 35.5508H284.979L286.99 40.5342H287.018L288.974 35.5508H290.353Z" fill="white"/>
<path d="M53.5676 21.0765V2.89746H58.9792C61.6808 2.89746 63.8512 3.73531 65.4906 5.41102C67.1299 7.08673 67.9495 9.27858 67.9493 11.9865C67.9493 14.7119 67.1297 16.9081 65.4906 18.5751C63.8515 20.2422 61.681 21.076 58.9792 21.0765H53.5676ZM55.841 5.13174V18.8418H58.9792C61.0383 18.8418 62.661 18.2367 63.8472 17.0264C65.0336 15.8162 65.6265 14.1364 65.6262 11.9869C65.6262 9.85418 65.0332 8.17848 63.8471 6.95978C62.6609 5.74109 61.0383 5.13174 58.9792 5.13174H55.841Z" fill="white"/>
<path d="M75.486 21.483C73.7068 21.483 72.2407 20.8566 71.0875 19.6041C69.9344 18.3515 69.3578 16.7689 69.3579 14.8563C69.3579 12.9608 69.918 11.3824 71.0382 10.1211C72.1585 8.85972 73.5916 8.22935 75.3378 8.22998C77.1331 8.22998 78.5623 8.82669 79.625 10.0201C80.6877 11.2136 81.2192 12.885 81.2193 15.0345L81.1944 15.2884H71.6806C71.7133 16.5071 72.1088 17.4888 72.8667 18.2335C73.2252 18.5955 73.65 18.8807 74.1167 19.0724C74.5833 19.2642 75.0824 19.3588 75.5849 19.3507C77.0344 19.3507 78.171 18.6057 78.995 17.1159L81.0212 18.1316C80.5044 19.152 79.7216 20.0047 78.7603 20.5943C77.7691 21.1943 76.6362 21.5017 75.486 21.483ZM71.8534 13.3583H78.7971C78.7731 12.9488 78.6701 12.5483 78.4942 12.18C78.3183 11.8117 78.0729 11.4829 77.7723 11.2128C77.1545 10.6459 76.3265 10.3624 75.2888 10.3622C74.4795 10.3448 73.6922 10.634 73.0772 11.1747C72.4591 11.7166 72.0512 12.4445 71.8535 13.3583H71.8534Z" fill="white"/>
<path d="M89.1018 21.0767H86.8284L81.9358 8.63574H84.4069L87.9653 18.2837H88.0147L91.6225 8.63574H94.0438L89.1018 21.0767Z" fill="white"/>
<path d="M100.765 21.483C98.986 21.483 97.52 20.8566 96.3665 19.6041C95.213 18.3515 94.6362 16.7689 94.6362 14.8563C94.6362 12.9608 95.1972 11.3824 96.3172 10.1211C97.4372 8.85972 98.8706 8.22935 100.617 8.22998C102.412 8.22998 103.841 8.82669 104.904 10.0201C105.966 11.2136 106.498 12.885 106.499 15.0345L106.473 15.2884H96.959C96.9925 16.5071 97.3879 17.4888 98.1451 18.2335C98.5041 18.5955 98.9292 18.8807 99.3953 19.0724C99.8623 19.2642 100.361 19.3588 100.864 19.3507C102.313 19.3507 103.45 18.6057 104.273 17.1159L106.3 18.1316C105.783 19.152 105.001 20.0047 104.039 20.5943C103.048 21.1943 101.915 21.5017 100.765 21.483ZM97.132 13.3583H104.076C104.052 12.9488 103.949 12.5483 103.773 12.18C103.597 11.8117 103.352 11.4829 103.051 11.2128C102.433 10.6459 101.606 10.3624 100.567 10.3622C99.7581 10.3448 98.9711 10.634 98.3562 11.1747C97.7376 11.7166 97.3302 12.4445 97.132 13.3583Z" fill="white"/>
<path d="M111.02 2.89746V21.0765H108.746V2.89746H111.02Z" fill="white"/>
<path d="M113.145 14.8563C113.145 12.9437 113.73 11.3611 114.899 10.1084C116.085 8.85613 117.577 8.22998 119.372 8.22998C121.168 8.22998 122.65 8.85625 123.82 10.1088C125.006 11.3616 125.599 12.9442 125.599 14.8566C125.599 16.7862 125.006 18.3688 123.82 19.6045C122.65 20.8572 121.167 21.4835 119.372 21.4833C117.577 21.4831 116.085 20.8566 114.899 19.6041C113.73 18.3517 113.145 16.7691 113.145 14.8563ZM115.419 14.8563C115.419 16.1936 115.797 17.2769 116.555 18.1061C116.918 18.4992 117.354 18.8122 117.839 19.026C118.324 19.24 118.845 19.3503 119.372 19.3503C119.899 19.3503 120.421 19.24 120.905 19.026C121.39 18.8122 121.827 18.4992 122.19 18.1061C122.947 17.2769 123.325 16.1937 123.325 14.8563C123.325 13.536 122.947 12.4612 122.19 11.6318C121.831 11.2316 121.395 10.9122 120.911 10.6937C120.425 10.4751 119.901 10.3623 119.372 10.3623C118.843 10.3623 118.319 10.4751 117.834 10.6937C117.35 10.9122 116.913 11.2316 116.555 11.6318C115.797 12.4613 115.419 13.5362 115.419 14.8563Z" fill="white"/>
<path d="M134.026 21.4828C133.18 21.4934 132.345 21.293 131.592 20.8988C130.901 20.5492 130.317 20.014 129.899 19.35H129.8L129.899 21.0765V26.5606H127.626V8.63565H129.801V10.3622H129.899C130.317 9.69833 130.902 9.16314 131.593 8.81337C132.346 8.41915 133.181 8.21875 134.026 8.22941C135.624 8.22941 136.975 8.87261 138.079 10.159C139.216 11.4626 139.784 13.0283 139.784 14.856C139.784 16.7012 139.216 18.2669 138.079 19.5531C136.975 20.8396 135.623 21.4829 134.026 21.4828ZM133.655 19.35C134.175 19.358 134.69 19.2485 135.165 19.0291C135.638 18.8097 136.059 18.4859 136.398 18.0805C137.139 17.2514 137.51 16.1765 137.51 14.856C137.51 13.5529 137.139 12.478 136.398 11.6316C136.052 11.2323 135.628 10.9127 135.153 10.6939C134.678 10.475 134.164 10.3619 133.643 10.3619C133.123 10.3619 132.607 10.475 132.133 10.6939C131.658 10.9127 131.233 11.2323 130.887 11.6316C130.163 12.4782 129.8 13.553 129.8 14.856C129.8 16.1763 130.163 17.2596 130.887 18.1059C131.233 18.5067 131.66 18.8255 132.139 19.0403C132.616 19.2552 133.134 19.3608 133.655 19.35Z" fill="white"/>
<path d="M147.468 21.483C145.689 21.483 144.223 20.8566 143.07 19.6041C141.916 18.3516 141.34 16.7689 141.34 14.8563C141.34 12.9608 141.901 11.3824 143.021 10.1211C144.141 8.85972 145.574 8.22935 147.32 8.22998C149.115 8.22998 150.544 8.82669 151.607 10.0201C152.67 11.2136 153.202 12.885 153.202 15.0345L153.177 15.2884H143.663C143.696 16.5071 144.091 17.4888 144.849 18.2335C145.208 18.5955 145.633 18.8807 146.1 19.0724C146.566 19.2642 147.065 19.3588 147.567 19.3507C149.017 19.3507 150.154 18.6057 150.978 17.1159L153.004 18.1316C152.488 19.152 151.704 20.0047 150.743 20.5943C149.752 21.1944 148.619 21.5018 147.468 21.483ZM143.835 13.3583H150.78C150.755 12.9488 150.652 12.5483 150.476 12.18C150.301 11.8117 150.055 11.4829 149.754 11.2128C149.137 10.6459 148.309 10.3624 147.271 10.3622C146.461 10.3448 145.674 10.634 145.06 11.1747C144.442 11.7166 144.034 12.4445 143.835 13.3583Z" fill="white"/>
<path d="M157.724 21.0769H155.45V8.63588H157.625V10.6671H157.724C157.954 10.007 158.428 9.44421 159.145 8.97869C159.861 8.51319 160.566 8.28042 161.258 8.28042C161.832 8.2644 162.404 8.36787 162.938 8.58463L162.246 10.8443C161.966 10.7261 161.521 10.6669 160.912 10.6666C160.055 10.6666 159.309 11.022 158.675 11.7329C158.056 12.4042 157.715 13.2963 157.724 14.2211V21.0769Z" fill="white"/>
<path d="M180.778 16.227C180.778 17.8182 180.209 19.0961 179.072 20.0608C177.92 21.0089 176.519 21.4828 174.872 21.4826C173.471 21.5048 172.103 21.0395 170.992 20.1623C169.872 19.2824 169.098 18.0806 168.67 16.5569L170.845 15.643C170.982 16.1609 171.191 16.6566 171.462 17.1156C171.712 17.5394 172.025 17.9206 172.389 18.2455C172.738 18.5557 173.135 18.8044 173.563 18.9818C173.994 19.1602 174.457 19.2508 174.922 19.2483C175.96 19.2483 176.808 18.9733 177.467 18.4232C178.126 17.8731 178.456 17.141 178.456 16.227C178.459 15.8607 178.39 15.4974 178.249 15.1608C178.109 14.8241 177.901 14.5214 177.64 14.2719C177.129 13.7475 176.174 13.2397 174.774 12.7486C173.356 12.2241 172.475 11.8686 172.129 11.6822C170.251 10.7008 169.312 9.25359 169.312 7.34061C169.312 6.00374 169.832 4.86121 170.87 3.91303C171.924 2.96531 173.217 2.49137 174.749 2.49121C176.099 2.49121 177.269 2.84667 178.258 3.55757C179.246 4.25179 179.905 5.12349 180.234 6.17269L178.11 7.08671C177.91 6.40653 177.497 5.81304 176.936 5.39814C176.351 4.94986 175.638 4.7256 174.798 4.72537C173.908 4.72537 173.159 4.97926 172.549 5.48706C172.261 5.69583 172.027 5.97389 171.868 6.29698C171.709 6.62006 171.629 6.97834 171.635 7.34049C171.634 7.64828 171.698 7.95268 171.821 8.23304C171.945 8.5134 172.125 8.76316 172.352 8.96542C172.878 9.42242 174.023 9.96407 175.786 10.5904C177.581 11.2168 178.862 11.9827 179.629 12.8882C180.395 13.7935 180.778 14.9065 180.778 16.227Z" fill="white"/>
<path d="M187.474 21.2795C186.486 21.2795 185.666 20.9664 185.016 20.3401C184.365 19.7139 184.032 18.8422 184.015 17.725V10.7686H181.89V8.63557H184.015V4.82715H186.288V8.63557H189.253V10.7686H186.288V16.9637C186.288 17.7933 186.445 18.356 186.757 18.652C187.042 18.9366 187.423 19.0961 187.82 19.0967C187.999 19.0969 188.178 19.0757 188.352 19.0332C188.516 18.9937 188.678 18.9384 188.833 18.8682L189.55 20.9501C188.882 21.1821 188.179 21.2936 187.474 21.2795Z" fill="white"/>
<path d="M202.227 21.0767H200.052V19.3501H199.953C199.607 19.9594 199.075 20.4672 198.358 20.8735C197.676 21.2704 196.906 21.4802 196.122 21.4828C194.639 21.4828 193.499 21.0469 192.7 20.1752C191.901 19.3035 191.502 18.0634 191.502 16.4551V8.63574H193.776V16.303C193.825 18.3342 194.822 19.3497 196.766 19.3497C197.672 19.3497 198.429 18.9731 199.039 18.2199C199.65 17.461 199.975 16.5009 199.954 15.5159V8.63574H202.227V21.0767Z" fill="white"/>
<path d="M210.11 21.4826C208.528 21.4826 207.169 20.8394 206.033 19.5529C204.913 18.2498 204.353 16.6841 204.353 14.8559C204.353 13.0277 204.913 11.462 206.033 10.1589C207.169 8.87277 208.528 8.22957 210.11 8.22925C210.955 8.21866 211.79 8.41904 212.543 8.81321C213.233 9.16308 213.819 9.69825 214.236 10.362H214.335L214.236 8.63549V2.89746H216.51V21.0765H214.335V19.3499H214.235C213.818 20.0137 213.233 20.549 212.543 20.8986C211.79 21.2927 210.954 21.4931 210.11 21.4826ZM210.48 19.3499C211.6 19.3499 212.514 18.9351 213.223 18.1057C213.965 17.2766 214.335 16.1933 214.335 14.8559C214.335 13.5527 213.965 12.4779 213.223 11.6314C212.886 11.2236 212.466 10.898 211.992 10.6783C211.516 10.4587 211.001 10.3506 210.48 10.362C209.96 10.354 209.446 10.4636 208.971 10.6831C208.497 10.9024 208.076 11.2261 207.738 11.6314C206.996 12.4781 206.625 13.5529 206.625 14.8559C206.625 16.1761 206.996 17.251 207.738 18.0804C208.076 18.4857 208.497 18.8096 208.971 19.029C209.446 19.2483 209.96 19.3579 210.48 19.3499Z" fill="white"/>
<path d="M224.763 21.483C222.984 21.483 221.518 20.8566 220.365 19.6041C219.211 18.3516 218.634 16.7689 218.635 14.8563C218.635 12.9608 219.195 11.3824 220.315 10.1211C221.435 8.85972 222.869 8.22935 224.615 8.22998C226.41 8.22998 227.839 8.82669 228.902 10.0201C229.965 11.2136 230.496 12.885 230.497 15.0345L230.472 15.2884H220.958C220.991 16.5071 221.386 17.4888 222.144 18.2335C222.502 18.5955 222.927 18.8807 223.393 19.0724C223.86 19.2642 224.36 19.3588 224.862 19.3507C226.312 19.3507 227.448 18.6057 228.272 17.1159L230.299 18.1316C229.781 19.152 228.999 20.0047 228.037 20.5943C227.046 21.1943 225.913 21.5018 224.763 21.483ZM221.13 13.3583H228.074C228.05 12.9488 227.947 12.5483 227.771 12.18C227.595 11.8117 227.35 11.4829 227.049 11.2128C226.432 10.6459 225.604 10.3624 224.565 10.3622C223.756 10.3448 222.969 10.634 222.354 11.1747C221.736 11.7166 221.328 12.4445 221.13 13.3583Z" fill="white"/>
<path d="M232.744 8.63586H234.919V10.3624H235.019C235.365 9.753 235.896 9.24521 236.613 8.83898C237.295 8.4423 238.064 8.23258 238.848 8.22998C240.331 8.22998 241.472 8.66581 242.271 9.53747C243.07 10.4091 243.469 11.649 243.469 13.2571V21.0768H241.195V13.4091C241.146 11.3779 240.15 10.3624 238.206 10.3624C237.299 10.3624 236.541 10.739 235.932 11.4922C235.321 12.2511 234.996 13.2112 235.018 14.1962V21.0768H232.744V8.63586Z" fill="white"/>
<path d="M250.487 21.2795C249.499 21.2795 248.679 20.9664 248.028 20.3401C247.378 19.7139 247.044 18.8422 247.027 17.725V10.7686H244.902V8.63557H247.027V4.82715H249.3V8.63557H252.266V10.7686H249.3V16.9637C249.3 17.7932 249.458 18.356 249.77 18.652C250.055 18.9366 250.436 19.0961 250.833 19.0967C251.012 19.0969 251.19 19.0757 251.364 19.0332C251.529 18.9937 251.69 18.9384 251.846 18.8682L252.563 20.9501C251.894 21.1821 251.192 21.2937 250.487 21.2795Z" fill="white"/>
<path d="M268.451 21.4826C265.833 21.4826 263.641 20.577 261.878 18.7659C260.132 16.9549 259.26 14.6953 259.26 11.9869C259.26 9.27851 260.132 7.02731 261.878 5.23328C263.624 3.40523 265.816 2.49121 268.451 2.49121C271.12 2.49121 273.286 3.48141 274.951 5.46178L273.319 7.08671C272.05 5.51256 270.428 4.72549 268.451 4.72549C266.49 4.72549 264.851 5.40254 263.534 6.75665C262.233 8.09398 261.581 9.83732 261.581 11.9866C261.581 14.1359 262.233 15.8793 263.534 17.2166C264.852 18.571 266.491 19.2481 268.451 19.2478C270.511 19.2478 272.298 18.3592 273.814 16.5819L275.469 18.2317C274.631 19.2628 273.575 20.0835 272.38 20.631C271.145 21.2018 269.806 21.4922 268.451 21.4826Z" fill="white"/>
<path d="M279.942 2.89746V21.0765H277.669V2.89746H279.942Z" fill="white"/>
<path d="M293.508 21.0767H291.333V19.3501H291.234C290.888 19.9594 290.356 20.4672 289.64 20.8735C288.957 21.2704 288.187 21.4802 287.404 21.4828C285.921 21.4828 284.779 21.0469 283.98 20.1752C283.182 19.3035 282.782 18.0634 282.783 16.4551V8.63574H285.057V16.303C285.106 18.3342 286.102 19.3497 288.046 19.3497C288.952 19.3497 289.711 18.9731 290.32 18.2199C290.932 17.461 291.257 16.5009 291.234 15.5159V8.63574H293.508V21.0767Z" fill="white"/>
<path d="M302.848 21.4826C302.003 21.4933 301.167 21.2929 300.415 20.8986C299.725 20.5491 299.139 20.0138 298.722 19.3499H298.623V21.0765H296.448V2.89746H298.722V8.63549L298.622 10.362H298.722C299.139 9.69817 299.724 9.16298 300.414 8.81321C301.167 8.41899 302.003 8.2186 302.848 8.22925C304.445 8.22925 305.796 8.87246 306.9 10.1589C308.037 11.4624 308.605 13.0281 308.605 14.8559C308.605 16.701 308.037 18.2668 306.9 19.5529C305.797 20.8394 304.446 21.4826 302.848 21.4826ZM302.478 19.3499C302.997 19.3579 303.512 19.2484 303.987 19.029C304.46 18.8096 304.882 18.4857 305.22 18.0804C305.962 17.2512 306.333 16.1764 306.333 14.8559C306.333 13.5527 305.962 12.4779 305.22 11.6314C304.874 11.2322 304.45 10.9126 303.975 10.6938C303.5 10.4749 302.986 10.3618 302.465 10.3618C301.945 10.3618 301.431 10.4749 300.955 10.6938C300.481 10.9126 300.057 11.2322 299.71 11.6314C298.985 12.4781 298.622 13.5529 298.623 14.8559C298.623 16.1761 298.985 17.2594 299.71 18.1057C300.057 18.5066 300.483 18.8254 300.961 19.0402C301.439 19.255 301.956 19.3607 302.478 19.3499Z" fill="white"/>
<path d="M319.998 17.6232C319.998 18.7067 319.537 19.6208 318.614 20.3653C317.691 21.1099 316.53 21.4824 315.129 21.4825C313.91 21.4825 312.839 21.1567 311.917 20.505C311.013 19.8781 310.322 18.9774 309.94 17.928L311.966 17.0393C312.226 17.7355 312.677 18.3396 313.264 18.7784C313.806 19.1844 314.459 19.4024 315.129 19.4005C315.854 19.4005 316.459 19.2398 316.946 18.9181C317.432 18.5965 317.674 18.2157 317.674 17.7757C317.674 16.98 317.081 16.396 315.895 16.0237L313.819 15.4905C311.463 14.8812 310.286 13.7133 310.286 11.9868C310.286 10.853 310.735 9.94317 311.633 9.25738C312.53 8.57159 313.68 8.22896 315.081 8.22951C316.1 8.21563 317.104 8.48776 317.984 9.01659C318.804 9.4885 319.444 10.2311 319.801 11.1239L317.774 11.9872C317.541 11.4607 317.146 11.0278 316.65 10.7559C316.116 10.4558 315.516 10.3026 314.908 10.3112C314.344 10.3025 313.791 10.4612 313.313 10.7682C312.844 11.0729 312.609 11.4453 312.609 11.8853C312.609 12.5962 313.26 13.104 314.561 13.4087L316.39 13.8911C318.795 14.5004 319.997 15.7445 319.998 17.6232Z" fill="white"/>
</g>
<defs>
<clipPath id="clip0">
<rect width="320" height="45.8703" fill="white" transform="translate(0 0.566406)"/>
</clipPath>
</defs>
</svg>
