<svg width="926" height="704" viewBox="0 0 926 704" fill="none" xmlns="http://www.w3.org/2000/svg">
<rect x="190.557" y="393.817" width="47.6391" height="47.6391" rx="3" fill="#FE89E1"/>
<rect x="253.017" y="393.817" width="47.6391" height="47.6391" rx="3" fill="#FE89E1"/>
<rect x="315.477" y="393.817" width="47.6391" height="47.6391" rx="3" fill="#FE89E1"/>
<rect x="377.937" y="393.817" width="47.6391" height="47.6391" rx="3" fill="#FE89E1"/>
<rect x="502.857" y="393.817" width="47.6391" height="47.6391" rx="3" fill="#FE89E1"/>
<rect x="565.317" y="393.817" width="47.6391" height="47.6391" rx="3" fill="#FE89E1"/>
<rect x="627.777" y="393.817" width="47.6391" height="47.6391" rx="3" fill="#FE89E1"/>
<rect x="690.237" y="393.817" width="47.6391" height="47.6391" rx="3" fill="#FE89E1" fill-opacity="0.6"/>
<rect x="752.697" y="393.817" width="47.6391" height="47.6391" rx="3" fill="#FE89E1" fill-opacity="0.6"/>
<rect x="815.158" y="393.817" width="47.6391" height="47.6391" rx="3" fill="#FE89E1"/>
<rect x="877.618" y="393.817" width="47.6391" height="47.6391" rx="3" fill="#FE89E1" fill-opacity="0.6"/>
<rect x="190.557" y="459.453" width="47.6391" height="47.6391" rx="3" fill="#FE89E1"/>
<rect x="253.017" y="459.453" width="47.6391" height="47.6391" rx="3" fill="#FE89E1" fill-opacity="0.4"/>
<rect x="315.477" y="459.453" width="47.6391" height="47.6391" rx="3" fill="#FE89E1" fill-opacity="0.9"/>
<rect x="377.937" y="459.453" width="47.6391" height="47.6391" rx="3" fill="#FE89E1"/>
<rect x="440.396" y="459.453" width="47.6391" height="47.6391" rx="3" fill="#FE89E1" fill-opacity="0.5"/>
<rect x="502.857" y="459.453" width="47.6391" height="47.6391" rx="3" fill="#FE89E1"/>
<rect x="627.777" y="459.453" width="47.6391" height="47.6391" rx="3" fill="#FE89E1"/>
<rect x="690.237" y="459.453" width="47.6391" height="47.6391" rx="3" fill="#FE89E1" fill-opacity="0.9"/>
<rect x="752.697" y="459.453" width="47.6391" height="47.6391" rx="3" fill="#FE89E1" fill-opacity="0.6"/>
<rect x="815.158" y="459.453" width="47.6391" height="47.6391" rx="3" fill="#FE89E1"/>
<rect x="877.618" y="459.453" width="47.6391" height="47.6391" rx="3" fill="#FE89E1"/>
<rect x="190.557" y="525.089" width="47.6391" height="47.6391" rx="3" fill="#FE89E1"/>
<rect x="128.097" y="459.453" width="47.6391" height="47.6391" rx="3" fill="#FE89E1"/>
<rect x="128.097" y="525.089" width="47.6391" height="47.6391" rx="3" fill="#FE89E1" fill-opacity="0.5"/>
<rect x="315.477" y="525.089" width="47.6391" height="47.6391" rx="3" fill="#FE89E1" fill-opacity="0.9"/>
<rect x="377.937" y="525.089" width="47.6391" height="47.6391" rx="3" fill="#FE89E1" fill-opacity="0.9"/>
<rect x="377.937" y="590.725" width="47.6391" height="47.6391" rx="3" fill="#FE89E1" fill-opacity="0.2"/>
<rect x="440.396" y="525.089" width="47.6391" height="47.6391" rx="3" fill="#FE89E1"/>
<rect x="502.857" y="525.089" width="47.6391" height="47.6391" rx="3" fill="#FE89E1" fill-opacity="0.4"/>
<rect x="565.317" y="525.089" width="47.6391" height="47.6391" rx="3" fill="#FE89E1" fill-opacity="0.6"/>
<rect x="627.777" y="525.089" width="47.6391" height="47.6391" rx="3" fill="#FE89E1"/>
<rect x="690.237" y="525.089" width="47.6391" height="47.6391" rx="3" fill="#FE89E1" fill-opacity="0.6"/>
<rect x="752.697" y="525.089" width="47.6391" height="47.6391" rx="3" fill="#FE89E1" fill-opacity="0.6"/>
<rect x="815.158" y="525.089" width="47.6391" height="47.6391" rx="3" fill="#FE89E1"/>
<rect x="877.618" y="525.089" width="47.6391" height="47.6391" rx="3" fill="#FE89E1" fill-opacity="0.6"/>
<rect x="190.557" y="590.725" width="47.6391" height="47.6391" rx="3" fill="#FE89E1"/>
<rect x="253.017" y="590.725" width="47.6391" height="47.6391" rx="3" fill="#FE89E1" fill-opacity="0.4"/>
<rect x="315.477" y="590.725" width="47.6391" height="47.6391" rx="3" fill="#FE89E1" fill-opacity="0.7"/>
<rect x="440.396" y="590.725" width="47.6391" height="47.6391" rx="3" fill="#FE89E1"/>
<rect x="502.857" y="590.725" width="47.6391" height="47.6391" rx="3" fill="#FE89E1" fill-opacity="0.4"/>
<rect x="565.317" y="590.725" width="47.6391" height="47.6391" rx="3" fill="#FE89E1" fill-opacity="0.2"/>
<rect x="627.777" y="590.725" width="47.6391" height="47.6391" rx="3" fill="#FE89E1"/>
<rect x="690.237" y="590.725" width="47.6391" height="47.6391" rx="3" fill="#FE89E1" fill-opacity="0.8"/>
<rect x="377.937" y="656.361" width="47.6391" height="47.6391" rx="3" fill="#FE89E1" fill-opacity="0.2"/>
<rect x="315.477" y="656.361" width="47.6391" height="47.6391" rx="3" fill="#FE89E1" fill-opacity="0.7"/>
<rect x="440.396" y="656.361" width="47.6391" height="47.6391" rx="3" fill="#FE89E1"/>
<rect x="502.857" y="656.361" width="47.6391" height="47.6391" rx="3" fill="#FE89E1" fill-opacity="0.4"/>
<rect x="565.317" y="656.361" width="47.6391" height="47.6391" rx="3" fill="#FE89E1"/>
<rect x="627.777" y="656.361" width="47.6391" height="47.6391" rx="3" fill="#FE89E1"/>
<rect x="877.618" y="590.725" width="47.6391" height="47.6391" rx="3" fill="#FE89E1"/>
<rect x="690.237" y="656.361" width="47.6391" height="47.6391" rx="3" fill="#FE89E1" fill-opacity="0.8"/>
<rect x="752.697" y="590.725" width="47.6391" height="47.6391" rx="3" fill="#FE89E1" fill-opacity="0.8"/>
<rect x="190.557" y="196.908" width="47.6391" height="47.6391" rx="3" fill="#FE89E1"/>
<rect x="253.017" y="196.908" width="47.6391" height="47.6391" rx="3" fill="#FE89E1" fill-opacity="0.8"/>
<rect x="315.477" y="196.908" width="47.6391" height="47.6391" rx="3" fill="#FE89E1"/>
<rect x="440.396" y="196.908" width="47.6391" height="47.6391" rx="3" fill="#FE89E1" fill-opacity="0.4"/>
<rect x="502.857" y="196.908" width="47.6391" height="47.6391" rx="3" fill="#FE89E1" fill-opacity="0.4"/>
<rect x="565.317" y="196.908" width="47.6391" height="47.6391" rx="3" fill="#FE89E1" fill-opacity="0.4"/>
<rect x="627.777" y="196.908" width="47.6391" height="47.6391" rx="3" fill="#FE89E1"/>
<rect x="690.237" y="196.908" width="47.6391" height="47.6391" rx="3" fill="#FE89E1"/>
<rect x="752.697" y="196.908" width="47.6391" height="47.6391" rx="3" fill="#FE89E1"/>
<rect x="877.618" y="196.908" width="47.6391" height="47.6391" rx="3" fill="#FE89E1"/>
<rect x="190.557" y="262.544" width="47.6391" height="47.6391" rx="3" fill="#FE89E1" fill-opacity="0.6"/>
<rect x="253.017" y="262.544" width="47.6391" height="47.6391" rx="3" fill="#FE89E1" fill-opacity="0.6"/>
<rect x="315.477" y="262.544" width="47.6391" height="47.6391" rx="3" fill="#FE89E1" fill-opacity="0.6"/>
<rect x="377.937" y="262.544" width="47.6391" height="47.6391" rx="3" fill="#FE89E1" fill-opacity="0.8"/>
<rect x="440.396" y="262.544" width="47.6391" height="47.6391" rx="3" fill="#FE89E1" fill-opacity="0.4"/>
<rect x="565.317" y="262.544" width="47.6391" height="47.6391" rx="3" fill="#FE89E1" fill-opacity="0.4"/>
<rect x="627.777" y="262.544" width="47.6391" height="47.6391" rx="3" fill="#FE89E1"/>
<rect x="690.237" y="262.544" width="47.6391" height="47.6391" rx="3" fill="#FE89E1" fill-opacity="0.9"/>
<rect x="752.697" y="262.544" width="47.6391" height="47.6391" rx="3" fill="#FE89E1" fill-opacity="0.9"/>
<rect x="815.158" y="262.544" width="47.6391" height="47.6391" rx="3" fill="#FE89E1"/>
<rect x="877.618" y="262.544" width="47.6391" height="47.6391" rx="3" fill="#FE89E1"/>
<rect x="190.557" y="328.18" width="47.6391" height="47.6391" rx="3" fill="#FE89E1"/>
<rect x="128.097" y="196.908" width="47.6391" height="47.6391" rx="3" fill="#FE89E1" fill-opacity="0.2"/>
<rect x="128.097" y="262.544" width="47.6391" height="47.6391" rx="3" fill="#FE89E1" fill-opacity="0.4"/>
<rect x="128.097" y="328.18" width="47.6391" height="47.6391" rx="3" fill="#FE89E1"/>
<rect x="253.017" y="328.18" width="47.6391" height="47.6391" rx="3" fill="#FE89E1"/>
<rect x="315.477" y="328.18" width="47.6391" height="47.6391" rx="3" fill="#FE89E1" fill-opacity="0.3"/>
<rect x="377.937" y="328.18" width="47.6391" height="47.6391" rx="3" fill="#FE89E1"/>
<rect x="440.396" y="328.18" width="47.6391" height="47.6391" rx="3" fill="#FE89E1"/>
<rect x="502.857" y="328.18" width="47.6391" height="47.6391" rx="3" fill="#FE89E1" fill-opacity="0.4"/>
<rect x="565.317" y="328.18" width="47.6391" height="47.6391" rx="3" fill="#FE89E1"/>
<rect x="627.777" y="328.18" width="47.6391" height="47.6391" rx="3" fill="#FE89E1"/>
<rect x="690.237" y="328.18" width="47.6391" height="47.6391" rx="3" fill="#FE89E1" fill-opacity="0.5"/>
<rect x="752.697" y="328.18" width="47.6391" height="47.6391" rx="3" fill="#FE89E1"/>
<rect x="815.158" y="328.18" width="47.6391" height="47.6391" rx="3" fill="#FE89E1" fill-opacity="0.8"/>
<rect x="190.557" width="47.6391" height="47.6391" rx="3" fill="#FE89E1" fill-opacity="0.6"/>
<rect x="253.017" width="47.6391" height="47.6391" rx="3" fill="#FE89E1" fill-opacity="0.2"/>
<rect x="315.477" width="47.6391" height="47.6391" rx="3" fill="#FE89E1" fill-opacity="0.8"/>
<rect x="440.396" width="47.6391" height="47.6391" rx="3" fill="#FE89E1" fill-opacity="0.1"/>
<rect x="565.317" width="47.6391" height="47.6391" rx="3" fill="#FE89E1" fill-opacity="0.4"/>
<rect x="627.777" width="47.6391" height="47.6391" rx="3" fill="#FE89E1" fill-opacity="0.4"/>
<rect x="690.237" width="47.6391" height="47.6391" rx="3" fill="#FE89E1" fill-opacity="0.4"/>
<rect x="752.697" width="47.6391" height="47.6391" rx="3" fill="#FE89E1" fill-opacity="0.7"/>
<rect x="815.158" width="47.6391" height="47.6391" rx="3" fill="#FE89E1" fill-opacity="0.7"/>
<rect x="877.618" width="47.6391" height="47.6391" rx="3" fill="#FE89E1" fill-opacity="0.2"/>
<rect x="190.557" y="65.6361" width="47.6391" height="47.6391" rx="3" fill="#FE89E1"/>
<rect x="253.017" y="65.6361" width="47.6391" height="47.6391" rx="3" fill="#FE89E1" fill-opacity="0.1"/>
<rect x="315.477" y="65.6361" width="47.6391" height="47.6391" rx="3" fill="#FE89E1" fill-opacity="0.6"/>
<rect x="377.937" y="65.6361" width="47.6391" height="47.6391" rx="3" fill="#FE89E1"/>
<rect x="440.396" y="65.6361" width="47.6391" height="47.6391" rx="3" fill="#FE89E1"/>
<rect x="502.857" y="65.6361" width="47.6391" height="47.6391" rx="3" fill="#FE89E1" fill-opacity="0.7"/>
<rect x="565.317" y="65.6361" width="47.6391" height="47.6391" rx="3" fill="#FE89E1"/>
<rect x="627.777" y="65.6361" width="47.6391" height="47.6391" rx="3" fill="#FE89E1"/>
<rect x="690.237" y="65.6361" width="47.6391" height="47.6391" rx="3" fill="#FE89E1" fill-opacity="0.4"/>
<rect x="752.697" y="65.6361" width="47.6391" height="47.6391" rx="3" fill="#FE89E1"/>
<rect x="815.158" y="65.6361" width="47.6391" height="47.6391" rx="3" fill="#FE89E1" fill-opacity="0.8"/>
<rect x="190.557" y="131.272" width="47.6391" height="47.6391" rx="3" fill="#FE89E1"/>
<rect x="128.097" width="47.6391" height="47.6391" rx="3" fill="#FE89E1"/>
<rect x="128.097" y="131.272" width="47.6391" height="47.6391" rx="3" fill="#FE89E1" fill-opacity="0.2"/>
<rect x="62.46" y="262.544" width="47.6391" height="47.6391" rx="3" fill="#FE89E1" fill-opacity="0.4"/>
<rect x="62.46" y="328.18" width="47.6391" height="47.6391" rx="3" fill="#FE89E1" fill-opacity="0.8"/>
<rect x="62.46" y="393.817" width="47.6391" height="47.6391" rx="3" fill="#FE89E1" fill-opacity="0.8"/>
<rect y="262.544" width="47.6391" height="47.6391" rx="3" fill="#FE89E1" fill-opacity="0.2"/>
<rect y="328.18" width="47.6391" height="47.6391" rx="3" fill="#FE89E1" fill-opacity="0.4"/>
<rect x="62.46" y="196.908" width="47.6391" height="47.6391" rx="3" fill="#FE89E1" fill-opacity="0.2"/>
<rect x="253.017" y="131.272" width="47.6391" height="47.6391" rx="3" fill="#FE89E1" fill-opacity="0.8"/>
<rect x="315.477" y="131.272" width="47.6391" height="47.6391" rx="3" fill="#FE89E1"/>
<rect x="377.937" y="131.272" width="47.6391" height="47.6391" rx="3" fill="#FE89E1" fill-opacity="0.8"/>
<rect x="440.396" y="131.272" width="47.6391" height="47.6391" rx="3" fill="#FE89E1"/>
<rect x="502.857" y="131.272" width="47.6391" height="47.6391" rx="3" fill="#FE89E1"/>
<rect x="565.317" y="131.272" width="47.6391" height="47.6391" rx="3" fill="#FE89E1" fill-opacity="0.6"/>
<rect x="690.237" y="131.272" width="47.6391" height="47.6391" rx="3" fill="#FE89E1"/>
<rect x="752.697" y="131.272" width="47.6391" height="47.6391" rx="3" fill="#FE89E1"/>
<rect x="815.158" y="131.272" width="47.6391" height="47.6391" rx="3" fill="#FE89E1"/>
<rect x="877.618" y="131.272" width="47.6391" height="47.6391" rx="3" fill="#FE89E1"/>
</svg>
