<svg xmlns="http://www.w3.org/2000/svg" width="926" height="704" fill="none" viewBox="0 0 926 704"><rect width="47.639" height="47.639" x="190.557" y="393.817" fill="#FE89E1" rx="3"/><rect width="47.639" height="47.639" x="253.017" y="393.817" fill="#FE89E1" rx="3"/><rect width="47.639" height="47.639" x="315.477" y="393.817" fill="#FE89E1" rx="3"/><rect width="47.639" height="47.639" x="377.937" y="393.817" fill="#FE89E1" rx="3"/><rect width="47.639" height="47.639" x="502.857" y="393.817" fill="#FE89E1" rx="3"/><rect width="47.639" height="47.639" x="565.317" y="393.817" fill="#FE89E1" rx="3"/><rect width="47.639" height="47.639" x="627.777" y="393.817" fill="#FE89E1" rx="3"/><rect width="47.639" height="47.639" x="690.237" y="393.817" fill="#FE89E1" fill-opacity=".6" rx="3"/><rect width="47.639" height="47.639" x="752.697" y="393.817" fill="#FE89E1" fill-opacity=".6" rx="3"/><rect width="47.639" height="47.639" x="815.158" y="393.817" fill="#FE89E1" rx="3"/><rect width="47.639" height="47.639" x="877.618" y="393.817" fill="#FE89E1" fill-opacity=".6" rx="3"/><rect width="47.639" height="47.639" x="190.557" y="459.453" fill="#FE89E1" rx="3"/><rect width="47.639" height="47.639" x="253.017" y="459.453" fill="#FE89E1" fill-opacity=".4" rx="3"/><rect width="47.639" height="47.639" x="315.477" y="459.453" fill="#FE89E1" fill-opacity=".9" rx="3"/><rect width="47.639" height="47.639" x="377.937" y="459.453" fill="#FE89E1" rx="3"/><rect width="47.639" height="47.639" x="440.396" y="459.453" fill="#FE89E1" fill-opacity=".5" rx="3"/><rect width="47.639" height="47.639" x="502.857" y="459.453" fill="#FE89E1" rx="3"/><rect width="47.639" height="47.639" x="627.777" y="459.453" fill="#FE89E1" rx="3"/><rect width="47.639" height="47.639" x="690.237" y="459.453" fill="#FE89E1" fill-opacity=".9" rx="3"/><rect width="47.639" height="47.639" x="752.697" y="459.453" fill="#FE89E1" fill-opacity=".6" rx="3"/><rect width="47.639" height="47.639" x="815.158" y="459.453" fill="#FE89E1" rx="3"/><rect width="47.639" height="47.639" x="877.618" y="459.453" fill="#FE89E1" rx="3"/><rect width="47.639" height="47.639" x="190.557" y="525.089" fill="#FE89E1" rx="3"/><rect width="47.639" height="47.639" x="128.097" y="459.453" fill="#FE89E1" rx="3"/><rect width="47.639" height="47.639" x="128.097" y="525.089" fill="#FE89E1" fill-opacity=".5" rx="3"/><rect width="47.639" height="47.639" x="315.477" y="525.089" fill="#FE89E1" fill-opacity=".9" rx="3"/><rect width="47.639" height="47.639" x="377.937" y="525.089" fill="#FE89E1" fill-opacity=".9" rx="3"/><rect width="47.639" height="47.639" x="377.937" y="590.725" fill="#FE89E1" fill-opacity=".2" rx="3"/><rect width="47.639" height="47.639" x="440.396" y="525.089" fill="#FE89E1" rx="3"/><rect width="47.639" height="47.639" x="502.857" y="525.089" fill="#FE89E1" fill-opacity=".4" rx="3"/><rect width="47.639" height="47.639" x="565.317" y="525.089" fill="#FE89E1" fill-opacity=".6" rx="3"/><rect width="47.639" height="47.639" x="627.777" y="525.089" fill="#FE89E1" rx="3"/><rect width="47.639" height="47.639" x="690.237" y="525.089" fill="#FE89E1" fill-opacity=".6" rx="3"/><rect width="47.639" height="47.639" x="752.697" y="525.089" fill="#FE89E1" fill-opacity=".6" rx="3"/><rect width="47.639" height="47.639" x="815.158" y="525.089" fill="#FE89E1" rx="3"/><rect width="47.639" height="47.639" x="877.618" y="525.089" fill="#FE89E1" fill-opacity=".6" rx="3"/><rect width="47.639" height="47.639" x="190.557" y="590.725" fill="#FE89E1" rx="3"/><rect width="47.639" height="47.639" x="253.017" y="590.725" fill="#FE89E1" fill-opacity=".4" rx="3"/><rect width="47.639" height="47.639" x="315.477" y="590.725" fill="#FE89E1" fill-opacity=".7" rx="3"/><rect width="47.639" height="47.639" x="440.396" y="590.725" fill="#FE89E1" rx="3"/><rect width="47.639" height="47.639" x="502.857" y="590.725" fill="#FE89E1" fill-opacity=".4" rx="3"/><rect width="47.639" height="47.639" x="565.317" y="590.725" fill="#FE89E1" fill-opacity=".2" rx="3"/><rect width="47.639" height="47.639" x="627.777" y="590.725" fill="#FE89E1" rx="3"/><rect width="47.639" height="47.639" x="690.237" y="590.725" fill="#FE89E1" fill-opacity=".8" rx="3"/><rect width="47.639" height="47.639" x="377.937" y="656.361" fill="#FE89E1" fill-opacity=".2" rx="3"/><rect width="47.639" height="47.639" x="315.477" y="656.361" fill="#FE89E1" fill-opacity=".7" rx="3"/><rect width="47.639" height="47.639" x="440.396" y="656.361" fill="#FE89E1" rx="3"/><rect width="47.639" height="47.639" x="502.857" y="656.361" fill="#FE89E1" fill-opacity=".4" rx="3"/><rect width="47.639" height="47.639" x="565.317" y="656.361" fill="#FE89E1" rx="3"/><rect width="47.639" height="47.639" x="627.777" y="656.361" fill="#FE89E1" rx="3"/><rect width="47.639" height="47.639" x="877.618" y="590.725" fill="#FE89E1" rx="3"/><rect width="47.639" height="47.639" x="690.237" y="656.361" fill="#FE89E1" fill-opacity=".8" rx="3"/><rect width="47.639" height="47.639" x="752.697" y="590.725" fill="#FE89E1" fill-opacity=".8" rx="3"/><rect width="47.639" height="47.639" x="190.557" y="196.908" fill="#FE89E1" rx="3"/><rect width="47.639" height="47.639" x="253.017" y="196.908" fill="#FE89E1" fill-opacity=".8" rx="3"/><rect width="47.639" height="47.639" x="315.477" y="196.908" fill="#FE89E1" rx="3"/><rect width="47.639" height="47.639" x="440.396" y="196.908" fill="#FE89E1" fill-opacity=".4" rx="3"/><rect width="47.639" height="47.639" x="502.857" y="196.908" fill="#FE89E1" fill-opacity=".4" rx="3"/><rect width="47.639" height="47.639" x="565.317" y="196.908" fill="#FE89E1" fill-opacity=".4" rx="3"/><rect width="47.639" height="47.639" x="627.777" y="196.908" fill="#FE89E1" rx="3"/><rect width="47.639" height="47.639" x="690.237" y="196.908" fill="#FE89E1" rx="3"/><rect width="47.639" height="47.639" x="752.697" y="196.908" fill="#FE89E1" rx="3"/><rect width="47.639" height="47.639" x="877.618" y="196.908" fill="#FE89E1" rx="3"/><rect width="47.639" height="47.639" x="190.557" y="262.544" fill="#FE89E1" fill-opacity=".6" rx="3"/><rect width="47.639" height="47.639" x="253.017" y="262.544" fill="#FE89E1" fill-opacity=".6" rx="3"/><rect width="47.639" height="47.639" x="315.477" y="262.544" fill="#FE89E1" fill-opacity=".6" rx="3"/><rect width="47.639" height="47.639" x="377.937" y="262.544" fill="#FE89E1" fill-opacity=".8" rx="3"/><rect width="47.639" height="47.639" x="440.396" y="262.544" fill="#FE89E1" fill-opacity=".4" rx="3"/><rect width="47.639" height="47.639" x="565.317" y="262.544" fill="#FE89E1" fill-opacity=".4" rx="3"/><rect width="47.639" height="47.639" x="627.777" y="262.544" fill="#FE89E1" rx="3"/><rect width="47.639" height="47.639" x="690.237" y="262.544" fill="#FE89E1" fill-opacity=".9" rx="3"/><rect width="47.639" height="47.639" x="752.697" y="262.544" fill="#FE89E1" fill-opacity=".9" rx="3"/><rect width="47.639" height="47.639" x="815.158" y="262.544" fill="#FE89E1" rx="3"/><rect width="47.639" height="47.639" x="877.618" y="262.544" fill="#FE89E1" rx="3"/><rect width="47.639" height="47.639" x="190.557" y="328.18" fill="#FE89E1" rx="3"/><rect width="47.639" height="47.639" x="128.097" y="196.908" fill="#FE89E1" fill-opacity=".2" rx="3"/><rect width="47.639" height="47.639" x="128.097" y="262.544" fill="#FE89E1" fill-opacity=".4" rx="3"/><rect width="47.639" height="47.639" x="128.097" y="328.18" fill="#FE89E1" rx="3"/><rect width="47.639" height="47.639" x="253.017" y="328.18" fill="#FE89E1" rx="3"/><rect width="47.639" height="47.639" x="315.477" y="328.18" fill="#FE89E1" fill-opacity=".3" rx="3"/><rect width="47.639" height="47.639" x="377.937" y="328.18" fill="#FE89E1" rx="3"/><rect width="47.639" height="47.639" x="440.396" y="328.18" fill="#FE89E1" rx="3"/><rect width="47.639" height="47.639" x="502.857" y="328.18" fill="#FE89E1" fill-opacity=".4" rx="3"/><rect width="47.639" height="47.639" x="565.317" y="328.18" fill="#FE89E1" rx="3"/><rect width="47.639" height="47.639" x="627.777" y="328.18" fill="#FE89E1" rx="3"/><rect width="47.639" height="47.639" x="690.237" y="328.18" fill="#FE89E1" fill-opacity=".5" rx="3"/><rect width="47.639" height="47.639" x="752.697" y="328.18" fill="#FE89E1" rx="3"/><rect width="47.639" height="47.639" x="815.158" y="328.18" fill="#FE89E1" fill-opacity=".8" rx="3"/><rect width="47.639" height="47.639" x="190.557" fill="#FE89E1" fill-opacity=".6" rx="3"/><rect width="47.639" height="47.639" x="253.017" fill="#FE89E1" fill-opacity=".2" rx="3"/><rect width="47.639" height="47.639" x="315.477" fill="#FE89E1" fill-opacity=".8" rx="3"/><rect width="47.639" height="47.639" x="440.396" fill="#FE89E1" fill-opacity=".1" rx="3"/><rect width="47.639" height="47.639" x="565.317" fill="#FE89E1" fill-opacity=".4" rx="3"/><rect width="47.639" height="47.639" x="627.777" fill="#FE89E1" fill-opacity=".4" rx="3"/><rect width="47.639" height="47.639" x="690.237" fill="#FE89E1" fill-opacity=".4" rx="3"/><rect width="47.639" height="47.639" x="752.697" fill="#FE89E1" fill-opacity=".7" rx="3"/><rect width="47.639" height="47.639" x="815.158" fill="#FE89E1" fill-opacity=".7" rx="3"/><rect width="47.639" height="47.639" x="877.618" fill="#FE89E1" fill-opacity=".2" rx="3"/><rect width="47.639" height="47.639" x="190.557" y="65.636" fill="#FE89E1" rx="3"/><rect width="47.639" height="47.639" x="253.017" y="65.636" fill="#FE89E1" fill-opacity=".1" rx="3"/><rect width="47.639" height="47.639" x="315.477" y="65.636" fill="#FE89E1" fill-opacity=".6" rx="3"/><rect width="47.639" height="47.639" x="377.937" y="65.636" fill="#FE89E1" rx="3"/><rect width="47.639" height="47.639" x="440.396" y="65.636" fill="#FE89E1" rx="3"/><rect width="47.639" height="47.639" x="502.857" y="65.636" fill="#FE89E1" fill-opacity=".7" rx="3"/><rect width="47.639" height="47.639" x="565.317" y="65.636" fill="#FE89E1" rx="3"/><rect width="47.639" height="47.639" x="627.777" y="65.636" fill="#FE89E1" rx="3"/><rect width="47.639" height="47.639" x="690.237" y="65.636" fill="#FE89E1" fill-opacity=".4" rx="3"/><rect width="47.639" height="47.639" x="752.697" y="65.636" fill="#FE89E1" rx="3"/><rect width="47.639" height="47.639" x="815.158" y="65.636" fill="#FE89E1" fill-opacity=".8" rx="3"/><rect width="47.639" height="47.639" x="190.557" y="131.272" fill="#FE89E1" rx="3"/><rect width="47.639" height="47.639" x="128.097" fill="#FE89E1" rx="3"/><rect width="47.639" height="47.639" x="128.097" y="131.272" fill="#FE89E1" fill-opacity=".2" rx="3"/><rect width="47.639" height="47.639" x="62.46" y="262.544" fill="#FE89E1" fill-opacity=".4" rx="3"/><rect width="47.639" height="47.639" x="62.46" y="328.18" fill="#FE89E1" fill-opacity=".8" rx="3"/><rect width="47.639" height="47.639" x="62.46" y="393.817" fill="#FE89E1" fill-opacity=".8" rx="3"/><rect width="47.639" height="47.639" y="262.544" fill="#FE89E1" fill-opacity=".2" rx="3"/><rect width="47.639" height="47.639" y="328.18" fill="#FE89E1" fill-opacity=".4" rx="3"/><rect width="47.639" height="47.639" x="62.46" y="196.908" fill="#FE89E1" fill-opacity=".2" rx="3"/><rect width="47.639" height="47.639" x="253.017" y="131.272" fill="#FE89E1" fill-opacity=".8" rx="3"/><rect width="47.639" height="47.639" x="315.477" y="131.272" fill="#FE89E1" rx="3"/><rect width="47.639" height="47.639" x="377.937" y="131.272" fill="#FE89E1" fill-opacity=".8" rx="3"/><rect width="47.639" height="47.639" x="440.396" y="131.272" fill="#FE89E1" rx="3"/><rect width="47.639" height="47.639" x="502.857" y="131.272" fill="#FE89E1" rx="3"/><rect width="47.639" height="47.639" x="565.317" y="131.272" fill="#FE89E1" fill-opacity=".6" rx="3"/><rect width="47.639" height="47.639" x="690.237" y="131.272" fill="#FE89E1" rx="3"/><rect width="47.639" height="47.639" x="752.697" y="131.272" fill="#FE89E1" rx="3"/><rect width="47.639" height="47.639" x="815.158" y="131.272" fill="#FE89E1" rx="3"/><rect width="47.639" height="47.639" x="877.618" y="131.272" fill="#FE89E1" rx="3"/></svg>