<svg width="346" height="70" viewBox="0 0 346 70" fill="none" xmlns="http://www.w3.org/2000/svg">
<path d="M99.9939 53.2666H346" stroke="white" stroke-width="2" stroke-miterlimit="10"/>
<path d="M102.148 1.9038H107.013V12.9983H107.088C107.496 11.9729 107.904 10.8741 108.313 9.81192L111.655 1.90283H117.003L111.395 12.6319L117.077 26.5846H111.767L108.127 16.3668L107.013 18.3805V26.5822H102.148V1.9038Z" fill="white"/>
<path d="M123.504 20.9432L122.389 26.5817H117.673L123.095 1.90332H128.926L133.79 26.5817H129.074L127.997 20.9432H123.504ZM127.552 17.2083L126.734 12.0458C126.475 10.5448 126.141 8.09126 125.918 6.44542H125.806C125.546 8.09319 125.175 10.6563 124.914 12.0844L123.986 17.2102L127.552 17.2083Z" fill="white"/>
<path d="M136.54 1.90332H141.406V22.5185H147.83V26.5827H136.54V1.90332Z" fill="white"/>
<path d="M155.519 1.90332V26.5817H150.654V1.90332H155.519Z" fill="white"/>
<path d="M159.864 26.5817V1.90332H164.32L168.183 11.5698C168.926 13.4734 170.151 16.6589 170.857 18.7832H170.931C170.782 16.1833 170.448 11.8995 170.448 7.35935V1.9038H174.719V26.5817H170.262L166.437 17.2083C165.621 15.1212 164.469 12.0091 163.912 9.77572H163.838C163.949 12.2655 164.135 16.0733 164.135 21.0161V26.5817H159.864Z" fill="white"/>
<path d="M192.918 25.9231C191.841 26.3625 189.539 26.8018 187.719 26.8018C184.859 26.8018 182.706 25.9965 181.034 24.3487C178.88 22.2983 177.729 18.6359 177.803 14.3897C177.914 5.41896 183.113 1.68457 188.424 1.68457C190.317 1.68457 191.729 2.05053 192.509 2.41648L191.658 6.55401C190.953 6.18805 190.024 6.00507 188.799 6.00507C185.493 6.00507 182.856 8.23846 182.856 14.6823C182.854 20.6153 185.194 22.7396 187.458 22.7396C187.904 22.7396 188.238 22.7029 188.424 22.63V16.6593H186.195V12.7419H192.918V25.9231Z" fill="white"/>
<path d="M200.533 20.9432L199.419 26.5817H194.702L200.124 1.90332H205.955L210.82 26.5817H206.103L205.026 20.9432H200.533ZM204.581 17.2083L203.763 12.0458C203.504 10.5448 203.17 8.09126 202.947 6.44542H202.835C202.575 8.09319 202.204 10.6563 201.944 12.0844L201.016 17.2102L204.581 17.2083Z" fill="white"/>
<path d="M224.342 1.90332V26.5817H219.475V1.90332H224.342Z" fill="white"/>
<path d="M228.686 26.5817V1.90332H233.143L237.005 11.5698C237.748 13.4734 238.974 16.6589 239.679 18.7832H239.754C239.605 16.1833 239.271 11.8995 239.271 7.35935V1.9038H243.542V26.5817H239.085L235.26 17.2083C234.443 15.1212 233.291 12.0091 232.734 9.77572H232.66C232.771 12.2655 232.957 16.0733 232.957 21.0161V26.5817H228.686Z" fill="white"/>
<path d="M247.293 21.6774C248.296 22.2268 250.004 22.63 251.415 22.63C253.718 22.63 254.832 21.4582 254.832 19.8467C254.832 18.0531 253.718 17.1739 251.601 15.8192C248.184 13.7674 246.886 11.1675 246.886 8.93173C246.886 4.97767 249.56 1.68262 254.797 1.68262C256.431 1.68262 257.991 2.12147 258.734 2.5613L257.954 6.69882C257.248 6.259 256.171 5.85635 254.759 5.85635C252.68 5.85635 251.677 7.10099 251.677 8.41901C251.677 9.88428 252.42 10.6529 255.131 12.264C258.437 14.241 259.662 16.7307 259.662 19.3306C259.662 23.8341 256.283 26.7998 251.38 26.7998C249.374 26.7998 247.406 26.2871 246.59 25.8116L247.293 21.6774Z" fill="white"/>
<path d="M265.194 6.3339H260.775V1.90332H274.516V6.3339H270.059V26.5817H265.194V6.3339Z" fill="white"/>
<path d="M281.945 1.90332V26.5817H277.079V1.90332H281.945Z" fill="white"/>
<path d="M289.001 6.3339H284.583V1.90332H298.323V6.3339H293.867V26.5817H289.001V6.3339Z" fill="white"/>
<path d="M305.603 1.90332V17.9407C305.603 21.5655 306.717 22.6638 307.98 22.6638C309.391 22.6638 310.394 21.6751 310.394 17.9407V1.90332H315.259V17.0987C315.259 23.4329 312.846 26.8743 308.018 26.8743C302.782 26.8743 300.739 23.3228 300.739 17.1349V1.90332H305.603Z" fill="white"/>
<path d="M322.168 6.3339H317.749V1.90332H331.49V6.3339H327.033V26.5817H322.168V6.3339Z" fill="white"/>
<path d="M344.638 15.744H338.919V22.4065H345.38V26.5807H334.053V1.90332H344.936V6.07754H338.919V11.7528H344.638V15.744Z" fill="white"/>
<path d="M111.554 39.5298C111.554 45.9509 109.273 48.5541 106.027 48.5541C102.149 48.5541 100.628 44.4591 100.628 39.7828C100.628 35.1315 102.479 31.1123 106.256 31.1123C110.388 31.1123 111.554 35.637 111.554 39.5298ZM104.076 39.8335C104.076 43.7006 104.811 45.6723 106.154 45.6723C107.549 45.6723 108.081 43.1444 108.081 39.6814C108.081 36.6992 107.625 33.9941 106.129 33.9941C104.811 33.9941 104.076 36.1681 104.076 39.8335Z" fill="white"/>
<path d="M113.659 31.3149H121.088V34.1962H116.981V38.5694H120.836V41.3242H116.983V48.3517H113.661L113.659 31.3149Z" fill="white"/>
<path d="M130.951 31.3149V48.3517H127.63V31.3149H130.951Z" fill="white"/>
<path d="M133.919 48.3517V31.3149H136.961L139.597 37.9876C140.104 39.3022 140.941 41.5014 141.422 42.9676H141.471C141.369 41.1731 141.141 38.2155 141.141 35.0812V31.3154H144.057V48.3517H141.016L138.405 41.8823C137.847 40.4416 137.061 38.2932 136.681 36.7512H136.632C136.709 38.4699 136.835 41.0992 136.835 44.5116V48.3536L133.919 48.3517Z" fill="white"/>
<path d="M147.002 31.5671C147.839 31.3648 149.056 31.2383 150.374 31.2383C152.529 31.2383 154.025 31.7438 155.115 32.7552C156.585 34.0694 157.346 36.3192 157.346 39.6306C157.346 43.0681 156.459 45.5207 154.963 46.8349C153.822 47.9453 152.123 48.4764 149.74 48.4764C148.825 48.4679 147.911 48.4087 147.002 48.2992V31.5671ZM150.324 45.7225C150.476 45.7732 150.729 45.7732 150.907 45.7732C152.504 45.7732 153.9 44.2056 153.9 39.5042C153.9 36.0155 152.988 33.8927 150.985 33.8927C150.756 33.8927 150.528 33.8927 150.326 33.9685L150.324 45.7225Z" fill="white"/>
<path d="M162.668 31.3149V42.3858C162.668 44.8886 163.429 45.6471 164.291 45.6471C165.256 45.6471 165.939 44.9644 165.939 42.3858V31.3149H169.26V41.8046C169.26 46.1777 167.612 48.554 164.317 48.554C160.744 48.554 159.348 46.1019 159.348 41.8301V31.3149H162.668Z" fill="white"/>
<path d="M171.746 44.9642C172.431 45.3432 173.597 45.6212 174.56 45.6212C176.132 45.6212 176.893 44.8126 176.893 43.7002C176.893 42.4619 176.132 41.855 174.687 40.9198C172.355 39.5043 171.467 37.7093 171.467 36.1677C171.467 33.4375 173.293 31.1626 176.867 31.1626C177.983 31.1626 179.047 31.4658 179.554 31.769L179.023 34.6257C178.541 34.3225 177.806 34.0463 176.843 34.0463C175.423 34.0463 174.739 34.9057 174.739 35.8157C174.739 36.8267 175.246 37.3573 177.097 38.4711C179.353 39.8364 180.19 41.5552 180.19 43.3497C180.19 46.4589 177.883 48.5064 174.536 48.5064C173.167 48.5064 171.824 48.1525 171.266 47.8237L171.746 44.9642Z" fill="white"/>
<path d="M183.967 34.3749H180.949V31.3149H190.33V34.3749H187.288V48.3517H183.967L183.967 34.3749Z" fill="white"/>
<path d="M192.08 31.5671C193.119 31.3648 194.437 31.2383 195.705 31.2383C197.53 31.2383 199.153 31.4913 200.268 32.5022C201.308 33.4374 201.611 34.5749 201.611 36.0411C201.611 37.8612 200.725 39.5042 198.975 40.3128V40.3611C200.141 40.8164 200.725 41.9031 201.054 43.7228C201.384 45.6187 201.84 47.7169 202.144 48.3489H198.671C198.468 47.8661 198.088 46.1493 197.835 44.279C197.53 42.1547 196.998 41.5493 195.882 41.5493H195.4V48.3513H192.079L192.08 31.5671ZM195.401 38.9987H195.984C197.429 38.9987 198.266 37.8356 198.266 36.3433C198.266 34.9022 197.682 33.8656 196.186 33.8154C195.907 33.8154 195.578 33.8405 195.401 33.9163V38.9987Z" fill="white"/>
<path d="M207.317 31.3149V48.3517H203.996V31.3149H207.317Z" fill="white"/>
<path d="M212.996 44.4589L212.236 48.3517H209.016L212.717 31.3149H216.697L220.018 48.3517H216.799L216.064 44.4589H212.996ZM215.759 41.8804L215.202 38.3164C215.024 37.2798 214.797 35.5867 214.644 34.4492H214.568C214.391 35.5867 214.137 37.3556 213.96 38.3415L213.326 41.8804H215.759Z" fill="white"/>
<path d="M221.896 31.3149H225.217V45.5457H229.604V48.3517H221.896V31.3149Z" fill="white"/>
<path d="M237.135 34.3749H234.117V31.3149H243.497V34.3749H240.456V48.3517H237.135V34.3749Z" fill="white"/>
<path d="M252.472 40.8694H248.568V45.4699H252.98V48.3517H245.245V31.3149H252.675V34.1962H248.568V38.1141H252.472V40.8694Z" fill="white"/>
<path d="M263.425 48.0984C262.942 48.3258 262.005 48.503 260.839 48.503C256.479 48.503 254.4 44.9135 254.4 40.0855C254.4 33.6644 257.972 31.1626 261.296 31.1626C262.462 31.1626 263.273 31.39 263.602 31.6174L263.045 34.3983C262.664 34.2211 262.234 34.0695 261.5 34.0695C259.624 34.0695 257.927 35.6873 257.927 39.9113C257.927 43.9807 259.472 45.5734 261.5 45.5734C262.041 45.5633 262.579 45.4782 263.097 45.3205L263.425 48.0984Z" fill="white"/>
<path d="M268.572 31.3149V38.1406H272.048V31.3149H275.369V48.3517H272.048V41.2233H268.572V48.3517H265.251V31.3149H268.572Z" fill="white"/>
<path d="M278.309 48.3517V31.3149H281.351L283.987 37.9876C284.495 39.3022 285.331 41.5014 285.813 42.9676H285.863C285.762 41.1731 285.534 38.2155 285.534 35.0812V31.3154H288.45V48.3517H285.408L282.798 41.8823C282.239 40.4416 281.454 38.2932 281.074 36.7512H281.023C281.099 38.4699 281.226 41.0992 281.226 44.5116V48.3536L278.309 48.3517Z" fill="white"/>
<path d="M301.482 39.5298C301.482 45.9509 299.2 48.5541 295.955 48.5541C292.076 48.5541 290.555 44.4591 290.555 39.7828C290.555 35.1315 292.406 31.1123 296.183 31.1123C300.315 31.1123 301.482 35.637 301.482 39.5298ZM294.005 39.8335C294.005 43.7006 294.738 45.6723 296.08 45.6723C297.475 45.6723 298.008 43.1444 298.008 39.6814C298.008 36.6992 297.551 33.9941 296.055 33.9941C294.738 33.9941 294.005 36.1681 294.005 39.8335Z" fill="white"/>
<path d="M303.587 31.3149H306.908V45.5457H311.294V48.3517H303.587V31.3149Z" fill="white"/>
<path d="M322.627 39.5298C322.627 45.9509 320.345 48.5541 317.1 48.5541C313.221 48.5541 311.7 44.4591 311.7 39.7828C311.7 35.1315 313.551 31.1123 317.328 31.1123C321.46 31.1123 322.627 35.637 322.627 39.5298ZM315.15 39.8335C315.15 43.7006 315.883 45.6723 317.225 45.6723C318.62 45.6723 319.152 43.1444 319.152 39.6814C319.152 36.6992 318.696 33.9941 317.2 33.9941C315.883 33.9941 315.15 36.1681 315.15 39.8335Z" fill="white"/>
<path d="M334.214 47.8961C333.478 48.1998 331.906 48.503 330.664 48.503C328.712 48.503 327.242 47.9468 326.101 46.8094C324.631 45.3938 323.845 42.8659 323.895 39.934C323.971 33.7412 327.521 31.1626 331.146 31.1626C332.439 31.1626 333.402 31.4151 333.934 31.6681L333.35 34.5248C332.867 34.2718 332.234 34.1453 331.398 34.1453C329.142 34.1453 327.342 35.6873 327.342 40.1362C327.342 44.2313 328.939 45.6975 330.486 45.6975C330.79 45.6975 331.017 45.6719 331.145 45.6212V41.5011H329.624V38.7975H334.213L334.214 47.8961Z" fill="white"/>
<path d="M338.6 48.3517V41.8301L334.846 31.3149H338.396L339.563 35.3839C339.866 36.4712 340.196 37.7351 340.45 38.9991H340.498C340.7 37.7602 340.981 36.5218 341.284 35.3086L342.298 31.3149H345.746L341.921 41.7036V48.3517H338.6Z" fill="white"/>
<path d="M40.8718 8.97998V24.3521H48.8346V8.97998H40.8718ZM46.89 22.6855H43.094V10.5558H46.89V22.6855Z" fill="white"/>
<path d="M49.9456 8.93506V24.3057H57.9083V8.93506H49.9456ZM55.9637 22.6391H52.1677V10.5094H55.9637V22.6391Z" fill="white"/>
<path d="M44.9227 8.10221C47.16 8.10221 48.9736 6.28847 48.9736 4.0511C48.9736 1.81374 47.16 0 44.9227 0C42.6855 0 40.8718 1.81374 40.8718 4.0511C40.8718 6.28847 42.6855 8.10221 44.9227 8.10221Z" fill="white"/>
<path d="M53.6952 8.10221C55.9324 8.10221 57.7461 6.28847 57.7461 4.0511C57.7461 1.81374 55.9324 0 53.6952 0C51.4579 0 49.6443 1.81374 49.6443 4.0511C49.6443 6.28847 51.4579 8.10221 53.6952 8.10221Z" fill="white"/>
<path d="M58.9265 0V7.50017H63.5562V24.3496H70.6853V7.50017L74.5739 7.40747V0H58.9265ZM72.9943 6.13435L69.0883 6.19808V22.1988L65.077 22.1505V6.15173H60.7803V1.3943L72.9943 1.44258V6.13435Z" fill="white"/>
<path d="M41.3349 0H32.6316L27.817 8.10172V0H20.3635V24.352H27.817V16.9909L31.6593 24.3057L40.4553 24.3539L34.7147 12.176L41.3349 0ZM26.3353 22.9167H22.03V1.75929H26.3353V22.9167ZM37.9555 22.6854H32.8165L27.817 12.176L33.8351 1.75929H38.8346L32.6779 12.176L37.9555 22.6854Z" fill="white"/>
<path d="M22.5704 24.352H25.0392C25.0392 24.352 26.6135 44.0127 44.9939 44.0127C63.3742 44.0127 66.7367 28.4876 66.7522 24.3057L69.0516 24.3539C69.0516 24.3539 69.5744 45.2781 44.9939 46.3581C25.5949 45.141 22.5549 28.1019 22.5704 24.352Z" fill="white"/>
<path d="M17.0769 22.9165H19.2064C19.2064 22.9165 19.2991 47.732 45.3163 49.1205C70.3612 48.8888 72.4907 25.0461 72.3995 22.9165H74.807C74.807 22.9165 75.4086 50.5249 45.41 51.6204C17.06 49.6308 17.0769 22.9165 17.0769 22.9165Z" fill="white"/>
<path d="M0 22.9809H12.4964C12.4964 22.9809 11.8278 40.7477 28.0405 50.5633C44.2532 60.3789 60.4698 53.3673 66.1998 48.186C71.9297 43.0047 77.1721 36.4812 78.0275 22.9785H91.56V26.1789L79.7954 27.6423L79.2465 31.1778L89.8534 37.6394L87.6587 43.3089L75.8942 39.8328L73.6995 43.2466L80.8928 53.2442L76.9307 57.9379L67.7871 49.7691L63.5199 52.6345L66.629 64.8264L61.6304 67.5088L56.1442 56.4142L49.6216 57.6333L48.8009 69.5206H42.6094L41.8167 57.755L36.0235 56.4751L30.4765 67.082L24.9291 64.7047L28.5889 53.9761L23.713 50.6232L15.057 58.1822L10.8511 53.6715L17.7392 44.5274L14.8132 40.3209L4.51097 43.6748L2.01169 37.3807L11.3382 32.7628L10.4847 27.6423L0 26.2398V22.9809Z" fill="white"/>
<path d="M100.505 59.4659C101.237 59.3654 101.973 59.3148 102.71 59.3145C104.199 59.3145 105.26 59.6247 105.963 60.2235C106.678 60.8185 107.095 61.663 107.095 62.8426C107.095 64.0339 106.692 65.0081 105.939 65.6795C105.189 66.362 103.949 66.7287 102.387 66.7287C101.649 66.7287 101.027 66.6965 100.505 66.6425V59.4659ZM101.542 65.919C101.89 65.9626 102.24 65.9806 102.59 65.973C104.806 65.973 106.011 64.8474 106.011 62.8773C106.022 61.1567 104.95 60.0634 102.757 60.0634C102.351 60.0574 101.944 60.0897 101.542 60.1602V65.919Z" fill="white"/>
<path d="M108.891 64.0325C108.915 65.3913 109.794 65.951 110.813 65.951C111.542 65.951 111.983 65.8253 112.364 65.6656L112.538 66.3856C112.179 66.5453 111.565 66.7286 110.674 66.7286C108.949 66.7286 107.919 65.6093 107.919 63.9415C107.919 62.2737 108.915 60.9619 110.547 60.9619C112.376 60.9619 112.862 62.5492 112.862 63.5651C112.86 63.7221 112.848 63.8787 112.827 64.0331L108.891 64.0325ZM111.876 63.3124C111.888 62.6729 111.61 61.68 110.464 61.68C109.433 61.68 108.982 62.616 108.898 63.3124H111.876Z" fill="white"/>
<path d="M114.658 64.0325C114.681 65.3913 115.561 65.951 116.579 65.951C117.309 65.951 117.749 65.8253 118.131 65.6656L118.305 66.3856C117.946 66.5453 117.332 66.7286 116.441 66.7286C114.716 66.7286 113.686 65.6093 113.686 63.9415C113.686 62.2737 114.681 60.9619 116.313 60.9619C118.142 60.9619 118.629 62.5492 118.629 63.5651C118.627 63.7221 118.615 63.8787 118.594 64.0331L114.658 64.0325ZM117.643 63.3124C117.654 62.6729 117.377 61.68 116.231 61.68C115.2 61.68 114.749 62.616 114.665 63.3124H117.643Z" fill="white"/>
<path d="M120.318 62.6154C120.322 62.1064 120.308 61.5976 120.276 61.0907H121.097L121.14 61.9986H121.172C121.46 61.4646 121.938 60.9626 122.795 60.9626C123.499 60.9626 124.032 61.4298 124.256 62.092H124.277C124.432 61.7899 124.629 61.5396 124.854 61.3578C125.163 61.1014 125.504 60.9619 125.995 60.9619C126.677 60.9619 127.69 61.4505 127.69 63.407V66.7259H126.773V63.5352C126.773 62.4525 126.412 61.7996 125.653 61.7996C125.12 61.7996 124.704 62.2302 124.544 62.7342C124.496 62.8956 124.47 63.0701 124.469 63.2468V66.7286H123.552V63.3516C123.552 62.4551 123.191 61.803 122.475 61.803C121.889 61.803 121.462 62.315 121.313 62.8276C121.261 62.9831 121.235 63.1549 121.238 63.3283V66.7286H120.32L120.318 62.6154Z" fill="white"/>
<path d="M130.311 64.0325C130.334 65.3913 131.214 65.951 132.232 65.951C132.961 65.951 133.401 65.8253 133.783 65.6656L133.957 66.3856C133.598 66.5453 132.984 66.7286 132.093 66.7286C130.368 66.7286 129.338 65.6093 129.338 63.9415C129.338 62.2737 130.334 60.9619 131.966 60.9619C133.795 60.9619 134.281 62.5492 134.281 63.5651C134.279 63.7221 134.268 63.8787 134.246 64.0331L130.311 64.0325ZM133.295 63.3124C133.307 62.6729 133.029 61.68 131.883 61.68C130.853 61.68 130.401 62.616 130.32 63.3124H133.295Z" fill="white"/>
<path d="M140.002 59.3174V65.3299C139.999 65.7592 140.014 66.1884 140.048 66.6156H139.193L139.148 65.752H139.126C138.834 66.3067 138.196 66.7287 137.344 66.7287C136.079 66.7287 135.105 65.7107 135.105 64.1988C135.094 62.5429 136.176 61.5255 137.451 61.5255C138.251 61.5255 138.792 61.8851 139.03 62.2859H139.051V59.3145L140.002 59.3174ZM139.05 63.6671C139.052 63.5382 139.038 63.4098 139.007 63.2869C138.867 62.7109 138.348 62.2376 137.634 62.2376C136.65 62.2376 136.066 63.0629 136.066 64.161C136.066 65.1684 136.585 66.0013 137.612 66.0013C138.252 66.0013 138.834 65.6005 139.007 64.9214C139.039 64.7954 139.053 64.6635 139.05 64.5312V63.6671Z" fill="white"/>
<path d="M145.19 60.1382V61.5848H146.638V62.2821H145.19V64.9981C145.19 65.6227 145.385 65.9764 145.949 65.9764C146.145 65.9799 146.342 65.9599 146.535 65.9168L146.581 66.6034C146.386 66.6762 146.075 66.7287 145.685 66.7287C145.214 66.7287 144.834 66.5926 144.593 66.3433C144.306 66.0725 144.204 65.6275 144.204 65.0309V62.2821H143.343V61.5854H144.204V60.378L145.19 60.1382Z" fill="white"/>
<path d="M152.405 63.7998C152.405 65.8394 151.109 66.7286 149.887 66.7286C148.517 66.7286 147.462 65.6343 147.462 63.8906C147.462 62.0444 148.57 60.9619 149.97 60.9619C151.422 60.9619 152.405 62.1124 152.405 63.7998ZM148.391 63.856C148.391 65.0646 149.029 65.976 149.928 65.976C150.806 65.976 151.464 65.0764 151.464 63.8338C151.464 62.8989 151.036 61.7139 149.949 61.7139C148.861 61.7139 148.391 62.8081 148.391 63.856Z" fill="white"/>
<path d="M156.524 66.6143C156.545 66.2747 156.566 65.7706 156.566 65.3284V59.3145H157.498V62.4394H157.519C157.851 61.884 158.45 61.5243 159.283 61.5243C160.568 61.5243 161.477 62.5526 161.466 64.0649C161.466 65.8443 160.3 66.7287 159.144 66.7287C158.395 66.7287 157.795 66.451 157.41 65.7924H157.378L157.333 66.6179L156.524 66.6143ZM157.498 64.6191C157.501 64.7307 157.515 64.8413 157.54 64.9481C157.721 65.5755 158.268 66.0094 158.953 66.0094C159.938 66.0094 160.526 65.2382 160.526 64.0961C160.526 63.0985 159.991 62.2448 158.985 62.2448C158.343 62.2448 157.744 62.6664 157.551 63.3556C157.52 63.4752 157.502 63.5998 157.498 63.7259V64.6191Z" fill="white"/>
<path d="M163.263 64.0325C163.286 65.3913 164.166 65.951 165.185 65.951C165.914 65.951 166.354 65.8253 166.736 65.6656L166.909 66.3856C166.55 66.5453 165.937 66.7286 165.045 66.7286C163.321 66.7286 162.291 65.6093 162.291 63.9415C162.291 62.2737 163.286 60.9619 164.919 60.9619C166.747 60.9619 167.233 62.5492 167.233 63.5651C167.232 63.7221 167.22 63.8787 167.199 64.0331L163.263 64.0325ZM166.247 63.3124C166.259 62.6729 165.981 61.68 164.835 61.68C163.805 61.68 163.354 62.616 163.272 63.3124H166.247Z" fill="white"/>
<path d="M172.373 59.3145V63.6327C172.373 65.2676 173.151 65.96 174.195 65.96C175.355 65.96 176.098 65.2459 176.098 63.6327V59.3145H177.119V63.5682C177.119 65.8086 175.855 66.7287 174.16 66.7287C172.559 66.7287 171.352 65.8738 171.352 63.611V59.3145H172.373Z" fill="white"/>
<path d="M178.806 62.6121C178.81 62.1029 178.796 61.5938 178.767 61.0868H179.539L179.588 62.0218H179.608C179.846 61.4875 180.4 60.9619 181.192 60.9619C181.856 60.9619 182.886 61.4294 182.886 63.3614V66.7286H182.014V63.4783C182.014 62.5694 181.727 61.8087 180.905 61.8087C180.331 61.8087 179.886 62.2869 179.737 62.8572C179.695 63.0076 179.675 63.1705 179.677 63.3347V66.7252H178.806V62.6121Z" fill="white"/>
<path d="M186.18 59.9189C186.196 60.2482 185.861 60.512 185.334 60.512C184.865 60.512 184.533 60.2482 184.533 59.9189C184.533 59.5783 184.881 59.3145 185.364 59.3145C185.863 59.3157 186.18 59.5783 186.18 59.9189ZM184.699 66.7287V61.4129H186.03V66.7287H184.699Z" fill="white"/>
<path d="M188.02 60.9619L189.046 64.2028C189.207 64.6808 189.348 65.1744 189.466 65.6802H189.498C189.629 65.1769 189.777 64.6838 189.941 64.2028L190.955 60.9619H191.947L189.896 66.7286H188.99L187.005 60.9619H188.02Z" fill="white"/>
<path d="M193.744 64.0325C193.767 65.3913 194.646 65.951 195.665 65.951C196.395 65.951 196.835 65.8253 197.217 65.6656L197.39 66.3856C197.031 66.5453 196.418 66.7286 195.526 66.7286C193.801 66.7286 192.771 65.6093 192.771 63.9415C192.771 62.2737 193.767 60.9619 195.399 60.9619C197.228 60.9619 197.714 62.5492 197.714 63.5651C197.713 63.7221 197.701 63.8787 197.68 64.0331L193.744 64.0325ZM196.728 63.3124C196.74 62.6729 196.462 61.68 195.316 61.68C194.286 61.68 193.834 62.616 193.754 63.3124H196.728Z" fill="white"/>
<path d="M198.581 62.8495C198.581 62.1856 198.57 61.6139 198.538 61.0903H199.322L199.352 62.197H199.393C199.616 61.4396 200.155 60.962 200.755 60.962C200.84 60.9606 200.926 60.9722 201.01 60.9968V61.9639C200.909 61.9386 200.807 61.9268 200.704 61.9285C200.074 61.9285 199.627 62.4768 199.505 63.2455C199.48 63.4018 199.466 63.562 199.464 63.7231V66.7286H198.579L198.581 62.8495Z" fill="white"/>
<path d="M202.119 65.5864C202.593 65.841 203.106 65.9769 203.626 65.9857C204.457 65.9857 204.847 65.6204 204.847 65.1642C204.847 64.6844 204.522 64.4213 203.678 64.1477C202.548 63.7935 202.015 63.2457 202.015 62.5826C202.015 61.6924 202.833 60.9619 204.184 60.9619C204.822 60.9619 205.381 61.1216 205.73 61.3042L205.445 62.0347C205.04 61.8203 204.602 61.7113 204.159 61.7153C203.483 61.7153 203.106 62.0583 203.106 62.4687C203.106 62.9269 203.483 63.1311 204.301 63.4054C205.393 63.7706 205.952 64.2504 205.952 65.0725C205.952 66.0433 205.094 66.7286 203.6 66.7286C202.911 66.7286 202.275 66.5793 201.833 66.3516L202.119 65.5864Z" fill="white"/>
<path d="M207.6 59.9189C207.607 60.2482 207.44 60.512 207.176 60.512C206.942 60.512 206.776 60.2482 206.776 59.9189C206.776 59.5783 206.95 59.3145 207.191 59.3145C207.441 59.3157 207.6 59.5783 207.6 59.9189ZM206.859 66.7287V61.4129H207.524V66.7287H206.859Z" fill="white"/>
<path d="M211.096 60.1382V61.5848H212.543V62.2821H211.096V64.9981C211.096 65.6227 211.29 65.9764 211.854 65.9764C212.05 65.9799 212.246 65.96 212.439 65.9168L212.486 66.6034C212.291 66.6762 211.98 66.7287 211.59 66.7287C211.119 66.7287 210.74 66.5926 210.499 66.3433C210.212 66.0725 210.11 65.6275 210.11 65.0309V62.2821H209.248V61.5854H210.109V60.378L211.096 60.1382Z" fill="white"/>
<path d="M213.587 60.9619L214.738 63.9697C214.858 64.3061 214.988 64.7058 215.075 65.0109H215.096C215.194 64.7058 215.303 64.3164 215.433 63.9486L216.476 60.9619H217.486L216.051 64.5901C215.367 66.3384 214.9 67.2301 214.248 67.7769C213.894 68.0829 213.494 68.2871 213.075 68.3762L212.837 67.5985C213.132 67.5059 213.414 67.3533 213.673 67.1463C214 66.8923 214.276 66.5384 214.477 66.1148C214.52 66.0201 214.552 65.9466 214.552 65.8947C214.543 65.8094 214.521 65.7273 214.487 65.6536L212.543 60.9631L213.587 60.9619Z" fill="white"/>
<path d="M222.48 59.3145V63.6327C222.48 65.2676 223.146 65.96 224.041 65.96C225.036 65.96 225.673 65.2459 225.673 63.6327V59.3145H226.548V63.5682C226.548 65.8086 225.464 66.7287 224.011 66.7287C222.639 66.7287 221.605 65.8738 221.605 63.611V59.3145H222.48Z" fill="white"/>
<path d="M227.371 66.7287L230.683 59.3145H231.49L228.167 66.7287H227.371Z" fill="white"/>
<path d="M232.532 65.4905C233.029 65.7994 233.565 65.9592 234.107 65.9601C235.006 65.9601 235.531 65.4593 235.531 64.7335C235.531 64.0608 235.167 63.6774 234.251 63.3038C233.141 62.888 232.453 62.2802 232.453 61.2669C232.453 60.1467 233.332 59.3145 234.655 59.3145C235.351 59.3145 235.856 59.4851 236.159 59.6667L235.916 60.4237C235.505 60.1937 235.066 60.0779 234.624 60.0825C233.695 60.0825 233.344 60.6689 233.344 61.1599C233.344 61.8326 233.757 62.1628 234.696 62.5468C235.849 63.0164 236.433 63.6028 236.433 64.6589C236.433 65.7681 235.656 66.7287 234.05 66.7287C233.394 66.7287 232.677 66.5257 232.314 66.2695L232.532 65.4905Z" fill="white"/>
<path d="M240.798 65.4956C241.052 65.6721 241.64 65.948 242.259 65.948C243.405 65.948 243.759 65.1533 243.75 64.556C243.74 63.5512 242.908 63.1209 242.046 63.1209H241.549V62.3939H242.046C242.695 62.3939 243.516 62.0301 243.516 61.1797C243.516 60.6058 243.182 60.0978 242.359 60.0978C241.901 60.1069 241.45 60.2691 241.04 60.5723L240.807 59.8662C241.15 59.5903 241.822 59.3145 242.532 59.3145C243.83 59.3145 244.418 60.1534 244.418 61.0228C244.418 61.7625 244.012 62.392 243.2 62.7116V62.7343C244.012 62.9109 244.671 63.5727 244.671 64.5775C244.671 65.7252 243.849 66.7287 242.267 66.7287C241.527 66.7287 240.878 66.4757 240.552 66.2428L240.798 65.4956Z" fill="white"/>
<path d="M253.733 63.7998C253.733 65.8394 252.437 66.7286 251.215 66.7286C249.846 66.7286 248.79 65.6343 248.79 63.8906C248.79 62.0444 249.899 60.9619 251.299 60.9619C252.752 60.9619 253.733 62.1124 253.733 63.7998ZM249.719 63.856C249.719 65.0646 250.357 65.976 251.256 65.976C252.134 65.976 252.792 65.0764 252.792 63.8338C252.792 62.8989 252.364 61.7139 251.277 61.7139C250.19 61.7139 249.719 62.8081 249.719 63.856Z" fill="white"/>
<path d="M255.265 66.7277V61.9628H254.557V61.1976H255.265V60.9356C255.265 60.1587 255.42 59.4506 255.847 59.0045C256.189 58.639 256.647 58.4903 257.073 58.4903C257.336 58.4885 257.599 58.5423 257.852 58.6501L257.728 59.4277C257.54 59.3378 257.343 59.2951 257.146 59.3012C256.366 59.3012 256.169 60.0559 256.169 60.9016V61.199H257.385V61.9628H256.169V66.7283L255.265 66.7277Z" fill="white"/>
<path d="M262.171 60.1382V61.5848H263.619V62.2821H262.171V64.9981C262.171 65.6227 262.365 65.9764 262.93 65.9764C263.126 65.9799 263.322 65.96 263.516 65.9168L263.562 66.6034C263.367 66.6762 263.056 66.7287 262.666 66.7287C262.195 66.7287 261.815 66.5926 261.574 66.3433C261.287 66.0725 261.185 65.6275 261.185 65.0309V62.2821H260.324V61.5854H261.185V60.378L262.171 60.1382Z" fill="white"/>
<path d="M264.443 59.3145H265.499V62.4685H265.522C265.722 62.1779 265.982 61.9545 266.278 61.8208C266.619 61.6496 266.986 61.5608 267.357 61.5598C268.138 61.5598 269.386 61.9788 269.386 63.7214V66.7287H268.331V63.8255C268.331 63.0114 267.982 62.3218 266.986 62.3218C266.303 62.3218 265.763 62.7408 265.571 63.2407C265.511 63.3664 265.499 63.5017 265.499 63.6795V66.7287H264.443V59.3145Z" fill="white"/>
<path d="M271.182 64.0325C271.205 65.3913 272.084 65.951 273.103 65.951C273.833 65.951 274.273 65.8253 274.655 65.6656L274.828 66.3856C274.469 66.5453 273.856 66.7286 272.964 66.7286C271.239 66.7286 270.209 65.6093 270.209 63.9415C270.209 62.2737 271.205 60.9619 272.837 60.9619C274.666 60.9619 275.152 62.5492 275.152 63.5651C275.151 63.7221 275.139 63.8787 275.118 64.0331L271.182 64.0325ZM274.166 63.3124C274.178 62.6729 273.9 61.68 272.754 61.68C271.726 61.68 271.272 62.616 271.192 63.3124H274.166Z" fill="white"/>
<path d="M280.292 59.3145V63.6327C280.292 65.2676 281.07 65.96 282.114 65.96C283.274 65.96 284.017 65.2459 284.017 63.6327V59.3145H285.038V63.5682C285.038 65.8086 283.773 66.7287 282.079 66.7287C280.478 66.7287 279.271 65.8738 279.271 63.611V59.3145H280.292Z" fill="white"/>
<path d="M292.452 66.3297C291.647 66.5899 290.818 66.724 289.985 66.7287C288.769 66.7287 287.769 66.4483 286.982 65.7694C286.631 65.4631 286.345 65.0571 286.151 64.5861C285.956 64.1151 285.857 63.5931 285.862 63.0648C285.874 60.899 287.518 59.3145 290.211 59.3145C291.14 59.3145 291.867 59.4998 292.212 59.648L291.963 60.4134C291.533 60.2411 290.997 60.1009 290.187 60.1009C288.233 60.1009 286.958 61.1998 286.958 63.0216C286.958 64.8644 288.186 65.9528 290.056 65.9528C290.735 65.9528 291.2 65.8664 291.438 65.7589V63.5924H289.806V62.8394H292.451L292.452 66.3297Z" fill="white"/>
<path d="M299.031 66.3869C298.671 66.5575 297.95 66.7287 297.026 66.7287C294.884 66.7287 293.276 65.4483 293.276 63.091C293.276 60.8401 294.886 59.3145 297.241 59.3145C298.186 59.3145 298.784 59.5065 299.043 59.6349L298.805 60.3919C298.433 60.2213 297.903 60.0935 297.273 60.0935C295.493 60.0935 294.311 61.1709 294.311 63.0586C294.311 64.8191 295.38 65.9497 297.228 65.9497C297.825 65.9497 298.433 65.8323 298.827 65.6513L299.031 66.3869Z" fill="white"/>
<path d="M304.207 64.3956L303.389 66.7287H302.338L305.015 59.3145H306.24L308.928 66.7287H307.842L307.002 64.3956H304.207ZM306.79 63.6478L306.018 61.5133C305.864 61.0713 305.727 60.6197 305.609 60.16H305.586C305.469 60.6014 305.339 61.0511 305.191 61.5025L304.419 63.6465L306.79 63.6478Z" fill="white"/>
<path d="M313.849 66.4079C313.601 66.5449 313.051 66.7286 312.35 66.7286C310.776 66.7286 309.752 65.5953 309.752 63.9026C309.752 62.1975 310.852 60.9619 312.556 60.9619C313.117 60.9619 313.612 61.1108 313.871 61.2479L313.655 62.0257C313.429 61.8886 313.073 61.7633 312.556 61.7633C311.359 61.7633 310.712 62.7018 310.712 63.8567C310.712 65.1382 311.486 65.9278 312.524 65.9278C312.92 65.9313 313.313 65.8386 313.688 65.6537L313.849 66.4079Z" fill="white"/>
<path d="M316.542 60.1382V61.5848H317.99V62.2821H316.542V64.9981C316.542 65.6227 316.737 65.9764 317.301 65.9764C317.498 65.9799 317.694 65.96 317.887 65.9168L317.933 66.6034C317.739 66.6762 317.427 66.7287 317.037 66.7287C316.566 66.7287 316.186 66.5926 315.945 66.3433C315.658 66.0725 315.557 65.6275 315.557 65.0309V62.2821H314.695V61.5854H315.557V60.378L316.542 60.1382Z" fill="white"/>
<path d="M317.99 67.5525C318.22 66.9669 318.502 65.9022 318.616 65.1801L319.638 65.0811C319.398 65.925 318.939 67.0267 318.648 67.4933L317.99 67.5525Z" fill="white"/>
<path d="M325.259 60.2501H325.237L323.95 60.9457L323.757 60.1814L325.374 59.3145H326.229V66.7287H325.26L325.259 60.2501Z" fill="white"/>
<path d="M329.426 65.9304C329.676 65.9526 329.967 65.9304 330.363 65.8975C331.035 65.8196 331.669 65.5885 332.158 65.2011C332.449 64.9844 332.7 64.7037 332.895 64.3756C333.089 64.0475 333.224 63.6785 333.292 63.2904H333.252C332.778 63.776 332.092 64.0634 331.234 64.0634C329.689 64.0634 328.7 63.0916 328.7 61.8652C328.7 60.5072 329.874 59.3145 331.63 59.3145C333.386 59.3145 334.467 60.5072 334.467 62.3401C334.467 63.9228 333.833 65.0244 332.989 65.7088C332.329 66.2501 331.418 66.5812 330.494 66.6699C330.14 66.7181 329.783 66.7368 329.426 66.7256V65.9304ZM329.848 61.8C329.848 62.6946 330.494 63.3239 331.498 63.3239C332.279 63.3239 332.883 63.0036 333.187 62.5731C333.259 62.4742 333.297 62.3483 333.292 62.2198C333.292 60.9941 332.751 60.0552 331.537 60.0552C330.546 60.0552 329.848 60.7839 329.848 61.8Z" fill="white"/>
<path d="M339.277 60.1463H336.748L336.493 62.0188C336.672 61.9885 336.853 61.9735 337.033 61.9738C337.544 61.9738 338.053 62.0972 338.461 62.3659C338.981 62.6918 339.409 63.3192 339.409 64.2391C339.409 65.6636 338.379 66.7287 336.942 66.7287C336.218 66.7287 335.606 66.5044 335.29 66.2788L335.514 65.5273C335.79 65.7066 336.33 65.931 336.931 65.931C337.778 65.931 338.502 65.3255 338.502 64.3497C338.492 63.4079 337.921 62.7349 336.595 62.7349C336.289 62.7383 335.982 62.7647 335.677 62.814L336.106 59.3145H339.277V60.1463Z" fill="white"/>
<path d="M345.291 60.1068C345.047 60.0962 344.802 60.1111 344.56 60.1511C343.03 60.4045 342.221 61.5211 342.054 62.703H342.088C342.432 62.2501 343.03 61.8745 343.828 61.8745C345.102 61.8745 346 62.7917 346 64.1952C346 65.5101 345.102 66.7287 343.606 66.7287C342.066 66.7287 341.057 65.5348 341.057 63.6676C341.057 62.2533 341.567 61.1379 342.275 60.4305C342.874 59.8452 343.672 59.4804 344.581 59.3702C344.816 59.3333 345.053 59.3147 345.29 59.3145L345.291 60.1068ZM345.014 64.2503C345.014 63.223 344.427 62.6036 343.529 62.6036C342.942 62.6036 342.399 62.9684 342.132 63.4903C342.059 63.612 342.02 63.7647 342.021 63.9216C342.044 65.1035 342.587 65.9769 343.606 65.9769C344.449 65.9744 345.014 65.2783 345.014 64.2503Z" fill="white"/>
</svg>
