<svg xmlns="http://www.w3.org/2000/svg" width="170" height="62" fill="none" viewBox="0 0 170 62"><g clip-path="url(#clip0)"><path fill="#000" d="M86.576 41.7958V44.8871H74.239V17.0657H77.8319V41.7958H86.576Z"/><path fill="#000" d="M94.0863 44.8871H90.6514V23.8115H94.0863V44.8871ZM92.3677 20.0849C91.7791 20.0939 91.2088 19.8788 90.7704 19.4824C90.5559 19.2601 90.3885 18.9959 90.2788 18.7062C90.169 18.4163 90.119 18.107 90.1319 17.797C90.1165 17.4927 90.1654 17.1885 90.2756 16.9047C90.3857 16.621 90.5543 16.3639 90.7704 16.151C91.1969 15.7299 91.771 15.496 92.3677 15.5004C92.6571 15.4948 92.9446 15.5487 93.2127 15.6591C93.4806 15.7695 93.7234 15.9339 93.9261 16.1423C94.1532 16.3486 94.332 16.6034 94.4496 16.8881C94.5672 17.1728 94.6205 17.4803 94.6057 17.7883C94.6189 18.0902 94.5703 18.3914 94.4631 18.6734C94.3558 18.9555 94.192 19.2123 93.9821 19.4277C93.7721 19.6432 93.5205 19.8127 93.2427 19.9257C92.9649 20.0388 92.6671 20.093 92.3677 20.0849Z"/><path fill="#000" d="M103.518 23.8115H108.789V26.7805H103.518V38.3836C103.518 39.8289 103.771 40.8476 104.276 41.44C104.551 41.723 104.88 41.9445 105.245 42.09C105.61 42.2356 106.001 42.302 106.393 42.2848C106.827 42.2875 107.258 42.2196 107.67 42.0839C108.05 41.9707 108.414 41.8085 108.752 41.6015L109.43 44.3718C108.379 45.0026 107.179 45.3352 105.956 45.3346C103.986 45.3346 102.509 44.7859 101.523 43.6886C100.564 42.565 100.085 40.7188 100.086 38.15V18.1507L103.521 17.5481L103.518 23.8115Z"/><path fill="#000" d="M113.153 24.4116C114.146 24.1035 115.158 23.8621 116.183 23.689C117.17 23.4827 118.175 23.3724 119.183 23.3593C120.035 23.3484 120.884 23.4706 121.7 23.7217C122.463 23.9567 123.161 24.3695 123.737 24.9269C124.435 24.4697 125.184 24.0954 125.968 23.8112C126.814 23.5102 127.708 23.3625 128.605 23.3746C129.489 23.3599 130.37 23.5078 131.202 23.8112C131.998 24.0765 132.704 24.563 133.239 25.215C133.865 26.0202 134.315 26.9503 134.558 27.9438C134.879 29.0689 135.039 30.4741 135.037 32.1594V44.8848H131.595V32.4411C131.595 30.354 131.355 28.8259 130.875 27.8565C130.395 26.8872 129.493 26.407 128.169 26.4157C127.638 26.4202 127.111 26.5154 126.611 26.6973C126.101 26.8863 125.618 27.1426 125.174 27.4593C125.401 28.1374 125.561 28.8364 125.652 29.5462C125.765 30.4147 125.819 31.2901 125.813 32.1659V44.8912H122.377V32.4476C122.377 30.3606 122.138 28.8324 121.659 27.8631C121.18 26.8938 120.276 26.4114 118.944 26.4157C118.144 26.4331 117.35 26.5684 116.587 26.8174V44.8825H113.153V24.4116Z"/><path fill="#000" d="M154.016 44.2844C153.597 44.4413 153.171 44.5754 152.738 44.6861C152.259 44.7937 151.741 44.8876 151.181 44.9677C150.639 45.0764 150.093 45.1566 149.542 45.2079C149.054 45.2848 148.561 45.3249 148.066 45.3279C147.054 45.3392 146.045 45.204 145.071 44.9263C144.195 44.703 143.394 44.2451 142.755 43.6011C142.061 42.8643 141.554 41.9693 141.277 40.9923C140.931 39.8687 140.757 38.4635 140.757 36.7767V23.8113H144.193V36.6566C144.193 38.7174 144.498 40.1766 145.11 41.0337C145.75 41.8634 146.709 42.2781 147.986 42.2781C148.42 42.2781 148.837 42.2629 149.264 42.2366C149.709 42.18 150.15 42.0858 150.582 41.955V23.8113H154.016V44.2844Z"/><path fill="#000" d="M163.14 42.4376C164.15 42.4376 164.909 42.1567 165.417 41.595C165.967 40.9652 166.257 40.1461 166.225 39.3071C166.243 38.7924 166.133 38.2815 165.906 37.8203C165.696 37.3973 165.413 37.0163 165.068 36.6961C164.705 36.3648 164.303 36.0815 163.868 35.8534C163.417 35.5871 162.965 35.3061 162.511 35.0107C162.049 34.7375 161.609 34.4287 161.194 34.0872C160.767 33.7131 160.379 33.2962 160.035 32.8429C159.706 32.3424 159.438 31.8036 159.237 31.2383C159.04 30.5466 158.946 29.8293 158.958 29.1098C158.958 27.3633 159.49 25.9581 160.555 24.8942C161.646 23.8245 163.11 23.2889 164.947 23.2874C165.69 23.284 166.431 23.3929 167.144 23.6106C167.738 23.7593 168.314 23.9746 168.862 24.2524L168.102 27.0227C167.647 26.7629 167.162 26.5591 166.659 26.4158C166.151 26.2786 165.626 26.2111 165.101 26.215C164.727 26.1964 164.354 26.2543 164.005 26.3853C163.654 26.5163 163.334 26.7176 163.064 26.9769C162.558 27.4587 162.306 28.1682 162.306 29.1055C162.295 29.5891 162.391 30.0691 162.585 30.5113C162.775 30.8911 163.018 31.2423 163.304 31.5548C163.633 31.8568 163.98 32.1382 164.343 32.3976C164.742 32.6668 165.154 32.9208 165.581 33.1595C166.089 33.4557 166.582 33.7777 167.057 34.1244C167.559 34.4667 168.003 34.8867 168.375 35.3687C168.793 35.853 169.117 36.4111 169.333 37.0148C169.59 37.7361 169.711 38.4995 169.689 39.2656C169.689 41.1124 169.143 42.5984 168.052 43.7234C166.988 44.8471 165.417 45.4088 163.338 45.4088C162.363 45.4244 161.391 45.2769 160.465 44.9722C159.804 44.759 159.162 44.4903 158.547 44.1688L159.265 41.3177C159.785 41.5866 160.318 41.8279 160.862 42.0403C161.59 42.3132 162.362 42.448 163.14 42.4376Z"/><path fill="#858CDD" d="M0 0H49.3483V57.35C49.346 58.5852 48.8574 59.7689 47.9901 60.6408C47.1227 61.5129 45.9475 62.0017 44.723 62H4.62749C4.02093 62.0012 3.42009 61.8818 2.85927 61.6487C2.29846 61.4157 1.78864 61.0735 1.35894 60.6416C0.92924 60.2098 0.588066 59.6969 0.354898 59.1321C0.121731 58.5673 0.00113587 57.9618 0 57.35V0Z"/><path fill="#5B44BA" d="M7.79175 3.05688H15.3671V24.8878H7.79175V3.05688Z"/><path fill="#F0F0F0" d="M7.79175 24.8875H15.3671V55.8875H7.79175V24.8875Z"/><path fill="#F0F0F0" d="M20.1292 55.8877V48.0286H43.0719V55.8877H20.1292Z"/></g><defs><clipPath id="clip0"><rect width="170" height="62" fill="#fff"/></clipPath></defs></svg>