<svg width="170" height="74" viewBox="0 0 170 74" fill="none" xmlns="http://www.w3.org/2000/svg">
<g clip-path="url(#clip0)">
<path d="M77.6299 31.6077C77.6299 31.6077 77.1191 16.8485 72.8802 13.9069V16.95C68.9467 11.2908 63.5513 6.788 57.2606 3.91432C50.9699 1.04065 44.0162 -0.0978127 37.1296 0.61851H35.3421C26.2591 2.04896 17.9276 6.48069 11.6955 13.1968C10.295 11.397 9.46007 9.22702 9.29516 6.95836C7.7943 8.92981 6.70498 11.179 6.09108 13.5741C5.47716 15.9692 5.35104 18.462 5.7201 20.906C4.16864 22.0759 2.8648 23.5382 1.88325 25.2092C0.901714 26.8802 0.261745 28.7271 0 30.6441C0 30.6441 3.67721 28.5645 3.3197 29.5789C-6.89476 56.1048 31.7669 93.3325 68.2325 62.1404C71.3991 59.4016 79.8771 49.7651 79.826 28.7674L77.6299 31.6077ZM65.1683 22.2247C66.4441 27.4493 66.8581 32.8449 66.3939 38.2012C66.3939 38.2012 64.3001 34.1944 63.0743 33.8394C63.0743 33.8394 64.8108 48.142 59.7035 52.5039C60.3028 50.6225 60.3028 48.6033 59.7035 46.7219C59.7035 46.7219 47.0887 67.0095 29.7751 51.1852C29.7751 51.1852 34.8823 54.0761 44.2797 45.8597C44.2797 45.8597 46.7311 44.9974 47.9569 46.1133C47.9569 46.1133 46.9355 37.9475 36.8742 41.8529C36.8742 41.8529 31.7669 47.3305 24.7701 37.136C24.7701 37.136 22.8293 32.0642 32.482 35.3102C32.482 35.3102 32.482 30.2383 31.0009 28.666C33.4439 27.0716 35.6016 25.0831 37.3849 22.7826C37.4803 22.6415 37.5342 22.4766 37.5403 22.3068C37.5465 22.1368 37.5047 21.9685 37.4197 21.821C37.3348 21.6733 37.21 21.5522 37.0595 21.4711C36.909 21.3902 36.7387 21.3525 36.5677 21.3625C34.8159 21.4966 33.0586 21.1796 31.4662 20.4422C29.8737 19.7047 28.4997 18.5718 27.4769 17.1528C27.6152 15.2178 28.3094 13.3627 29.4772 11.8075C30.6449 10.2523 32.2371 9.06229 34.0653 8.37849C29.948 8.73377 26.0922 10.5315 23.1868 13.4503L16.2409 12.6388C16.2409 12.6388 36.1081 -7.64866 57.967 8.88567C57.967 8.88567 53.5749 8.88567 52.8598 9.4943C52.1448 10.1029 67.0579 12.2839 68.9987 24.0505C68.5296 23.4911 67.9446 23.0383 67.2838 22.7233C66.6228 22.4082 65.9013 22.2382 65.1683 22.2247Z" fill="#E04006"/>
<path d="M107.541 23.1455C110.274 23.1455 111.64 24.7866 111.64 28.0688V34.5664C111.64 34.9496 111.523 35.2496 111.29 35.4662C111.057 35.6661 110.749 35.766 110.365 35.766C109.999 35.766 109.699 35.6661 109.466 35.4662C109.232 35.2496 109.116 34.9496 109.116 34.5664V28.0937C109.116 27.0774 108.933 26.3444 108.566 25.8946C108.2 25.428 107.625 25.1947 106.842 25.1947C105.925 25.1947 105.201 25.5113 104.667 26.1444C104.134 26.7608 103.868 27.6106 103.868 28.6936V34.5664C103.868 34.9496 103.751 35.2496 103.518 35.4662C103.285 35.6661 102.976 35.766 102.593 35.766C102.227 35.766 101.927 35.6661 101.694 35.4662C101.46 35.2496 101.344 34.9496 101.344 34.5664V28.0937C101.344 27.0774 101.16 26.3444 100.794 25.8946C100.427 25.428 99.8524 25.1947 99.0694 25.1947C98.1531 25.1947 97.42 25.5113 96.8702 26.1444C96.3371 26.7608 96.0705 27.6106 96.0705 28.6936V34.5664C96.0705 34.9496 95.9539 35.2496 95.7206 35.4662C95.4874 35.6661 95.1875 35.766 94.821 35.766C94.4544 35.766 94.1462 35.6661 93.8962 35.4662C93.6631 35.2496 93.5464 34.9496 93.5464 34.5664V24.395C93.5464 24.0285 93.6714 23.7369 93.9213 23.5203C94.1712 23.3038 94.471 23.1955 94.821 23.1955C95.1709 23.1955 95.4541 23.3038 95.6707 23.5203C95.9039 23.7202 96.0205 24.0035 96.0205 24.37V25.2947C96.3871 24.595 96.8952 24.0619 97.545 23.6953C98.1947 23.3287 98.9445 23.1455 99.7942 23.1455C100.727 23.1455 101.494 23.337 102.093 23.7202C102.71 24.1034 103.168 24.695 103.468 25.4946C103.834 24.7782 104.376 24.2118 105.092 23.7952C105.809 23.362 106.625 23.1455 107.541 23.1455Z" fill="white"/>
<path d="M120.395 35.816C119.195 35.816 118.137 35.5578 117.221 35.0413C116.321 34.5248 115.621 33.7917 115.121 32.8421C114.638 31.8758 114.396 30.7594 114.396 29.4932C114.396 28.2104 114.638 27.094 115.121 26.1444C115.621 25.1781 116.321 24.4366 117.221 23.9202C118.137 23.4037 119.195 23.1455 120.395 23.1455C121.594 23.1455 122.644 23.4037 123.544 23.9202C124.46 24.4366 125.159 25.1781 125.643 26.1444C126.143 27.094 126.392 28.2104 126.392 29.4932C126.392 30.7594 126.143 31.8758 125.643 32.8421C125.159 33.7917 124.46 34.5248 123.544 35.0413C122.644 35.5578 121.594 35.816 120.395 35.816ZM120.395 33.8168C121.51 33.8168 122.361 33.4502 122.944 32.7171C123.544 31.9841 123.843 30.9095 123.843 29.4932C123.843 28.0937 123.544 27.0274 122.944 26.2944C122.344 25.5446 121.494 25.1697 120.395 25.1697C119.295 25.1697 118.446 25.5446 117.846 26.2944C117.246 27.0274 116.946 28.0937 116.946 29.4932C116.946 30.9095 117.238 31.9841 117.82 32.7171C118.42 33.4502 119.278 33.8168 120.395 33.8168Z" fill="white"/>
<path d="M137.931 33.6917C138.298 33.6917 138.572 33.7833 138.756 33.9666C138.956 34.1332 139.056 34.3665 139.056 34.6663C139.056 34.9663 138.956 35.2079 138.756 35.3911C138.572 35.5578 138.298 35.6411 137.931 35.6411H129.385C129.018 35.6411 128.727 35.5411 128.51 35.3411C128.293 35.1246 128.185 34.8579 128.185 34.5414C128.185 34.2248 128.31 33.9167 128.56 33.6168L135.508 25.3946H129.235C128.885 25.3946 128.61 25.3113 128.411 25.1447C128.227 24.9614 128.135 24.7198 128.135 24.4199C128.135 24.1201 128.227 23.8868 128.411 23.7201C128.61 23.537 128.885 23.4453 129.235 23.4453H137.532C137.881 23.4453 138.165 23.5536 138.381 23.7701C138.615 23.9868 138.732 24.245 138.732 24.545C138.732 24.8614 138.607 25.1696 138.356 25.4696L131.409 33.6917H137.931Z" fill="white"/>
<path d="M142.827 35.7658C142.46 35.7658 142.152 35.6659 141.901 35.466C141.668 35.2661 141.552 34.9662 141.552 34.5662V24.4198C141.552 24.02 141.668 23.72 141.901 23.5201C142.152 23.3036 142.46 23.1953 142.827 23.1953C143.192 23.1953 143.493 23.3036 143.726 23.5201C143.96 23.72 144.076 24.02 144.076 24.4198V34.5662C144.076 34.9662 143.96 35.2661 143.726 35.466C143.493 35.6659 143.192 35.7658 142.827 35.7658ZM142.827 20.7461C142.343 20.7461 141.961 20.6128 141.677 20.3462C141.394 20.0797 141.252 19.7298 141.252 19.2966C141.252 18.8634 141.394 18.5219 141.677 18.2719C141.961 18.0054 142.343 17.8721 142.827 17.8721C143.293 17.8721 143.668 18.0054 143.951 18.2719C144.251 18.5219 144.4 18.8634 144.4 19.2966C144.4 19.7298 144.259 20.0797 143.976 20.3462C143.692 20.6128 143.31 20.7461 142.827 20.7461Z" fill="white"/>
<path d="M148.879 35.7662C148.512 35.7662 148.204 35.6662 147.954 35.4663C147.721 35.2664 147.604 34.9665 147.604 34.5666V19.122C147.604 18.7222 147.721 18.4223 147.954 18.2223C148.204 18.0057 148.512 17.8975 148.879 17.8975C149.245 17.8975 149.545 18.0057 149.778 18.2223C150.012 18.4223 150.129 18.7222 150.129 19.122V34.5666C150.129 34.9665 150.012 35.2664 149.778 35.4663C149.545 35.6662 149.245 35.7662 148.879 35.7662Z" fill="white"/>
<path d="M154.931 35.7662C154.564 35.7662 154.257 35.6662 154.006 35.4663C153.773 35.2664 153.657 34.9665 153.657 34.5666V19.122C153.657 18.7222 153.773 18.4223 154.006 18.2223C154.257 18.0057 154.564 17.8975 154.931 17.8975C155.298 17.8975 155.598 18.0057 155.831 18.2223C156.064 18.4223 156.181 18.7222 156.181 19.122V34.5666C156.181 34.9665 156.064 35.2664 155.831 35.4663C155.598 35.6662 155.298 35.7662 154.931 35.7662Z" fill="white"/>
<path d="M164.832 23.1455C166.449 23.1455 167.649 23.5536 168.431 24.37C169.231 25.1864 169.631 26.4277 169.631 28.0937V34.5664C169.631 34.9496 169.523 35.2496 169.306 35.4662C169.089 35.6661 168.789 35.766 168.406 35.766C168.039 35.766 167.748 35.6578 167.531 35.4411C167.315 35.2246 167.207 34.933 167.207 34.5664V33.6418C166.89 34.3416 166.416 34.883 165.782 35.2663C165.166 35.6327 164.44 35.816 163.608 35.816C162.808 35.816 162.075 35.6578 161.409 35.3412C160.759 35.0079 160.243 34.5581 159.859 33.9916C159.476 33.4252 159.284 32.7837 159.284 32.0674C159.267 31.1677 159.493 30.4679 159.959 29.9681C160.425 29.4516 161.183 29.0851 162.233 28.8684C163.283 28.6352 164.741 28.5186 166.607 28.5186H167.182V27.7938C167.182 26.8609 166.989 26.1861 166.607 25.7695C166.223 25.353 165.607 25.1448 164.757 25.1448C164.174 25.1448 163.624 25.2198 163.108 25.3697C162.592 25.5197 162.025 25.7362 161.409 26.0194C160.959 26.2693 160.643 26.3943 160.459 26.3943C160.209 26.3943 160 26.3027 159.834 26.1194C159.684 25.9361 159.609 25.7029 159.609 25.4197C159.609 25.1697 159.676 24.9532 159.809 24.7699C159.959 24.57 160.193 24.3783 160.509 24.1951C161.092 23.8786 161.775 23.6287 162.559 23.4454C163.342 23.2455 164.099 23.1455 164.832 23.1455ZM164.058 33.9417C164.974 33.9417 165.723 33.6335 166.306 33.017C166.89 32.3839 167.182 31.5758 167.182 30.5929V29.943H166.732C165.432 29.943 164.432 30.0014 163.732 30.118C163.033 30.2347 162.534 30.4346 162.233 30.7179C161.934 30.9844 161.783 31.3759 161.783 31.8924C161.783 32.4922 162 32.9838 162.433 33.3668C162.866 33.75 163.408 33.9417 164.058 33.9417Z" fill="white"/>
<path d="M100.094 48.8566C101.16 48.8566 102.102 49.1149 102.918 49.6313C103.734 50.1478 104.368 50.8809 104.817 51.8306C105.284 52.7803 105.517 53.8883 105.517 55.1545C105.517 56.404 105.284 57.512 104.817 58.4783C104.368 59.4446 103.726 60.1943 102.893 60.7275C102.077 61.2607 101.144 61.5272 100.094 61.5272C99.1778 61.5272 98.3697 61.3356 97.6699 60.9524C96.9702 60.5526 96.4371 59.9861 96.0705 59.253V60.2527C96.0705 60.6192 95.9539 60.9191 95.7206 61.1523C95.5041 61.369 95.2041 61.4772 94.821 61.4772C94.4378 61.4772 94.1295 61.369 93.8962 61.1523C93.6631 60.9191 93.5464 60.6192 93.5464 60.2527V44.808C93.5464 44.4415 93.6631 44.15 93.8962 43.9333C94.1462 43.7168 94.4627 43.6084 94.8459 43.6084C95.2125 43.6084 95.5041 43.7168 95.7206 43.9333C95.9539 44.1332 96.0705 44.4082 96.0705 44.758V51.1558C96.4371 50.4228 96.9702 49.8563 97.6699 49.4565C98.3697 49.0565 99.1778 48.8566 100.094 48.8566ZM99.4943 59.528C100.577 59.528 101.419 59.1448 102.018 58.3784C102.635 57.6119 102.943 56.5373 102.943 55.1545C102.943 53.7883 102.643 52.7386 102.043 52.0056C101.444 51.2558 100.594 50.8809 99.4943 50.8809C98.3946 50.8809 97.545 51.2558 96.9452 52.0056C96.362 52.7553 96.0705 53.8215 96.0705 55.2044C96.0705 56.5873 96.362 57.6536 96.9452 58.4033C97.545 59.1531 98.3946 59.528 99.4943 59.528Z" fill="white"/>
<path d="M114.86 48.8566C115.926 48.8566 116.867 49.1149 117.683 49.6313C118.5 50.1478 119.133 50.8809 119.583 51.8306C120.05 52.7803 120.282 53.8883 120.282 55.1545C120.282 56.404 120.05 57.512 119.583 58.4783C119.133 59.4446 118.491 60.1943 117.659 60.7275C116.842 61.2607 115.909 61.5272 114.86 61.5272C113.943 61.5272 113.135 61.3356 112.435 60.9524C111.736 60.5526 111.202 59.9861 110.836 59.253V60.2527C110.836 60.6192 110.719 60.9191 110.486 61.1523C110.269 61.369 109.969 61.4772 109.586 61.4772C109.203 61.4772 108.895 61.369 108.662 61.1523C108.428 60.9191 108.312 60.6192 108.312 60.2527V44.808C108.312 44.4415 108.428 44.15 108.662 43.9333C108.912 43.7168 109.228 43.6084 109.611 43.6084C109.978 43.6084 110.269 43.7168 110.486 43.9333C110.719 44.1332 110.836 44.4082 110.836 44.758V51.1558C111.202 50.4228 111.736 49.8563 112.435 49.4565C113.135 49.0565 113.943 48.8566 114.86 48.8566ZM114.26 59.528C115.342 59.528 116.184 59.1448 116.784 58.3784C117.401 57.6119 117.708 56.5373 117.708 55.1545C117.708 53.7883 117.409 52.7386 116.809 52.0056C116.209 51.2558 115.359 50.8809 114.26 50.8809C113.16 50.8809 112.31 51.2558 111.711 52.0056C111.127 52.7553 110.836 53.8215 110.836 55.2044C110.836 56.5873 111.127 57.6536 111.711 58.4033C112.31 59.1531 113.16 59.528 114.26 59.528Z" fill="white"/>
<path d="M127.325 61.5271C125.626 61.5271 124.235 61.1772 123.152 60.4774C122.851 60.2941 122.635 60.1026 122.502 59.9026C122.386 59.7027 122.328 59.4778 122.328 59.2278C122.328 58.9613 122.402 58.7364 122.552 58.5531C122.702 58.3699 122.893 58.2782 123.127 58.2782C123.343 58.2782 123.685 58.4114 124.151 58.6781C124.651 58.9446 125.134 59.1612 125.601 59.3278C126.085 59.4945 126.683 59.5778 127.401 59.5778C128.2 59.5778 128.825 59.4362 129.275 59.1529C129.724 58.8697 129.95 58.4698 129.95 57.9533C129.95 57.6201 129.857 57.3536 129.674 57.1536C129.508 56.9536 129.209 56.7788 128.775 56.6287C128.342 56.4622 127.7 56.2872 126.851 56.104C125.384 55.7874 124.327 55.3625 123.677 54.8294C123.044 54.2796 122.727 53.5381 122.727 52.6052C122.727 51.8887 122.936 51.2473 123.352 50.6808C123.768 50.0977 124.343 49.6479 125.076 49.3313C125.809 49.0148 126.642 48.8564 127.575 48.8564C128.242 48.8564 128.891 48.9481 129.525 49.1314C130.158 49.2979 130.716 49.5479 131.199 49.8812C131.748 50.2476 132.024 50.6725 132.024 51.1557C132.024 51.4222 131.941 51.6472 131.773 51.8304C131.624 52.0137 131.441 52.1054 131.224 52.1054C131.074 52.1054 130.924 52.072 130.774 52.0054C130.624 51.9387 130.424 51.8304 130.174 51.6805C129.724 51.4139 129.3 51.2057 128.9 51.0557C128.516 50.9058 128.034 50.8308 127.451 50.8308C126.751 50.8308 126.184 50.9807 125.751 51.2807C125.334 51.5806 125.126 51.9887 125.126 52.5052C125.126 52.9718 125.317 53.3382 125.701 53.6049C126.101 53.8547 126.842 54.0963 127.925 54.3296C129.041 54.5629 129.915 54.8294 130.55 55.1293C131.183 55.4292 131.632 55.804 131.899 56.2539C132.182 56.6871 132.323 57.2452 132.323 57.9283C132.323 59.0113 131.866 59.886 130.949 60.5524C130.05 61.2022 128.842 61.5271 127.325 61.5271Z" fill="white"/>
<path d="M141.531 48.9066C142.33 48.8567 142.73 49.1982 142.73 49.9314C142.73 50.2978 142.639 50.5728 142.456 50.7561C142.272 50.9392 141.956 51.0476 141.506 51.0809L140.756 51.1559C139.706 51.2559 138.923 51.6224 138.407 52.2555C137.907 52.8886 137.657 53.655 137.657 54.5547V60.2777C137.657 60.6775 137.541 60.9775 137.308 61.1774C137.074 61.3773 136.774 61.4773 136.408 61.4773C136.042 61.4773 135.733 61.3773 135.483 61.1774C135.249 60.9775 135.133 60.6775 135.133 60.2777V50.1062C135.133 49.723 135.249 49.4315 135.483 49.2316C135.733 49.015 136.042 48.9066 136.408 48.9066C136.741 48.9066 137.016 49.015 137.232 49.2316C137.466 49.4315 137.582 49.7147 137.582 50.0813V51.2809C137.915 50.5477 138.398 49.9897 139.031 49.6065C139.665 49.2232 140.381 48.9983 141.181 48.9317L141.531 48.9066Z" fill="white"/>
</g>
<defs>
<clipPath id="clip0">
<rect width="169.631" height="74" fill="white"/>
</clipPath>
</defs>
</svg>
