<svg width="591" height="434" viewBox="0 0 591 434" fill="none" xmlns="http://www.w3.org/2000/svg">
<path d="M372.182 122.616V57.4544L365.428 64.2191V122.616L377.056 134.347L365.428 146.078H372.182L383.895 134.347L372.182 122.616Z" fill="#FF8AE2"/>
<path d="M546.519 52.3175H539.764L551.392 64.048V83.5707V95.3009V138.2L543.608 146.078H550.363L558.233 138.2V95.3009V83.5707V64.048L546.519 52.3175Z" fill="#FF8AE2"/>
<path d="M255.046 21.0638H248.805L260.518 32.7944V52.3173V64.0478V87.4236V138.2L252.652 146.078H258.979L266.76 138.2V32.7944L255.046 21.0638Z" fill="#FF8AE2"/>
<path d="M147.316 122.616V57.2838L140.562 64.048V122.616L152.275 134.347L140.562 146.077H147.316L159.03 134.347L147.316 122.616Z" fill="#FF8AE2"/>
<path d="M331.483 40.5867H324.729V52.3175H331.483V40.5867Z" fill="#FF8AE2"/>
<path d="M324.729 130.408L331.483 123.643V67.9015L347.13 52.3175H340.375L324.729 67.9015V130.408Z" fill="#FF8AE2"/>
<path d="M332.596 122.616L336.442 126.555L324.729 138.2L316.949 146.078H323.703L331.484 138.2L343.197 126.555L339.35 122.616H332.596Z" fill="#FF8AE2"/>
<path d="M435.794 122.616V64.0478V52.3173V32.7944L424.08 21.0638H417.326L429.04 32.7944V52.3173V64.0478V122.616L440.667 134.347L429.04 146.078H435.794L447.507 134.347L435.794 122.616Z" fill="#FF8AE2"/>
<path d="M447.507 52.3175H440.667L456.313 67.901V118.678L444.088 130.922L447.507 134.347L463.068 118.678V67.901L447.507 52.3175Z" fill="#FF8AE2"/>
<path d="M55.8315 47.5222V76.0354L62.5862 69.2713V47.5222V27.0577L50.274 14.7276H50.1885H43.5195L55.8315 27.0577V47.5222Z" fill="#FF8AE2"/>
<path d="M92.5967 31.1677V47.5223V109.087V121.417L100.805 129.638L104.225 126.212L99.3517 121.417V109.087V47.5223V31.1677V27.0577L87.0393 14.7276H80.2852L92.5967 27.0577V31.1677Z" fill="#FF8AE2"/>
<path d="M76.1799 73.3815L55.8311 93.7602V137.857L47.623 146.078H54.3777L62.5858 137.857V93.7602L76.1799 80.1456V73.3815Z" fill="#FF8AE2"/>
<path d="M35.311 31.2531L22.999 43.4976H29.8391L38.7311 34.5925L35.311 31.2531Z" fill="#FF8AE2"/>
<path d="M115.768 121.417H109.013L113.117 125.527L104.909 133.747L100.805 137.857L92.5977 146.077H99.3517L107.559 137.857L111.664 133.747L119.871 125.527L115.768 121.417Z" fill="#FF8AE2"/>
<path d="M383.895 52.3175H377.055L392.701 67.901V118.678L380.475 130.922L383.895 134.347L399.456 118.678V67.901L383.895 52.3175Z" fill="#FF8AE2"/>
<path d="M516.764 67.8153L489.573 95.0443V122.616L497.354 130.408L500.774 127.069L496.328 122.616V95.0443L523.519 67.8153L508.041 52.3175H501.288L516.764 67.8153Z" fill="#FF8AE2"/>
<path d="M509.07 118.677L513 122.616L501.287 134.347L497.354 138.2L489.573 146.078H496.328L504.109 138.2L508.041 134.347L519.755 122.616L515.82 118.677H509.07Z" fill="#FF8AE2"/>
<path d="M489.573 87.2521L496.328 80.488V70.8122L489.573 64.0476V87.2521Z" fill="#FF8AE2"/>
<path d="M174.591 126.554V67.901L159.03 52.3175H152.275L167.837 67.901V126.554L175.617 134.347L163.989 146.078H170.743L182.371 134.347L174.591 126.554Z" fill="#FF8AE2"/>
<path d="M214.862 130.408L218.197 127.068L213.836 122.616V70.6409L207.167 64.0476H207.082V122.616L214.862 130.408Z" fill="#FF8AE2"/>
<path d="M233.33 118.677H226.576L230.423 122.616L218.795 134.347L214.862 138.2L207.082 146.078H213.836L221.617 138.2L225.55 134.347L237.178 122.616L233.33 118.677Z" fill="#FF8AE2"/>
<path d="M218.795 75.6072H225.55L237.178 63.8762L225.55 52.1457H218.795L230.423 63.8762L218.795 75.6072Z" fill="#FF8AE2"/>
<path d="M278.988 52.3175H272.146L283.861 64.048L272.146 75.779H278.988L290.615 64.048L278.988 52.3175Z" fill="#FF8AE2"/>
<path d="M569.857 52.3175H563.106L574.815 64.048L563.106 75.779H569.857L581.571 64.048L569.857 52.3175Z" fill="#FF8AE2"/>
<path d="M278.988 75.7788H272.146L283.861 87.4237V138.2L276.079 146.078H282.834L290.615 138.2V87.4237L278.988 75.7788Z" fill="#FF8AE2"/>
<path d="M340.376 52.3171H324.73V40.5863L297.455 67.9008H309.169V138.2L316.949 146.078L324.73 138.2L336.443 126.554L332.596 122.616L324.73 130.408V67.9008L340.376 52.3171Z" fill="#9C4668"/>
<path d="M429.039 64.0478V52.3173V32.7944L417.326 21.0638L405.612 32.7944L413.393 40.5865V130.408L429.039 146.078L440.668 134.347L429.039 122.616V64.0478Z" fill="#9C4668"/>
<path d="M429.04 64.048L440.667 75.779V134.347L456.315 118.678V67.901L440.667 52.3175L429.04 64.048Z" fill="#9C4668"/>
<path d="M100.805 129.637L92.5977 121.417V109.087V47.5222V31.1677V27.0577L80.2851 14.7276L68.0587 27.0577L76.1811 35.192V55.6568L55.8323 76.0353V47.5222V27.0577L43.5201 14.7276H43.4346L18.8105 39.3021L23.0001 43.4978L35.312 31.2533L39.4161 35.3633V137.857L47.6241 146.078L55.8323 137.857V93.7601L76.1811 73.3813V109.087V129.637L92.5977 146.078L100.805 137.857L104.909 133.747L113.117 125.528L109.013 121.417L100.805 129.637Z" fill="#9C4668"/>
<path d="M365.428 64.0476L349.781 79.6317V130.408L365.428 146.077L377.056 134.347L365.428 122.616V64.0476Z" fill="#9C4668"/>
<path d="M365.428 64.048L377.056 75.779V134.347L392.702 118.678V67.901L377.056 52.3175L365.428 64.048Z" fill="#9C4668"/>
<path d="M516.764 67.8153L501.288 52.3175L489.574 64.048L501.202 75.6077L489.574 87.2524V64.048L473.928 79.6321V130.408L489.574 146.078L497.355 138.2L501.288 134.347L513 122.616L509.07 118.678L497.355 130.408L489.574 122.616V95.0443L516.764 67.8153Z" fill="#9C4668"/>
<path d="M140.562 64.0476L124.916 79.6317V130.408L140.562 146.077L152.276 134.347L140.562 122.616V64.0476Z" fill="#9C4668"/>
<path d="M167.836 67.901L152.275 52.3175L140.562 64.048L152.275 75.779V134.347L163.989 146.078L175.617 134.347L167.836 126.554V67.901Z" fill="#9C4668"/>
<path d="M214.863 130.408L207.082 122.616V64.0476L191.436 79.6317V130.408L207.082 146.077L214.863 138.2L218.795 134.347L230.424 122.616L226.576 118.677L214.863 130.408Z" fill="#9C4668"/>
<path d="M218.833 52.1855L207.09 63.9176L218.833 75.6491L230.576 63.9176L218.833 52.1855Z" fill="#9C4668"/>
<path d="M272.251 52.2738L260.508 64.0058L272.251 75.7373L283.994 64.0058L272.251 52.2738Z" fill="#9C4668"/>
<path d="M268.3 95.3008V138.2L276.08 146.078L283.861 138.2V87.4237L272.147 75.7788L260.52 87.4237L268.3 95.3008Z" fill="#9C4668"/>
<path d="M260.519 52.3173V32.7944L248.806 21.0638L237.092 32.7944L244.873 40.5865V138.2L252.653 146.078L260.519 138.2V87.4236V64.0478V52.3173Z" fill="#9C4668"/>
<path d="M563.203 52.2693L551.463 64.0009L563.203 75.7329L574.948 64.0013L563.203 52.2693Z" fill="#9C4668"/>
<path d="M528.049 64.048L535.828 71.8397V83.5707V95.3009V138.2L543.607 146.078L551.391 138.2V95.3009V83.5707V64.048L539.763 52.3175L528.049 64.048Z" fill="#9C4668"/>
<path d="M359.015 22.1772V17.5534H360.811C362.435 17.5534 363.717 18.8378 363.717 20.4646V33.0517C361.922 33.651 360.64 35.3635 360.64 37.4186C360.64 38.7029 361.153 39.8161 361.922 40.6723C362.777 41.5286 363.889 42.0423 365.257 42.0423C367.822 42.0423 369.874 39.9873 369.874 37.4186C369.874 35.5348 368.677 33.9078 367.053 33.1373V20.4646C367.053 18.7521 366.368 17.2109 365.171 16.0121C363.974 14.8133 362.435 14.1283 360.725 14.1283H358.929V9.5046L352.688 15.7553L359.015 22.1772ZM365.342 35.3635C365.941 35.3635 366.453 35.6204 366.881 35.9629C367.223 36.3054 367.48 36.9048 367.48 37.4186C367.48 38.0179 367.223 38.5316 366.881 38.8742C366.453 39.3023 365.941 39.4736 365.428 39.4736C364.231 39.4736 363.29 38.5316 363.29 37.333C363.205 36.3054 364.145 35.3635 365.342 35.3635Z" fill="#9C4668"/>
<path d="M351.747 37.504C351.747 35.6202 350.551 33.9934 348.926 33.2227V20.2076C350.551 19.5226 351.747 17.8957 351.747 15.9263C351.747 13.3576 349.696 11.3025 347.131 11.3025C344.565 11.3025 342.514 13.3576 342.514 15.9263C342.514 17.1251 342.941 18.3238 343.796 19.1801C344.309 19.6939 344.908 20.0364 345.506 20.2932V33.1371C343.711 33.7365 342.428 35.449 342.428 37.504C342.428 38.7884 342.941 39.9015 343.711 40.7578C344.565 41.614 345.677 42.1278 347.045 42.1278C349.696 42.1278 351.747 39.9872 351.747 37.504ZM347.131 18.067C346.532 18.067 346.019 17.8101 345.678 17.4676C345.25 17.0395 345.078 16.5258 345.078 16.012C345.078 14.8133 346.019 13.8713 347.216 13.8713C347.814 13.8713 348.328 14.1282 348.756 14.4708C349.097 14.8132 349.354 15.4126 349.354 15.9263C349.269 17.1251 348.328 18.067 347.131 18.067ZM347.131 39.559C345.934 39.559 344.993 38.6172 344.993 37.4184C344.993 36.819 345.25 36.3053 345.592 35.9628C346.019 35.5346 346.532 35.3634 347.045 35.3634C347.644 35.3634 348.156 35.6202 348.584 35.9628C348.926 36.3053 349.183 36.9047 349.183 37.4184C349.269 38.6172 348.328 39.559 347.131 39.559Z" fill="#9C4668"/>
<path d="M472.217 58.8248C474.098 57.1122 474.269 54.2012 472.559 52.3172C472.046 51.8037 471.534 51.3753 470.935 51.1183V42.2991C474.183 46.4947 478.031 48.2928 480.938 49.1491C481.109 49.9197 481.452 50.6047 481.964 51.204C482.819 52.1459 483.931 52.66 485.128 52.7452C486.325 52.8309 487.522 52.4029 488.462 51.5467C490.343 49.8341 490.514 46.9229 488.804 45.0391C487.949 44.0971 486.838 43.5834 485.64 43.4978C484.529 43.4121 483.503 43.7546 482.562 44.4397C482.477 44.5253 482.392 44.6109 482.307 44.6966C481.964 45.0391 481.622 45.3816 481.451 45.8097C478.886 44.9534 475.466 43.0697 472.73 38.874C474.269 37.1615 474.355 34.5071 472.73 32.709C471.105 30.9108 468.37 30.6539 466.489 32.1096C466.404 32.1952 466.317 32.2809 466.232 32.3665C464.351 34.079 464.18 36.9902 465.89 38.874C466.404 39.4734 467.001 39.8159 467.686 40.0728V51.0331C467.259 51.204 466.831 51.3753 466.489 51.718C466.404 51.8037 466.317 51.8888 466.232 51.9745C465.292 52.8309 464.779 53.9442 464.693 55.1427C464.608 56.3417 465.035 57.5402 465.89 58.4821C467.429 60.2804 470.336 60.4518 472.217 58.8248ZM484.016 46.4947C484.443 46.1521 484.956 45.8953 485.555 45.9809C486.153 45.9809 486.667 46.2378 487.009 46.666C487.778 47.5222 487.692 48.8922 486.838 49.6629C486.838 49.6629 486.752 49.7484 486.667 49.7484C486.239 50.0911 485.812 50.1768 485.298 50.1768C484.7 50.1768 484.187 49.9197 483.845 49.4916C483.503 49.0635 483.247 48.5497 483.332 47.9503C483.332 47.4366 483.589 46.9229 484.016 46.4947ZM467.856 34.2502C468.711 33.4797 470.08 33.5653 470.849 34.4215C471.619 35.2777 471.534 36.6478 470.678 37.4184L470.592 37.504C469.737 38.189 468.455 38.0178 467.771 37.2471C466.916 36.3053 467.001 35.0209 467.856 34.2502ZM467.087 55.2284C467.087 54.6291 467.344 54.1155 467.771 53.7728C468.626 53.0022 469.995 53.0879 470.764 53.9442C471.534 54.8004 471.447 56.1703 470.592 56.9409L470.507 57.0266C469.652 57.7116 468.37 57.5402 467.686 56.7696C467.259 56.3417 467.001 55.7425 467.087 55.2284Z" fill="#9C4668"/>
<path d="M138.253 11.3882C138.253 11.0456 138.34 10.6175 138.51 10.275H132.354V12.9294H138.51C138.253 12.5012 138.168 11.9019 138.253 11.3882Z" fill="#9C4668"/>
<path d="M146.803 11.9018C146.803 12.2442 146.717 12.6723 146.547 13.0148H152.702V10.3605H146.632C146.717 10.7885 146.803 11.3023 146.803 11.9018Z" fill="#9C4668"/>
<path d="M148.086 11.6454C148.086 11.731 148.086 11.9023 148.086 11.9879C148.001 13.5291 147.317 14.8992 146.205 15.8411C145.093 16.8686 143.64 17.2967 142.186 17.2111C139.108 17.0399 136.715 14.3854 136.886 11.3029C136.971 9.76163 137.655 8.39162 138.766 7.44974C139.878 6.42225 141.331 5.99411 142.785 6.07973C145.863 6.16536 148.086 8.64848 148.086 11.6454ZM139.536 11.6454C139.536 13.1867 140.733 14.471 142.357 14.6424C143.126 14.7279 143.896 14.3854 144.495 13.8716C145.093 13.3579 145.435 12.5873 145.521 11.8166C145.606 10.1898 144.409 8.81978 142.785 8.64848L142.871 7.36412L142.785 8.64848C142.015 8.56288 141.246 8.90539 140.648 9.41912C140.049 9.93284 139.707 10.7035 139.621 11.4741C139.536 11.4741 139.536 11.5598 139.536 11.6454Z" fill="#9C4668"/>
<path d="M520.184 152.157C520.184 151.815 520.269 151.387 520.44 151.044H514.281V153.698H520.44C520.269 153.27 520.184 152.671 520.184 152.157Z" fill="#9C4668"/>
<path d="M528.735 152.67C528.735 153.013 528.65 153.441 528.479 153.784H534.633V151.129H528.564C528.735 151.557 528.817 152.071 528.735 152.67Z" fill="#9C4668"/>
<path d="M530.103 152.414C530.103 152.499 530.103 152.671 530.103 152.757C530.017 154.297 529.331 155.668 528.221 156.61C527.111 157.551 525.653 158.065 524.2 157.979C521.122 157.809 518.731 155.153 518.903 152.071C518.989 150.53 519.67 149.16 520.779 148.219C521.895 147.191 523.348 146.762 524.8 146.848C527.792 147.019 530.103 149.417 530.103 152.414ZM521.551 152.414C521.551 153.955 522.747 155.24 524.371 155.411C525.143 155.496 525.91 155.153 526.511 154.64C527.111 154.126 527.449 153.355 527.534 152.585C527.621 150.958 526.424 149.588 524.8 149.417L524.887 148.133L524.8 149.417C524.029 149.332 523.261 149.674 522.661 150.188C522.066 150.701 521.723 151.473 521.637 152.243C521.551 152.328 521.551 152.328 521.551 152.414Z" fill="#9C4668"/>
<path d="M71.9909 161.062C71.9909 160.72 72.0766 160.292 72.2476 159.949H66.0918V162.603H72.2476C71.9908 162.175 71.9056 161.576 71.9909 161.062Z" fill="#9C4668"/>
<path d="M80.541 161.576C80.541 161.919 80.4552 162.347 80.2842 162.689H86.4406V160.034H80.37C80.4552 160.463 80.541 160.976 80.541 161.576Z" fill="#9C4668"/>
<path d="M81.8232 161.319C81.8232 161.405 81.8232 161.576 81.8232 161.661C81.7379 163.203 81.0539 164.573 79.9425 165.514C78.831 166.543 77.3776 166.971 75.9237 166.884C72.8457 166.714 70.4519 164.059 70.6229 160.976C70.7082 159.436 71.3922 158.065 72.5036 157.123C73.6156 156.182 75.0691 155.668 76.5224 155.753C79.5146 155.839 81.8232 158.322 81.8232 161.319ZM73.2735 161.319C73.2735 162.861 74.4702 164.145 76.0947 164.316C76.8645 164.401 77.6338 164.059 78.2322 163.545C78.831 163.031 79.1731 162.26 79.2583 161.491C79.3441 159.864 78.1469 158.493 76.5224 158.322L76.6078 156.952L76.5224 158.322C75.7526 158.236 74.9833 158.579 74.385 159.093C73.7866 159.607 73.4446 160.377 73.3588 161.148C73.2735 161.234 73.2735 161.234 73.2735 161.319Z" fill="#9C4668"/>
<path d="M290.701 37.6753C290.701 37.3328 290.786 36.9047 290.957 36.5622H284.802V39.2166H290.957C290.786 38.7028 290.701 38.1891 290.701 37.6753Z" fill="#9C4668"/>
<path d="M299.25 38.1891C299.25 38.5316 299.165 38.9597 298.993 39.3022H305.15V36.5622H299.079C299.25 37.076 299.335 37.5897 299.25 38.1891Z" fill="#9C4668"/>
<path d="M300.618 37.9324C300.618 38.018 300.618 38.1893 300.618 38.2748C300.533 39.8161 299.848 41.1861 298.737 42.128C297.626 43.1555 296.172 43.5836 294.719 43.498C291.64 43.3268 289.246 40.6724 289.418 37.5898C289.503 36.0486 290.187 34.6785 291.299 33.7367C292.41 32.7092 293.864 32.2811 295.317 32.3667C298.309 32.4523 300.618 34.9354 300.618 37.9324ZM292.069 37.9324C292.069 39.4736 293.266 40.758 294.89 40.9292C295.66 41.0148 296.429 40.6724 297.027 40.1586C297.626 39.6448 297.967 38.8742 298.053 38.1036C298.139 36.4767 296.942 35.1067 295.317 34.9354L295.402 33.6511L295.317 34.9354C294.548 34.8498 293.778 35.1923 293.179 35.7061C292.581 36.2198 292.239 36.9904 292.154 37.7611C292.068 37.7611 292.069 37.8468 292.069 37.9324Z" fill="#9C4668"/>
<path d="M205.456 38.3603C204.088 36.2197 201.182 35.6202 199.044 37.0759C198.018 37.7609 197.334 38.7885 197.077 39.9872C196.821 41.186 197.077 42.4704 197.762 43.4978C198.189 44.1828 199.129 44.8679 199.899 45.0391V48.2929C199.899 49.2348 199.129 51.3754 196.822 51.3754H188.442V43.1554C189.04 42.8985 189.639 42.556 190.067 41.9566C191.777 40.0728 191.605 37.1615 189.725 35.449C187.844 33.7365 184.937 33.9078 183.226 35.7915C182.371 36.7334 182.029 37.9322 182.029 39.131C182.029 40.3297 182.628 41.5285 183.568 42.299C183.653 42.3847 183.74 42.4703 183.825 42.556C184.167 42.8129 184.594 43.0698 185.022 43.241V54.2013C184.338 54.4578 183.74 54.8862 183.226 55.3998C181.516 57.2837 181.687 60.1948 183.568 61.9074C183.653 61.9931 183.74 62.0787 183.825 62.1644C185.706 63.62 188.442 63.3629 190.067 61.5647C191.605 59.7669 191.605 57.0267 190.067 55.3998C189.81 55.1428 189.639 54.9719 189.468 54.8005H196.735C201.182 54.8005 203.148 51.0327 203.148 48.4641V45.296C203.404 45.2104 203.746 45.0391 204.003 44.8679C204.088 44.7822 204.174 44.6967 204.259 44.611C205.114 43.926 205.713 42.9841 205.97 41.871C206.397 40.5866 206.141 39.3878 205.456 38.3603ZM184.594 38.9597C184.594 38.3603 184.765 37.8465 185.107 37.4184C185.877 36.5622 187.074 36.4766 187.929 37.1615C188.014 37.1615 188.014 37.2472 188.014 37.2472C188.87 38.0178 188.955 39.3878 188.186 40.244C187.416 41.1003 186.048 41.1859 185.193 40.4154C184.851 39.9872 184.594 39.4734 184.594 38.9597ZM188.356 59.7669C187.587 60.6232 186.304 60.7084 185.364 59.9378C184.509 59.1671 184.423 57.7973 185.193 56.941C185.962 56.0847 187.159 55.9991 188.014 56.684C188.1 56.684 188.1 56.7696 188.1 56.7696C189.04 57.5403 189.126 58.9106 188.356 59.7669ZM203.661 41.3572C203.576 41.871 203.233 42.3847 202.72 42.7273C202.292 43.0698 201.695 43.1554 201.096 43.0698C200.583 42.9841 200.07 42.6416 199.728 42.1278C199.386 41.6997 199.3 41.1003 199.386 40.501C199.471 39.9872 199.728 39.559 200.155 39.3022C200.241 39.3022 200.241 39.2166 200.326 39.2166C201.267 38.6172 202.635 38.8741 203.233 39.8159C203.661 40.2441 203.746 40.7578 203.661 41.3572Z" fill="#9C4668"/>
<path d="M48.3072 32.4522H46.6826V130.494H48.3072V32.4522Z" fill="#FF8AE2"/>
<path d="M85.5854 32.4518H83.9609V123.729H85.5854V32.4518Z" fill="#FF8AE2"/>
<path d="M252.652 36.9905H251.028V134.261H252.652V36.9905Z" fill="#FF8AE2"/>
<path d="M421.431 38.103H419.806V124.242H421.431V38.103Z" fill="#FF8AE2"/>
<path d="M160.741 72.1826H159.116V128.181H160.741V72.1826Z" fill="#FF8AE2"/>
<path d="M317.548 72.1826H315.924V128.181H317.548V72.1826Z" fill="#FF8AE2"/>
<path d="M543.865 69.442H542.24V130.835H543.865V69.442Z" fill="#FF8AE2"/>
<path d="M385.264 71.1544H383.64V117.049H385.264V71.1544Z" fill="#FF8AE2"/>
<path d="M448.277 72.1826H446.652V118.078H448.277V72.1826Z" fill="#FF8AE2"/>
<path d="M481.537 82.1152H479.912V128.011H481.537V82.1152Z" fill="#FF8AE2"/>
<path d="M358.674 81.6011H357.049V127.496H358.674V81.6011Z" fill="#FF8AE2"/>
<path d="M199.984 80.4024H198.36V127.24H199.984V80.4024Z" fill="#FF8AE2"/>
<path d="M133.295 81.4295H131.671V126.812H133.295V81.4295Z" fill="#FF8AE2"/>
<path d="M276.337 90.5919H274.712V135.974H276.337V90.5919Z" fill="#FF8AE2"/>
<path d="M48.3078 92.9038L47.0254 91.6188L84.1325 54.3719L85.4148 55.7423L48.3078 92.9038Z" fill="#FF8AE2"/>
<path d="M531.384 119.962C532.236 122.531 534.118 124.414 535.828 125.356V112.598C531.727 116.879 531.384 119.876 531.384 119.962Z" fill="#FF8AE2"/>
<path d="M301.816 125.699C301.645 125.441 301.559 125.099 301.474 124.842C301.559 125.185 301.645 125.441 301.816 125.699Z" fill="#FF8AE2"/>
<path d="M309.082 109.944C299.849 117.221 301.815 125.699 301.815 125.699C303.269 128.782 306.346 130.58 309.168 131.607L309.082 109.944Z" fill="#FF8AE2"/>
<path d="M174.591 95.6433V114.138C176.558 112.34 178.695 109.943 179.721 107.289C179.977 106.175 180.661 100.867 174.591 95.6433Z" fill="#9C4668"/>
<path d="M118.332 172.021C118.332 172.021 124.317 174.762 122.863 190.346C122.18 197.196 125.856 203.532 125.856 203.532C125.856 203.532 114.826 200.878 113.287 192.572C112.09 186.321 117.392 180.071 118.332 172.021Z" fill="#93C2DB"/>
<path d="M107.303 33.394C107.303 33.394 120.128 23.4615 114.143 5.73695C114.143 5.73695 106.79 8.30572 108.073 16.012C109.44 24.5746 109.526 29.8834 107.303 33.394Z" fill="#93C2DB"/>
<path d="M527.362 103.435C527.362 103.435 521.637 86.2253 538.31 73.3815C538.31 73.3815 543.012 79.8891 537.538 86.7388C532.064 93.5888 527.448 98.8123 527.362 103.435Z" fill="#93C2DB"/>
<path d="M298.823 102.066C298.823 102.066 292.667 85.9682 304.466 79.1184C304.466 79.1184 305.834 82.1152 305.236 87.0815C304.551 92.3047 301.132 93.0755 298.823 102.066Z" fill="#93C2DB"/>
<path d="M206.739 35.1924C206.739 35.1924 210.929 24.1467 220.848 27.1437C220.848 27.058 218.197 37.2474 206.739 35.1924Z" fill="#93C2DB"/>
<path d="M195.025 31.9385C195.025 31.9385 187.416 23.8041 195.453 15.6696C195.538 15.6696 202.464 22.1772 195.025 31.9385Z" fill="#93C2DB"/>
<path d="M179.977 35.1922C179.977 35.1922 168.862 36.9903 165.186 28.5134C165.101 28.5134 175.617 24.8315 179.977 35.1922Z" fill="#93C2DB"/>
<path d="M356.022 165.429C356.022 165.429 360.212 154.383 370.13 157.379C370.13 157.379 367.479 167.57 356.022 165.429Z" fill="#93C2DB"/>
<path d="M344.309 162.261C344.309 162.261 336.699 154.127 344.736 145.993C344.736 145.993 351.747 152.5 344.309 162.261Z" fill="#93C2DB"/>
<path d="M329.262 165.514C329.262 165.514 318.147 167.313 314.47 158.836C314.384 158.75 324.901 155.068 329.262 165.514Z" fill="#93C2DB"/>
<path d="M469.994 24.9172C469.994 24.9172 465.804 16.0121 472.987 8.90515C472.901 8.90515 478.801 16.4402 469.994 24.9172Z" fill="#93C2DB"/>
<path d="M463.753 26.2014C463.753 26.2014 453.921 25.6877 451.099 15.9264C451.099 15.9264 460.504 14.3851 463.753 26.2014Z" fill="#93C2DB"/>
<path d="M232.988 312.876C232.988 312.876 223.497 317.843 216.999 309.88C216.999 309.88 225.978 304.314 232.988 312.876Z" fill="#93C2DB"/>
<path d="M237.434 319.127C237.434 319.127 237.006 330.173 227.174 331.8C227.174 331.714 226.405 321.268 237.434 319.127Z" fill="#93C2DB"/>
<path d="M361.751 276.144C361.751 276.144 370.643 271.948 377.739 279.14C377.739 279.055 370.215 284.963 361.751 276.144Z" fill="#93C2DB"/>
<path d="M360.469 269.893C360.469 269.893 360.981 260.045 370.729 257.22C370.642 257.22 372.267 266.639 360.469 269.893Z" fill="#93C2DB"/>
<path d="M564.983 151.729C564.983 151.729 574.816 154.726 574.221 165.172C574.221 165.086 563.101 163.973 564.983 151.729Z" fill="#93C2DB"/>
<path d="M566.779 146.42C566.779 146.42 573.105 138.714 582.938 144.708C582.938 144.708 577.384 152.414 566.779 146.42Z" fill="#93C2DB"/>
<path d="M15.4755 46.2378C15.4755 46.2378 10.602 55.5709 0 51.2039C0 51.2039 4.27501 40.9291 15.4755 46.2378Z" fill="#93C2DB"/>
<path d="M20.1779 49.663C20.1779 49.663 27.7874 58.2256 20.1779 65.9317C20.0924 65.9317 12.0554 57.3694 20.1779 49.663Z" fill="#93C2DB"/>
<path d="M340.718 12.0733C340.718 12.0733 331.142 10.0182 329.86 1.65191e-05C329.775 1.65191e-05 339.35 -0.0856128 340.718 12.0733Z" fill="#93C2DB"/>
<path d="M337.896 17.8105C337.896 17.8105 331.484 25.2599 322.079 21.6636C322.164 21.6636 326.611 13.1867 337.896 17.8105Z" fill="#93C2DB"/>
<path d="M500.005 115.424C500.005 115.424 501.8 112.255 502.399 109.087C503.511 103.778 504.024 98.4693 510.437 98.2127C510.523 98.2127 510.695 112.769 500.005 115.424Z" fill="#93C2DB"/>
<path d="M266.76 135.118C267.274 129.295 267.274 114.824 265.82 108.402C263.939 99.8395 262.229 100.097 261.117 100.524C260.006 100.952 260.263 102.151 259.664 102.837C258.981 103.521 257.954 104.377 256.586 101.638C255.218 98.8121 254.193 90.7631 251.627 87.9378C248.977 85.0262 247.266 89.7355 246.07 90.8488C244.873 91.9618 244.702 92.7326 241.367 90.5061C238.033 88.2799 228.969 83.6563 225.122 86.653C221.36 89.6503 225.464 93.4173 226.661 94.1881C229.141 95.815 237.092 98.2988 237.691 99.6682C238.717 102.151 233.33 102.409 232.305 104.206C231.278 106.004 232.646 107.889 235.126 108.488C237.605 109.087 244.275 107.803 247.096 108.488C249.832 109.173 249.233 110.115 248.293 110.714C247.78 111.056 242.991 113.712 243.761 116.023C244.616 118.763 247.352 119.619 254.021 119.019C259.066 118.592 262.827 122.188 263.939 125.099C265.05 128.096 266.76 135.118 266.76 135.118Z" fill="#93C2DB"/>
<path d="M233.073 89.6502C232.56 89.3074 232.047 89.0504 231.876 88.9647L230.936 89.5645C230.936 89.5645 231.107 89.7358 232.474 90.5065C254.192 103.521 263.169 117.307 266.931 127.24C266.931 126.384 266.931 125.528 266.931 124.671C262.742 114.738 253.422 101.809 233.073 89.6502Z" fill="#FF8AE2"/>
<path d="M376.712 97.9558C376.712 97.9558 375.26 84.6837 377.482 74.066C378.851 67.6441 383.126 59.1669 389.196 52.317C396.036 44.6964 398.43 43.4119 399.969 43.4119C400.653 43.4119 400.226 44.4395 399.969 45.467C399.285 47.9501 398.687 49.8339 397.917 53.2591C396.463 60.1945 397.917 62.9347 395.779 66.4451C394.582 68.5004 387.4 71.155 389.281 73.7233C390.393 75.1794 396.293 69.271 397.917 71.2401C399.541 73.1241 396.378 81.9435 392.103 84.598C379.876 92.0477 376.712 97.9558 376.712 97.9558Z" fill="#93C2DB"/>
<path d="M424.679 183.753V176.988H386.375V188.463H393.301V195.655H386.375H386.204V202.762H379.278H400.311V195.655H431.433V183.753H424.679Z" fill="#93C2DB"/>
<path d="M258.467 206.272H251.371V189.918H240.684V247.715H247.609V240.608H258.467V233.929V220.143H271.378V214.749H281.553V206.272H258.467Z" fill="#93C2DB"/>
<path d="M354.569 232.302H347.472V239.409H354.569V232.302Z" fill="#93C2DB"/>
<path d="M286.424 233.929H279.328V241.036H286.424V233.929Z" fill="#93C2DB"/>
<path d="M293.522 241.036H286.426V248.143H293.522V241.036Z" fill="#93C2DB"/>
<path d="M340.375 253.709V246.517H347.472V239.41H341.23V223.911H333.023V239.41H313.1V246.003H306.432V253.709H315.923H340.375Z" fill="#93C2DB"/>
<path d="M320.539 184.181H313.443V191.288H320.539V184.181Z" fill="#93C2DB"/>
<path d="M327.637 176.988H320.54V184.095H327.637V176.988Z" fill="#93C2DB"/>
<path d="M227.259 184.608H217.171V190.003H227.259V184.608Z" fill="#93C2DB"/>
<path d="M195.282 193H188.186V185.893H181.089V193H188.186V206.357V220.143H219.906V206.357H195.282V193ZM202.464 212.951V220.058H195.368V212.951H202.464Z" fill="#93C2DB"/>
<path d="M381.605 235.867V229.872H375.621V235.867H381.605Z" fill="#93C2DB"/>
<path d="M178.097 165.429H171.685V171.594H178.097V165.429Z" fill="#93C2DB"/>
<path d="M277.62 18.5037V12.2531H271.378V18.5037H277.62Z" fill="#93C2DB"/>
<path d="M394.572 26.5528V20.3021H388.33V26.5528H394.572Z" fill="#93C2DB"/>
<path d="M590.258 113.255V107.005H584.018V113.255H590.258Z" fill="#93C2DB"/>
<path d="M374.609 308.863H380.85V302.612H374.609V308.863Z" fill="#93C2DB"/>
<path d="M269.974 331.655H276.215V325.404H269.974V331.655Z" fill="#93C2DB"/>
<path d="M403.152 148.225V142.231H397.167V148.225H403.152Z" fill="#93C2DB"/>
<path d="M463.927 157.98V151.986H457.942V157.98H463.927Z" fill="#93C2DB"/>
<path d="M232.028 152.615H238.012V146.621H232.028V152.615Z" fill="#93C2DB"/>
<path d="M222.516 255.914V249.921H216.532V255.914H222.516Z" fill="#93C2DB"/>
<path d="M400.312 195.655V202.762H391.249V253.709H402.193V247.03H408.862V195.655H400.312Z" fill="#9C4668"/>
<path d="M327.636 176.988V184.18H320.539V191.287H313.444H306.347V216.719V209.697H313.529V213.122H322.421V209.697V195.655H346.105V190.003H352.346V176.988H327.636Z" fill="#9C4668"/>
<path d="M238.047 158.644H244.033V152.65H238.047V158.644Z" fill="#FF8AE2"/>
<path d="M279.158 183.411V176.988H254.534V171.594H236.921V189.918H251.37V206.272H258.467V194.541H265.734V183.411H279.158Z" fill="#9C4668"/>
<path d="M188.186 227.251V220.143V206.272V193H181.089V185.893H188.186V178.7H195.282V176.988V171.68H178.097V178.958V179.729V249.771H195.282V227.251H188.186Z" fill="#9C4668"/>
<path d="M178.097 249.77H171.685V255.935H178.097V249.77Z" fill="#9C4668"/>
<path d="M431.263 176.988H424.594V183.667H431.263V176.988Z" fill="#9C4668"/>
<path d="M437.931 183.753H431.263V195.655H437.931V183.753Z" fill="#9C4668"/>
<path d="M437.931 170.31H431.263V176.988H437.931V170.31Z" fill="#9C4668"/>
<path d="M347.472 246.516H340.376V253.624H347.472V246.516Z" fill="#9C4668"/>
<path d="M258.467 247.715H247.607V253.709H258.467V247.715Z" fill="#9C4668"/>
<path d="M6.24151 72.2128V65.9617H0V72.2128H6.24151Z" fill="#FF8AE2"/>
<path d="M181.215 11.0505V4.79984H174.975V11.0505H181.215Z" fill="#FF8AE2"/>
<path d="M580.935 41.2261V34.9755H574.694V41.2261H580.935Z" fill="#FF8AE2"/>
<path d="M525.193 181.314H531.434V175.063H525.193V181.314Z" fill="#FF8AE2"/>
<path d="M531.293 175.29H537.534V169.039H531.293V175.29Z" fill="#FF8AE2"/>
<path d="M146.679 227.009H152.92V220.758H146.679V227.009Z" fill="#FF8AE2"/>
<path d="M215.632 286.93H221.874V280.68H215.632V286.93Z" fill="#FF8AE2"/>
<path d="M300.189 259.921H306.431V253.671H300.189V259.921Z" fill="#FF8AE2"/>
<path d="M408.583 164.324V158.331H402.598V164.324H408.583Z" fill="#FF8AE2"/>
<path d="M457.857 164.008V158.015H451.871V164.008H457.857Z" fill="#FF8AE2"/>
<path d="M294.89 176.988H279.158V183.411H265.734V194.541H287.708V187.178H294.89V176.988Z" fill="#FF8AE2"/>
<path d="M301.302 170.909H294.89V177.074H301.302V170.909Z" fill="#FF8AE2"/>
<path d="M498.723 16.1834H492.054V22.8622H498.723V16.1834Z" fill="#FF8AE2"/>
<path d="M415.531 253.709H408.861V260.388H415.531V253.709Z" fill="#FF8AE2"/>
<path d="M408.862 247.03H402.192V253.709H408.862V247.03Z" fill="#FF8AE2"/>
<path d="M354.569 232.302V219.116H349.866V213.122H313.529V209.697H306.347V216.804H313.444V223.911H333.023H336.785H341.231V239.409H347.472V232.302H354.569Z" fill="#FF8AE2"/>
<path d="M320.539 176.988H313.443V184.095H320.539V176.988Z" fill="#FF8AE2"/>
<path d="M313.444 184.181H306.347V191.288H313.444V184.181Z" fill="#FF8AE2"/>
<path d="M281.466 214.749H271.377V220.143H281.466V214.749Z" fill="#FF8AE2"/>
<path d="M171.684 255.936H165.016V262.614H171.684V255.936Z" fill="#FF8AE2"/>
<path d="M202.378 212.951H195.282V220.058H202.378V212.951Z" fill="#FF8AE2"/>
<path d="M195.282 220.143H188.187V227.25H195.282V220.143Z" fill="#FF8AE2"/>
<path d="M210.075 176.988V171.594H202.465H195.282V178.701H188.187V193H195.282V190.003H217.171V184.609H227.345V176.988H210.075Z" fill="#FF8AE2"/>
<path d="M400.398 181.356H393.301V188.463H400.398V181.356Z" fill="#FF8AE2"/>
<path d="M386.375 188.463V176.988H363.033V195.655H379.108V202.762H386.204V195.655H386.375H393.3V188.463H386.375Z" fill="#FF8AE2"/>
<path d="M286.425 248.143V241.036H279.328V233.929H258.467V240.608H247.607V247.715H258.467V249.77V253.709H293.607V248.143H286.425Z" fill="#FF8AE2"/>
<path d="M354.569 239.409H347.472V246.517H354.569V239.409Z" fill="#9C4668"/>
<path d="M388.246 32.8503V26.5997H382.004V32.8503H388.246Z" fill="#9C4668"/>
<path d="M29.6722 90.5333V84.2828H23.4307V90.5333H29.6722Z" fill="#9C4668"/>
<path d="M195.322 155.538V149.288H189.08V155.538H195.322Z" fill="#9C4668"/>
<path d="M125.567 153.591V147.341H119.325V153.591H125.567Z" fill="#9C4668"/>
<path d="M584.017 119.553V113.303H577.776V119.553H584.017Z" fill="#9C4668"/>
<path d="M368.41 302.57H374.652V296.319H368.41V302.57Z" fill="#9C4668"/>
<path d="M431.5 228.33H437.741V222.079H431.5V228.33Z" fill="#9C4668"/>
<path d="M263.686 325.444H269.927V319.193H263.686V325.444Z" fill="#FF8AE2"/>
<path d="M375.535 241.809V235.815H369.55V241.809H375.535Z" fill="#9C4668"/>
<path d="M278.816 159.178H272.146V165.857H278.816V159.178Z" fill="#9C4668"/>
<path d="M216.532 261.943V255.949H210.546V261.943H216.532Z" fill="#9C4668"/>
<path d="M321.737 306.711L317.633 302.601L310.793 309.451H306.518V293.953L310.194 290.271L311.563 288.901L313.015 287.531L315.837 284.705V280.425V273.403L309.767 267.409L301.388 275.801L302.841 277.171L307.031 272.975L310.194 276.229V287.445L301.645 296.008L300.96 296.692V310.736H306.518H316.521H317.633L321.737 306.711Z" fill="#9C4668"/>
<path d="M315.837 280.425V284.705L313.016 287.531L311.563 288.901L310.195 290.271L306.518 293.953V309.451H308.826V293.953L312.504 290.271L313.786 288.901L315.239 287.531L318.061 284.705V280.425V273.403L311.99 267.409H309.768L315.837 273.403V280.425Z" fill="#FF8AE2"/>
<path d="M319.941 302.601H317.632L321.736 306.711L317.632 310.736H319.941L323.96 306.711L319.941 302.601Z" fill="#FF8AE2"/>
<path d="M308.142 274.174L307.03 272.975L302.841 277.17H305.064L308.142 274.174Z" fill="#FF8AE2"/>
<path d="M344.138 292.155V301.146H337.983V298.577V291.812H333.622V278.883H325.756V298.577H329.775V311.249H335.759H337.983H348.499V305.171V301.146V292.155H344.138Z" fill="#93C2DB"/>
<path d="M351.747 278.798V273.488H346.105V278.883H344.138V292.154H348.499V301.146V304.741H351.747V298.577H354.484V278.798H351.747Z" fill="#FF8AE2"/>
<path d="M347.814 267.665H334.475V270.92H329.773V278.883H333.621V291.812H337.981V278.883H346.104V273.488H347.814V267.665Z" fill="#9C4668"/>
<path d="M261.887 306.711L257.782 302.601L250.943 309.451H246.668V293.953L250.345 290.271L251.712 288.901L253.166 287.531L255.988 284.705V280.425V273.403L249.917 267.409L241.537 275.801L242.992 277.171L247.181 272.975L250.345 276.229V287.445L241.794 296.008L241.11 296.692V310.736H246.668H256.672H257.782L261.887 306.711Z" fill="#9C4668"/>
<path d="M255.986 280.425V284.705L253.165 287.531L251.712 288.901L250.343 290.271L246.667 293.953V309.451H248.976V293.953L252.652 290.271L253.934 288.901L255.388 287.531L258.21 284.705V280.425V273.403L252.139 267.409H249.916L255.986 273.403V280.425Z" fill="#FF8AE2"/>
<path d="M248.293 274.174L247.181 272.975L242.991 277.17H245.214L248.293 274.174Z" fill="#FF8AE2"/>
<path d="M260.091 302.601H257.782L261.887 306.711L257.782 310.736H260.091L264.109 306.711L260.091 302.601Z" fill="#FF8AE2"/>
<path d="M284.288 292.155V301.146H278.132V298.577V291.812H273.771V278.883H265.904V298.577H269.923V311.249H275.908H278.132H288.648V305.171V301.146V292.155H284.288Z" fill="#93C2DB"/>
<path d="M291.897 278.798V273.488H286.254V278.883H284.288V292.154H288.648V301.146V304.741H291.897V298.577H294.634V278.798H291.897Z" fill="#FF8AE2"/>
<path d="M287.964 267.665H274.626V270.92H269.924V278.883H273.772V291.812H278.132V278.883H286.254V273.488H287.964V267.665Z" fill="#9C4668"/>
<path d="M255.218 186.407C255.455 186.407 255.645 186.215 255.645 185.979C255.645 185.742 255.455 185.551 255.218 185.551C254.983 185.551 254.791 185.742 254.791 185.979C254.791 186.215 254.983 186.407 255.218 186.407Z" fill="#FF8AE2"/>
<path d="M254.278 197.624C254.513 197.624 254.705 197.433 254.705 197.196C254.705 196.96 254.513 196.768 254.278 196.768C254.041 196.768 253.85 196.96 253.85 197.196C253.85 197.433 254.041 197.624 254.278 197.624Z" fill="#FF8AE2"/>
<path d="M256.158 203.704C256.395 203.704 256.586 203.511 256.586 203.275C256.586 203.038 256.395 202.847 256.158 202.847C255.923 202.847 255.73 203.038 255.73 203.275C255.73 203.511 255.923 203.704 256.158 203.704Z" fill="#FF8AE2"/>
<path d="M253.936 192.486C254.172 192.486 254.363 192.295 254.363 192.058C254.363 191.822 254.172 191.63 253.936 191.63C253.699 191.63 253.508 191.822 253.508 192.058C253.508 192.295 253.699 192.486 253.936 192.486Z" fill="#FF8AE2"/>
<path d="M257.784 182.211C258.019 182.211 258.211 182.02 258.211 181.784C258.211 181.547 258.019 181.356 257.784 181.356C257.547 181.356 257.355 181.547 257.355 181.784C257.355 182.02 257.547 182.211 257.784 182.211Z" fill="#FF8AE2"/>
<path d="M249.405 177.502C249.641 177.502 249.832 177.31 249.832 177.074C249.832 176.838 249.641 176.646 249.405 176.646C249.168 176.646 248.977 176.838 248.977 177.074C248.977 177.31 249.168 177.502 249.405 177.502Z" fill="#FF8AE2"/>
<path d="M261.544 191.973C261.781 191.973 261.971 191.781 261.971 191.545C261.971 191.309 261.781 191.116 261.544 191.116C261.308 191.116 261.116 191.309 261.116 191.545C261.116 191.781 261.308 191.973 261.544 191.973Z" fill="#FF8AE2"/>
<path d="M267.616 180.071C267.852 180.071 268.044 179.879 268.044 179.643C268.044 179.406 267.852 179.215 267.616 179.215C267.38 179.215 267.188 179.406 267.188 179.643C267.188 179.879 267.38 180.071 267.616 180.071Z" fill="#FF8AE2"/>
<path d="M275.91 181.697C276.146 181.697 276.338 181.506 276.338 181.269C276.338 181.033 276.146 180.841 275.91 180.841C275.674 180.841 275.482 181.033 275.482 181.269C275.482 181.506 275.674 181.697 275.91 181.697Z" fill="#FF8AE2"/>
<path d="M240.683 183.838C240.918 183.838 241.11 183.647 241.11 183.41C241.11 183.174 240.918 182.982 240.683 182.982C240.446 182.982 240.255 183.174 240.255 183.41C240.255 183.647 240.446 183.838 240.683 183.838Z" fill="#FF8AE2"/>
<path d="M247.267 187.606C247.502 187.606 247.694 187.414 247.694 187.178C247.694 186.941 247.502 186.75 247.267 186.75C247.03 186.75 246.839 186.941 246.839 187.178C246.839 187.414 247.03 187.606 247.267 187.606Z" fill="#FF8AE2"/>
<path d="M246.326 182.04C246.562 182.04 246.754 181.849 246.754 181.612C246.754 181.376 246.562 181.184 246.326 181.184C246.09 181.184 245.898 181.376 245.898 181.612C245.898 181.849 246.09 182.04 246.326 182.04Z" fill="#FF8AE2"/>
<path d="M240.084 176.046C240.321 176.046 240.512 175.854 240.512 175.618C240.512 175.382 240.321 175.19 240.084 175.19C239.849 175.19 239.657 175.382 239.657 175.618C239.657 175.854 239.849 176.046 240.084 176.046Z" fill="#FF8AE2"/>
<path d="M261.117 184.866C261.353 184.866 261.545 184.674 261.545 184.438C261.545 184.201 261.353 184.009 261.117 184.009C260.881 184.009 260.689 184.201 260.689 184.438C260.689 184.674 260.881 184.866 261.117 184.866Z" fill="#FF8AE2"/>
<path d="M309.938 198.566C310.174 198.566 310.366 198.374 310.366 198.138C310.366 197.901 310.174 197.71 309.938 197.71C309.702 197.71 309.511 197.901 309.511 198.138C309.511 198.374 309.702 198.566 309.938 198.566Z" fill="#FF8AE2"/>
<path d="M333.877 186.065C334.114 186.065 334.304 185.872 334.304 185.636C334.304 185.4 334.114 185.209 333.877 185.209C333.642 185.209 333.449 185.4 333.449 185.636C333.449 185.872 333.642 186.065 333.877 186.065Z" fill="#FF8AE2"/>
<path d="M318.317 205.759C318.553 205.759 318.744 205.567 318.744 205.331C318.744 205.094 318.553 204.902 318.317 204.902C318.081 204.902 317.89 205.094 317.89 205.331C317.89 205.567 318.081 205.759 318.317 205.759Z" fill="#FF8AE2"/>
<path d="M314.811 202.077C315.047 202.077 315.239 201.884 315.239 201.648C315.239 201.411 315.047 201.22 314.811 201.22C314.575 201.22 314.384 201.411 314.384 201.648C314.384 201.884 314.575 202.077 314.811 202.077Z" fill="#FF8AE2"/>
<path d="M319.257 211.324C319.494 211.324 319.685 211.132 319.685 210.896C319.685 210.659 319.494 210.468 319.257 210.468C319.022 210.468 318.83 210.659 318.83 210.896C318.83 211.132 319.022 211.324 319.257 211.324Z" fill="#FF8AE2"/>
<path d="M341.317 190.86C341.552 190.86 341.744 190.668 341.744 190.432C341.744 190.195 341.552 190.003 341.317 190.003C341.08 190.003 340.89 190.195 340.89 190.432C340.89 190.668 341.08 190.86 341.317 190.86Z" fill="#FF8AE2"/>
<path d="M310.367 207.215C310.603 207.215 310.794 207.023 310.794 206.787C310.794 206.55 310.603 206.358 310.367 206.358C310.131 206.358 309.938 206.55 309.938 206.787C309.938 207.023 310.131 207.215 310.367 207.215Z" fill="#FF8AE2"/>
<path d="M333.451 192.486C333.687 192.486 333.879 192.295 333.879 192.058C333.879 191.822 333.687 191.63 333.451 191.63C333.215 191.63 333.023 191.822 333.023 192.058C333.023 192.295 333.215 192.486 333.451 192.486Z" fill="#FF8AE2"/>
<path d="M343.796 183.924C344.033 183.924 344.223 183.732 344.223 183.496C344.223 183.259 344.033 183.068 343.796 183.068C343.56 183.068 343.368 183.259 343.368 183.496C343.368 183.732 343.56 183.924 343.796 183.924Z" fill="#FF8AE2"/>
<path d="M347.644 180.927C347.879 180.927 348.071 180.735 348.071 180.5C348.071 180.263 347.879 180.071 347.644 180.071C347.407 180.071 347.216 180.263 347.216 180.5C347.216 180.735 347.407 180.927 347.644 180.927Z" fill="#FF8AE2"/>
<path d="M326.184 187.606C326.419 187.606 326.611 187.414 326.611 187.178C326.611 186.941 326.419 186.75 326.184 186.75C325.947 186.75 325.756 186.941 325.756 187.178C325.756 187.414 325.947 187.606 326.184 187.606Z" fill="#FF8AE2"/>
<path d="M313.102 194.285C313.338 194.285 313.529 194.093 313.529 193.857C313.529 193.62 313.338 193.429 313.102 193.429C312.865 193.429 312.675 193.62 312.675 193.857C312.675 194.093 312.865 194.285 313.102 194.285Z" fill="#FF8AE2"/>
<path d="M337.554 181.697C337.791 181.697 337.981 181.506 337.981 181.269C337.981 181.033 337.791 180.841 337.554 180.841C337.319 180.841 337.127 181.033 337.127 181.269C337.127 181.506 337.319 181.697 337.554 181.697Z" fill="#FF8AE2"/>
<path d="M329.774 180.071C330.01 180.071 330.202 179.879 330.202 179.643C330.202 179.406 330.01 179.215 329.774 179.215C329.538 179.215 329.347 179.406 329.347 179.643C329.347 179.879 329.538 180.071 329.774 180.071Z" fill="#FF8AE2"/>
<path d="M318.744 197.453C318.98 197.453 319.172 197.261 319.172 197.025C319.172 196.788 318.98 196.597 318.744 196.597C318.508 196.597 318.316 196.788 318.316 197.025C318.316 197.261 318.508 197.453 318.744 197.453Z" fill="#FF8AE2"/>
<path d="M404.758 230.332C404.995 230.332 405.185 230.141 405.185 229.905C405.185 229.669 404.995 229.476 404.758 229.476C404.522 229.476 404.33 229.669 404.33 229.905C404.33 230.141 404.522 230.332 404.758 230.332Z" fill="#FF8AE2"/>
<path d="M404.159 214.578C404.395 214.578 404.587 214.386 404.587 214.15C404.587 213.913 404.395 213.721 404.159 213.721C403.923 213.721 403.731 213.913 403.731 214.15C403.731 214.386 403.923 214.578 404.159 214.578Z" fill="#FF8AE2"/>
<path d="M404.244 202.59C404.48 202.59 404.672 202.399 404.672 202.162C404.672 201.926 404.48 201.734 404.244 201.734C404.008 201.734 403.816 201.926 403.816 202.162C403.816 202.399 404.008 202.59 404.244 202.59Z" fill="#FF8AE2"/>
<path d="M402.534 222.199C402.77 222.199 402.961 222.007 402.961 221.77C402.961 221.535 402.77 221.343 402.534 221.343C402.298 221.343 402.106 221.535 402.106 221.77C402.106 222.007 402.298 222.199 402.534 222.199Z" fill="#FF8AE2"/>
<path d="M398.516 242.92C398.752 242.92 398.943 242.729 398.943 242.492C398.943 242.255 398.752 242.063 398.516 242.063C398.28 242.063 398.088 242.255 398.088 242.492C398.088 242.729 398.28 242.92 398.516 242.92Z" fill="#FF8AE2"/>
<path d="M396.464 249.77C396.701 249.77 396.892 249.578 396.892 249.342C396.892 249.105 396.701 248.914 396.464 248.914C396.228 248.914 396.037 249.105 396.037 249.342C396.037 249.578 396.228 249.77 396.464 249.77Z" fill="#FF8AE2"/>
<path d="M398.516 208.755C398.752 208.755 398.943 208.563 398.943 208.327C398.943 208.09 398.752 207.899 398.516 207.899C398.28 207.899 398.088 208.09 398.088 208.327C398.088 208.563 398.28 208.755 398.516 208.755Z" fill="#FF8AE2"/>
<path d="M405.527 241.722C405.763 241.722 405.955 241.53 405.955 241.293C405.955 241.057 405.763 240.865 405.527 240.865C405.29 240.865 405.1 241.057 405.1 241.293C405.1 241.53 405.29 241.722 405.527 241.722Z" fill="#FF8AE2"/>
<path d="M399.029 230.076C399.265 230.076 399.457 229.885 399.457 229.648C399.457 229.411 399.265 229.219 399.029 229.219C398.793 229.219 398.602 229.411 398.602 229.648C398.602 229.885 398.793 230.076 399.029 230.076Z" fill="#FF8AE2"/>
<path d="M395.439 237.269C395.674 237.269 395.866 237.078 395.866 236.84C395.866 236.605 395.674 236.413 395.439 236.413C395.202 236.413 395.011 236.605 395.011 236.84C395.011 237.078 395.202 237.269 395.439 237.269Z" fill="#FF8AE2"/>
<path d="M394.327 216.119C394.563 216.119 394.755 215.928 394.755 215.691C394.755 215.455 394.563 215.262 394.327 215.262C394.09 215.262 393.899 215.455 393.899 215.691C393.899 215.928 394.09 216.119 394.327 216.119Z" fill="#FF8AE2"/>
<path d="M180.491 247.63C180.727 247.63 180.918 247.438 180.918 247.202C180.918 246.965 180.727 246.774 180.491 246.774C180.255 246.774 180.062 246.965 180.062 247.202C180.062 247.438 180.255 247.63 180.491 247.63Z" fill="#FF8AE2"/>
<path d="M193.231 245.318C193.466 245.318 193.658 245.126 193.658 244.89C193.658 244.654 193.466 244.461 193.231 244.461C192.994 244.461 192.803 244.654 192.803 244.89C192.803 245.126 192.994 245.318 193.231 245.318Z" fill="#FF8AE2"/>
<path d="M180.92 199.251C181.156 199.251 181.347 199.06 181.347 198.823C181.347 198.587 181.156 198.395 180.92 198.395C180.684 198.395 180.492 198.587 180.492 198.823C180.492 199.06 180.684 199.251 180.92 199.251Z" fill="#FF8AE2"/>
<path d="M184.937 183.153C185.173 183.153 185.364 182.961 185.364 182.725C185.364 182.488 185.173 182.297 184.937 182.297C184.701 182.297 184.509 182.488 184.509 182.725C184.509 182.961 184.701 183.153 184.937 183.153Z" fill="#FF8AE2"/>
<path d="M192.204 175.533C192.441 175.533 192.632 175.341 192.632 175.104C192.632 174.868 192.441 174.676 192.204 174.676C191.968 174.676 191.777 174.868 191.777 175.104C191.777 175.341 191.968 175.533 192.204 175.533Z" fill="#FF8AE2"/>
<path d="M182.2 225.11C182.436 225.11 182.628 224.919 182.628 224.682C182.628 224.446 182.436 224.254 182.2 224.254C181.964 224.254 181.772 224.446 181.772 224.682C181.772 224.919 181.964 225.11 182.2 225.11Z" fill="#FF8AE2"/>
<path d="M181.858 242.321C182.094 242.321 182.286 242.128 182.286 241.893C182.286 241.656 182.094 241.465 181.858 241.465C181.622 241.465 181.431 241.656 181.431 241.893C181.431 242.128 181.622 242.321 181.858 242.321Z" fill="#FF8AE2"/>
<path d="M183.484 212.18C183.719 212.18 183.912 211.989 183.912 211.752C183.912 211.516 183.719 211.324 183.484 211.324C183.247 211.324 183.057 211.516 183.057 211.752C183.057 211.989 183.247 212.18 183.484 212.18Z" fill="#FF8AE2"/>
<path d="M188.272 238.553C188.507 238.553 188.699 238.362 188.699 238.125C188.699 237.889 188.507 237.697 188.272 237.697C188.035 237.697 187.844 237.889 187.844 238.125C187.844 238.362 188.035 238.553 188.272 238.553Z" fill="#FF8AE2"/>
<path d="M185.792 244.633C186.028 244.633 186.219 244.441 186.219 244.205C186.219 243.968 186.028 243.777 185.792 243.777C185.556 243.777 185.364 243.968 185.364 244.205C185.364 244.441 185.556 244.633 185.792 244.633Z" fill="#FF8AE2"/>
<path d="M187.929 174.848C188.165 174.848 188.356 174.656 188.356 174.419C188.356 174.183 188.165 173.991 187.929 173.991C187.693 173.991 187.501 174.183 187.501 174.419C187.501 174.656 187.693 174.848 187.929 174.848Z" fill="#FF8AE2"/>
<path d="M185.705 228.963C185.942 228.963 186.133 228.771 186.133 228.535C186.133 228.298 185.942 228.107 185.705 228.107C185.469 228.107 185.278 228.298 185.278 228.535C185.278 228.771 185.469 228.963 185.705 228.963Z" fill="#FF8AE2"/>
<path d="M191.691 232.131C191.927 232.131 192.118 231.939 192.118 231.704C192.118 231.467 191.927 231.275 191.691 231.275C191.455 231.275 191.264 231.467 191.264 231.704C191.264 231.939 191.455 232.131 191.691 232.131Z" fill="#FF8AE2"/>
<path d="M180.92 176.218C181.156 176.218 181.347 176.026 181.347 175.79C181.347 175.553 181.156 175.362 180.92 175.362C180.684 175.362 180.492 175.553 180.492 175.79C180.492 176.026 180.684 176.218 180.92 176.218Z" fill="#FF8AE2"/>
<path d="M182.713 219.287C182.95 219.287 183.141 219.095 183.141 218.859C183.141 218.622 182.95 218.431 182.713 218.431C182.478 218.431 182.286 218.622 182.286 218.859C182.286 219.095 182.478 219.287 182.713 219.287Z" fill="#FF8AE2"/>
<path d="M331.826 274.003C332.109 274.003 332.339 273.773 332.339 273.489C332.339 273.205 332.109 272.975 331.826 272.975C331.543 272.975 331.312 273.205 331.312 273.489C331.312 273.773 331.543 274.003 331.826 274.003Z" fill="#FF8AE2"/>
<path d="M341.744 270.149C342.027 270.149 342.257 269.919 342.257 269.635C342.257 269.352 342.027 269.122 341.744 269.122C341.461 269.122 341.23 269.352 341.23 269.635C341.23 269.919 341.461 270.149 341.744 270.149Z" fill="#FF8AE2"/>
<path d="M337.896 274.859C338.18 274.859 338.409 274.629 338.409 274.345C338.409 274.061 338.18 273.831 337.896 273.831C337.613 273.831 337.384 274.061 337.384 274.345C337.384 274.629 337.613 274.859 337.896 274.859Z" fill="#FF8AE2"/>
<path d="M343.625 276.4C343.908 276.4 344.138 276.17 344.138 275.886C344.138 275.602 343.908 275.372 343.625 275.372C343.341 275.372 343.112 275.602 343.112 275.886C343.112 276.17 343.341 276.4 343.625 276.4Z" fill="#FF8AE2"/>
<path d="M336.272 278.197C336.555 278.197 336.785 277.968 336.785 277.684C336.785 277.4 336.555 277.17 336.272 277.17C335.989 277.17 335.759 277.4 335.759 277.684C335.759 277.968 335.989 278.197 336.272 278.197Z" fill="#FF8AE2"/>
<path d="M335.759 290.185C336.043 290.185 336.272 289.956 336.272 289.672C336.272 289.388 336.043 289.158 335.759 289.158C335.476 289.158 335.246 289.388 335.246 289.672C335.246 289.956 335.476 290.185 335.759 290.185Z" fill="#FF8AE2"/>
<path d="M334.99 283.763C335.273 283.763 335.503 283.533 335.503 283.249C335.503 282.966 335.273 282.736 334.99 282.736C334.706 282.736 334.477 282.966 334.477 283.249C334.477 283.533 334.706 283.763 334.99 283.763Z" fill="#FF8AE2"/>
<path d="M271.976 274.003C272.259 274.003 272.489 273.773 272.489 273.489C272.489 273.205 272.259 272.975 271.976 272.975C271.693 272.975 271.463 273.205 271.463 273.489C271.463 273.773 271.693 274.003 271.976 274.003Z" fill="#FF8AE2"/>
<path d="M275.139 276.4C275.423 276.4 275.653 276.17 275.653 275.886C275.653 275.602 275.423 275.372 275.139 275.372C274.857 275.372 274.627 275.602 274.627 275.886C274.627 276.17 274.857 276.4 275.139 276.4Z" fill="#FF8AE2"/>
<path d="M284.289 270.663C284.572 270.663 284.802 270.432 284.802 270.149C284.802 269.865 284.572 269.635 284.289 269.635C284.005 269.635 283.776 269.865 283.776 270.149C283.776 270.432 284.005 270.663 284.289 270.663Z" fill="#FF8AE2"/>
<path d="M281.381 275.373C281.665 275.373 281.895 275.142 281.895 274.859C281.895 274.574 281.665 274.345 281.381 274.345C281.098 274.345 280.869 274.574 280.869 274.859C280.869 275.142 281.098 275.373 281.381 275.373Z" fill="#FF8AE2"/>
<path d="M275.909 281.452C276.192 281.452 276.422 281.222 276.422 280.938C276.422 280.655 276.192 280.424 275.909 280.424C275.625 280.424 275.396 280.655 275.396 280.938C275.396 281.222 275.625 281.452 275.909 281.452Z" fill="#FF8AE2"/>
<path d="M276.422 272.889C276.706 272.889 276.935 272.659 276.935 272.375C276.935 272.091 276.706 271.861 276.422 271.861C276.138 271.861 275.909 272.091 275.909 272.375C275.909 272.659 276.138 272.889 276.422 272.889Z" fill="#FF8AE2"/>
<path d="M275.653 288.558C275.936 288.558 276.166 288.329 276.166 288.045C276.166 287.761 275.936 287.532 275.653 287.532C275.37 287.532 275.14 287.761 275.14 288.045C275.14 288.329 275.37 288.558 275.653 288.558Z" fill="#FF8AE2"/>
<path d="M534.633 41.1002C534.633 39.9015 532.322 39.3878 531.899 38.6171C531.641 38.189 532.408 37.8465 533.009 37.9321C533.437 37.9321 537.11 38.6171 539.678 38.6171C548.4 38.8739 550.706 36.7333 550.62 35.5346C550.534 34.3358 547.2 33.7364 546.69 32.9659C546.261 32.1951 546.857 31.4246 549.853 30.9108C552.931 30.397 558.233 30.1401 561.734 28.5133C565.24 26.8864 564.474 25.0026 560.024 23.6326C558.4 22.9476 559.428 21.9201 562.506 19.5225C565.584 17.125 573.191 9.58998 570.8 5.6512C568.747 2.73992 564.984 4.45244 562.335 7.19247C560.282 9.24746 556.265 13.4432 554.813 13.5288C552.159 13.7857 554.555 9.76119 553.188 8.30559C551.816 6.84995 548.91 9.41868 547.715 11.5594C546.519 13.7 545.576 17.125 544.294 19.6082C542.927 22.3482 541.559 21.3207 541.13 20.3788C540.788 19.4369 541.388 15.5838 538.734 15.1556C536.428 14.8131 533.694 20.7213 531.384 24.0607C530.526 25.3451 529.417 26.5439 528.221 27.5714C527.534 28.0851 527.191 27.9138 527.026 27.5714C526.682 27.0576 527.025 23.8038 524.715 23.1188C522.661 22.6051 520.694 26.0301 518.045 29.1983C515.906 31.767 512.914 33.1371 509.665 34.1646C505.221 35.5346 498.466 35.8771 498.466 35.8771C498.466 35.8771 501.8 37.3327 504.62 38.189C511.462 40.244 514.711 41.3571 522.404 42.1278C528.221 42.7271 534.29 43.3265 534.633 41.1002C534.633 41.1858 534.633 41.1002 534.633 41.1002Z" fill="#93C2DB"/>
<path d="M179.721 107.46C183.398 99.668 182.201 89.9067 178.097 82.2006C174.078 74.6653 168.862 69.2711 160.483 65.3323C158.432 64.3904 152.874 62.7635 152.874 62.7635C152.874 62.7635 152.959 67.4728 153.131 68.8427C153.9 74.5796 154.755 80.5737 158.261 84.5124C161.51 88.1941 165.699 89.9923 170.059 92.3897C182.116 99.1547 179.721 107.46 179.721 107.46Z" fill="#93C2DB"/>
<path d="M117.22 161.832C117.22 161.832 139.621 160.719 148 177.245C156.977 194.884 165.784 200.878 165.784 200.878C165.784 200.878 147.572 203.361 138.937 192.914C130.215 182.468 134.064 171.936 117.22 161.832Z" fill="#93C2DB"/>
<path d="M531.384 119.962C531.384 119.962 527.026 108.402 532.58 100.782C536.943 94.7023 547.286 93.2459 556.523 94.2743C562.764 94.959 570.715 90.9345 570.715 90.9345C570.715 90.9345 570.715 100.181 560.624 103.093C554.984 104.72 550.025 102.237 542.24 107.46C532.07 114.225 531.384 119.962 531.384 119.962Z" fill="#93C2DB"/>
<path d="M301.816 125.699C298.139 117.907 299.423 108.231 303.441 100.439C310.793 86.3108 328.663 83.5706 328.663 83.5706C328.663 83.5706 327.124 95.1303 321.566 101.723C318.403 105.491 312.846 106.86 308.998 109.944C299.85 117.221 301.816 125.699 301.816 125.699Z" fill="#93C2DB"/>
<path d="M485.983 142.481C485.298 141.967 456.912 131.777 482.477 110.885L500.004 96.7561C500.004 96.7561 500.603 112.426 489.573 122.701C478.629 132.72 485.983 142.481 485.983 142.481Z" fill="#93C2DB"/>
<path d="M203.319 142.481C202.636 141.967 174.249 131.777 199.814 110.885L217.342 96.7561C217.342 96.7561 217.939 112.426 206.91 122.701C196.052 132.72 203.319 142.481 203.319 142.481Z" fill="#93C2DB"/>
<path d="M415.445 118.42C416.556 118.163 416.556 115.765 417.241 115.252C417.668 114.909 418.01 115.594 418.181 116.193C418.266 116.622 418.437 120.389 418.865 122.872C420.49 131.521 422.969 133.233 424.081 132.89C425.192 132.548 425.107 129.123 425.79 128.524C426.474 127.924 427.329 128.352 428.441 131.178C429.553 134.09 430.92 139.227 433.229 142.31C435.538 145.392 437.162 144.193 437.589 139.569C437.932 137.857 439.129 138.628 442.121 141.111C445.113 143.594 453.92 149.417 457.255 146.334C459.649 143.765 457.168 140.34 454.005 138.371C451.611 136.744 446.738 133.747 446.311 132.292C445.541 129.723 449.902 131.263 451.013 129.551C452.125 127.839 449.047 125.613 446.738 124.927C444.429 124.243 440.924 123.986 438.274 123.3C435.366 122.53 436.051 120.989 436.905 120.389C437.675 119.79 441.523 119.705 441.437 116.964C441.352 114.653 435.025 113.197 431.347 111.656C429.98 111.056 428.612 110.2 427.329 109.258C426.732 108.744 426.817 108.317 427.074 108.059C427.501 107.631 430.665 107.203 430.92 104.805C430.92 102.75 427.244 101.466 423.738 99.5828C420.746 98.0412 418.865 95.3868 417.241 92.3897C415.017 88.3655 413.393 82.0293 413.393 82.0293C413.393 82.0293 412.623 85.2831 412.367 88.2798C411.854 95.4721 411.426 98.8972 412.281 106.518C412.623 112.426 413.222 118.591 415.445 118.42Z" fill="#93C2DB"/>
<path d="M387.401 61.2225C387.316 61.3939 378.424 74.9226 376.458 95.9865C376.286 94.4448 376.286 92.3047 376.201 90.6775C378.937 72.1824 386.376 60.7085 386.461 60.6228L387.401 61.2225Z" fill="#FF8AE2"/>
<path d="M151.336 194.284C146.463 191.973 144.496 187.948 142.272 183.239C140.648 179.814 138.767 175.875 135.348 172.108C126.113 162.089 105.166 159.862 104.994 159.862L105.166 158.578C106.021 158.665 126.797 160.891 136.373 171.252C139.964 175.105 141.845 179.128 143.555 182.64C145.693 187.092 147.488 190.944 151.934 193L151.336 194.284Z" fill="#FF8AE2"/>
<path d="M109.184 55.3138C106.961 55.3138 106.79 61.4787 106.533 67.3014C106.277 75.008 106.961 78.3475 108.072 85.4543C108.499 88.3655 109.526 91.8764 109.526 91.8764C109.526 91.8764 110.723 85.1973 112.689 80.9158C114.143 77.8334 115.853 75.008 118.674 73.2097C122.095 71.0692 125.771 69.5281 125.599 67.4728C125.172 65.0753 121.923 64.9896 121.496 64.5616C121.239 64.3046 121.069 63.9619 121.667 63.3627C122.864 62.3351 124.232 61.3936 125.599 60.7081C129.191 58.8247 135.432 56.9408 135.347 54.6289C135.262 51.8887 131.414 52.0601 130.559 51.5464C129.619 51.0324 128.849 49.5771 131.756 48.5495C134.407 47.6077 137.911 47.1796 140.22 46.2376C142.529 45.3814 145.435 42.8983 144.239 41.2713C142.956 39.6445 138.681 41.5282 139.28 38.8738C139.622 37.4182 144.239 33.9931 146.632 32.2807C149.711 30.0544 151.934 26.4581 149.283 24.0606C145.692 21.1493 137.228 27.6569 134.407 30.3969C131.585 33.1369 130.474 33.9931 129.96 32.3663C129.191 27.8282 127.395 26.8006 125.343 30.0544C123.292 33.3081 122.265 38.5313 121.41 41.5282C120.556 44.5251 119.614 44.9533 118.931 44.4395C118.247 43.9257 118.076 40.415 116.878 40.2438C115.768 39.9869 113.374 41.9563 112.347 50.6902C112.09 53.1734 112.177 56.9408 112.177 57.3692C112.09 58.054 111.749 58.739 111.321 58.3963C110.552 57.8827 110.381 55.3995 109.184 55.3138Z" fill="#93C2DB"/>
<path d="M109.44 101.723C108.927 97.6983 106.961 77.0629 114.058 61.8215C122.437 44.0113 138.511 32.3662 138.682 32.2806L139.452 33.3081C139.28 33.3937 123.462 44.8676 115.255 62.4208C108.244 77.3199 110.295 97.6983 110.722 101.638L109.44 101.723Z" fill="#FF8AE2"/>
<path d="M512.318 37.675C501.286 37.675 491.368 35.2775 488.718 34.5925L489.061 33.3081C492.907 34.3357 512.742 39.0451 528.478 34.1644C546.942 28.4275 560.366 14.2992 560.538 14.1279L561.476 14.9843C561.31 15.1555 547.628 29.4549 528.901 35.3631C523.518 37.0757 517.702 37.675 512.318 37.675Z" fill="#FF8AE2"/>
<path d="M446.225 139.056C446.054 138.971 429.382 128.61 419.806 111.484C416.044 104.806 414.249 96.7571 413.222 89.6497C412.966 87.9376 412.709 84.4269 412.709 84.4269L413.479 80.4024C413.906 88.7083 415.616 101.381 420.918 110.885C430.322 127.668 446.739 137.942 446.909 138.028L446.225 139.056Z" fill="#FF8AE2"/>
<path d="M181.773 95.4721C181.688 94.4446 181.603 93.3319 181.431 92.3045C174.249 81.0016 160.228 71.2402 159.543 70.8123L158.859 71.84C158.946 71.9252 175.446 83.3135 181.773 95.4721Z" fill="#FF8AE2"/>
<path d="M209.561 108.06C209.476 108.145 204.346 113.111 199.472 117.735C193.487 123.386 191.349 129.123 192.973 135.802C193.573 136.401 194.171 137.001 194.855 137.515C192.376 130.408 194.086 124.585 200.412 118.677C205.286 114.053 210.501 109.001 210.501 109.001L209.561 108.06Z" fill="#FF8AE2"/>
<path d="M491.369 110.029C491.283 110.115 486.154 115.081 481.279 119.705C476.406 124.328 474.097 128.953 474.269 134.09C474.697 134.689 475.21 135.203 475.722 135.717C474.952 130.237 477.005 125.441 482.221 120.561C487.094 115.937 492.309 110.885 492.309 110.885L491.369 110.029Z" fill="#FF8AE2"/>
<path d="M300.105 110.457C299.934 111.57 299.763 112.683 299.763 113.796C305.918 101.124 320.796 92.5612 320.967 92.4759L320.369 91.3623C320.282 91.3623 314.982 94.4447 309.424 99.4967C306.261 102.322 302.755 106.004 300.105 110.457Z" fill="#FF8AE2"/>
<path d="M540.445 100.696C546.348 97.7846 555.665 98.8121 555.751 98.8121L555.923 97.528C555.494 97.4418 546.09 96.4144 539.849 99.4967C535.743 101.466 532.409 104.635 529.76 108.916C529.674 109.772 529.674 110.713 529.76 111.57C532.409 106.604 536.001 102.922 540.445 100.696Z" fill="#FF8AE2"/>
<path d="M462.043 187.948C462.043 187.948 468.199 178.102 478.972 176.988C492.224 175.704 496.67 167.998 499.15 163.374C499.15 163.374 480.939 163.117 473.842 167.056C466.574 171.08 464.522 175.618 462.043 187.948Z" fill="#93C2DB"/>
<path d="M455.203 203.361C455.203 203.361 465.121 188.034 482.051 186.75C496.243 185.636 513.944 193.857 513.944 193.857C513.944 193.857 500.091 205.416 482.563 203.533C469.909 202.162 466.233 197.966 455.203 203.361Z" fill="#93C2DB"/>
<path d="M448.876 209.869L447.85 209.098C448.021 208.927 451.27 204.645 456.827 201.22C459.905 199.337 463.326 197.795 467.687 196.254C479.57 192.23 497.099 193.6 497.868 193.685L497.782 194.969C497.611 194.969 479.742 193.514 468.114 197.539C463.753 198.994 460.504 200.536 457.512 202.334C452.211 205.588 448.961 209.869 448.876 209.869Z" fill="#FF8AE2"/>
<path d="M69.6582 351.276H473.268C499.776 351.276 521.265 372.772 521.265 399.288V434H117.655C91.1473 434 69.6582 412.504 69.6582 385.987V351.276Z" fill="#183D5D"/>
<path d="M95.4336 396.358H96.8194V392.178H99.3225C101.988 392.178 103.189 390.556 103.189 388.533C103.189 386.511 101.988 384.912 99.3005 384.912H95.4336V396.358ZM96.8194 390.948V386.141H99.2556C101.116 386.141 101.826 387.159 101.826 388.533C101.826 389.908 101.116 390.948 99.2776 390.948H96.8194Z" fill="#93C2DB"/>
<path d="M105.242 396.358H106.561V390.926C106.561 389.764 107.478 388.914 108.729 388.914C109.081 388.914 109.445 388.981 109.533 389.003V387.662C109.383 387.651 109.036 387.64 108.841 387.64C107.812 387.64 106.919 388.221 106.606 389.07H106.516V387.774H105.242V396.358Z" fill="#93C2DB"/>
<path d="M114.433 396.537C116.177 396.537 117.451 395.664 117.853 394.368L116.579 394.011C116.244 394.905 115.467 395.352 114.433 395.352C112.885 395.352 111.818 394.351 111.757 392.512H117.987V391.954C117.987 388.757 116.087 387.662 114.299 387.662C111.975 387.662 110.433 389.495 110.433 392.133C110.433 394.771 111.952 396.537 114.433 396.537ZM111.757 391.373C111.846 390.037 112.791 388.846 114.299 388.846C115.729 388.846 116.646 389.919 116.646 391.373H111.757Z" fill="#93C2DB"/>
<path d="M126.07 389.696C125.657 388.478 124.729 387.662 123.031 387.662C121.221 387.662 119.88 388.69 119.88 390.143C119.88 391.328 120.584 392.122 122.159 392.49L123.59 392.826C124.456 393.027 124.863 393.441 124.863 394.033C124.863 394.771 124.081 395.374 122.852 395.374C121.774 395.374 121.098 394.911 120.863 393.988L119.612 394.301C119.919 395.76 121.121 396.537 122.874 396.537C124.87 396.537 126.227 395.447 126.227 393.966C126.227 392.77 125.478 392.016 123.948 391.641L122.674 391.328C121.657 391.076 121.199 390.736 121.199 390.076C121.199 389.338 121.981 388.802 123.031 388.802C124.182 388.802 124.657 389.439 124.886 390.031L126.07 389.696Z" fill="#93C2DB"/>
<path d="M131.809 396.537C133.553 396.537 134.827 395.664 135.229 394.368L133.955 394.011C133.62 394.905 132.843 395.352 131.809 395.352C130.261 395.352 129.194 394.351 129.133 392.512H135.363V391.954C135.363 388.757 133.463 387.662 131.676 387.662C129.351 387.662 127.81 389.495 127.81 392.133C127.81 394.771 129.328 396.537 131.809 396.537ZM129.133 391.373C129.223 390.037 130.167 388.846 131.676 388.846C133.105 388.846 134.022 389.919 134.022 391.373H129.133Z" fill="#93C2DB"/>
<path d="M138.688 391.194C138.688 389.696 139.616 388.846 140.878 388.846C142.101 388.846 142.845 389.645 142.845 390.993V396.358H144.163V390.903C144.163 388.712 142.996 387.662 141.258 387.662C139.962 387.662 139.157 388.243 138.755 389.115H138.643V387.774H137.369V396.358H138.688V391.194Z" fill="#93C2DB"/>
<path d="M150.305 387.773H148.472V385.716H147.153V387.773H145.857V388.891H147.153V394.256C147.153 395.754 148.361 396.47 149.478 396.47C149.97 396.47 150.283 396.38 150.461 396.313L150.193 395.128C150.081 395.15 149.902 395.196 149.613 395.196C149.031 395.196 148.472 395.016 148.472 393.899V388.891H150.305V387.773Z" fill="#93C2DB"/>
<path d="M155.795 396.537C157.537 396.537 158.811 395.664 159.213 394.368L157.939 394.011C157.604 394.905 156.828 395.352 155.795 395.352C154.247 395.352 153.18 394.351 153.118 392.512H159.347V391.954C159.347 388.757 157.447 387.662 155.66 387.662C153.336 387.662 151.794 389.495 151.794 392.133C151.794 394.771 153.314 396.537 155.795 396.537ZM153.118 391.373C153.207 390.037 154.151 388.846 155.66 388.846C157.091 388.846 158.007 389.919 158.007 391.373H153.118Z" fill="#93C2DB"/>
<path d="M164.594 396.537C166.248 396.537 166.806 395.508 167.097 395.039H167.253V396.358H168.526V384.912H167.208V389.137H167.097C166.806 388.689 166.292 387.662 164.616 387.662C162.449 387.662 160.951 389.383 160.951 392.088C160.951 394.815 162.449 396.537 164.594 396.537ZM164.772 395.352C163.119 395.352 162.269 393.899 162.269 392.066C162.269 390.255 163.097 388.847 164.772 388.847C166.382 388.847 167.23 390.143 167.23 392.066C167.23 394.011 166.36 395.352 164.772 395.352Z" fill="#93C2DB"/>
<path d="M175.729 396.358H177.003V395.039H177.158C177.449 395.508 178.008 396.537 179.661 396.537C181.807 396.537 183.305 394.815 183.305 392.088C183.305 389.383 181.807 387.662 179.639 387.662C177.963 387.662 177.449 388.689 177.158 389.137H177.047V384.912H175.729V396.358ZM177.025 392.066C177.025 390.143 177.874 388.847 179.483 388.847C181.159 388.847 181.986 390.255 181.986 392.066C181.986 393.899 181.137 395.352 179.483 395.352C177.896 395.352 177.025 394.011 177.025 392.066Z" fill="#93C2DB"/>
<path d="M185.862 399.555C187.053 399.555 187.896 398.923 188.388 397.609L192.042 387.796L190.601 387.774L188.232 394.614H188.143L185.774 387.774H184.344L187.517 396.402L187.27 397.073C186.802 398.359 186.198 398.482 185.237 398.235L184.902 399.398C185.036 399.465 185.416 399.555 185.862 399.555Z" fill="#93C2DB"/>
<path fill-rule="evenodd" clip-rule="evenodd" d="M219.185 404.715V399.881C224.357 399.881 228.355 394.804 226.381 389.411C225.649 387.412 224.043 385.819 222.029 385.094C216.594 383.138 211.478 387.103 211.477 392.232L211.476 392.234H206.604C206.604 384.06 214.563 377.696 223.196 380.37C226.968 381.538 229.966 384.513 231.143 388.255C233.838 396.82 227.424 404.715 219.185 404.715Z" fill="#F2F8FF"/>
<path fill-rule="evenodd" clip-rule="evenodd" d="M218.43 400.037H213.571V395.219C213.571 395.219 213.571 395.218 213.572 395.218H218.429C218.43 395.218 218.43 395.218 218.43 395.218V400.037ZM213.57 403.74H209.839L209.838 403.739V400.037H213.571V403.739L213.57 403.74ZM209.841 400.037H206.713C206.711 400.037 206.711 400.035 206.711 400.035V396.934C206.711 396.934 206.711 396.932 206.713 396.932H209.838C209.84 396.932 209.841 396.933 209.841 396.933V400.037ZM243.406 388.044H244.838C246.43 388.044 247.74 388.356 248.735 388.969C249.838 389.629 250.398 390.885 250.398 392.702C250.398 394.574 249.836 395.886 248.731 396.605H248.73C247.778 397.229 246.475 397.546 244.858 397.546H243.406V388.044ZM250.632 387.112C249.19 386.12 247.398 385.618 245.303 385.618H240.742V399.973H245.303C247.393 399.973 249.186 399.442 250.633 398.396C251.42 397.842 252.039 397.067 252.472 396.094C252.902 395.126 253.121 393.985 253.121 392.702C253.121 391.434 252.902 390.307 252.472 389.353C252.039 388.394 251.419 387.641 250.632 387.112ZM256.296 385.441C255.857 385.441 255.48 385.595 255.175 385.897C254.868 386.188 254.712 386.557 254.712 386.993C254.712 387.428 254.867 387.803 255.174 388.107C255.48 388.411 255.857 388.565 256.296 388.565C256.733 388.565 257.111 388.411 257.418 388.107C257.725 387.802 257.88 387.427 257.88 386.993C257.88 386.557 257.723 386.189 257.418 385.899C257.111 385.595 256.733 385.441 256.296 385.441ZM254.989 399.972H257.553V389.862H254.989V399.972ZM266.193 396.678C265.745 397.183 265.169 397.428 264.434 397.428C263.698 397.428 263.126 397.183 262.686 396.679C262.246 396.177 262.022 395.511 262.022 394.701C262.022 393.878 262.246 393.204 262.686 392.699C263.121 392.199 263.709 391.945 264.434 391.945C265.169 391.945 265.745 392.191 266.192 392.7C266.64 393.206 266.866 393.879 266.866 394.701C266.866 395.511 266.64 396.176 266.193 396.678ZM266.866 390.707C266.092 390.025 265.229 389.626 264.295 389.626C262.88 389.626 261.703 390.113 260.799 391.07C259.883 392.018 259.418 393.241 259.418 394.701C259.418 396.129 259.875 397.346 260.779 398.322C261.691 399.267 262.873 399.747 264.295 399.747C265.284 399.747 266.134 399.473 266.826 398.934V399.166C266.826 400.006 266.599 400.659 266.154 401.107C265.707 401.555 265.089 401.781 264.315 401.781C263.131 401.781 262.39 401.319 261.487 400.109L259.741 401.773L259.787 401.838C260.165 402.363 260.742 402.877 261.505 403.366C262.268 403.853 263.226 404.099 264.355 404.099C265.877 404.099 267.109 403.634 268.015 402.716C268.927 401.793 269.39 400.558 269.39 399.044V389.862H266.866V390.707ZM271.584 399.972H274.149V389.862H271.584V399.972ZM272.891 385.441C272.453 385.441 272.076 385.595 271.771 385.897C271.463 386.188 271.308 386.557 271.308 386.993C271.308 387.428 271.462 387.803 271.77 388.107C272.076 388.411 272.453 388.565 272.891 388.565C273.329 388.565 273.707 388.411 274.013 388.107C274.32 387.802 274.475 387.427 274.475 386.993C274.475 386.557 274.32 386.189 274.013 385.899C273.707 385.595 273.329 385.441 272.891 385.441ZM279.769 387.13H277.245V389.862H275.779V392.181H277.245V396.381C277.245 397.694 277.509 398.635 278.031 399.175C278.555 399.717 279.485 399.992 280.795 399.992C281.212 399.992 281.631 399.978 282.04 399.952L282.156 399.945V397.627L281.277 397.673C280.666 397.673 280.259 397.567 280.065 397.357C279.868 397.144 279.769 396.694 279.769 396.02V392.181H282.156V389.862H279.769V387.13ZM294.179 399.972H296.745V385.618H294.179V399.972ZM322.65 396.357C322.192 396.868 321.722 397.309 321.36 397.539C321.007 397.766 320.558 397.88 320.031 397.88C319.275 397.88 318.668 397.607 318.174 397.045C317.68 396.485 317.431 395.767 317.431 394.907C317.431 394.048 317.678 393.331 318.163 392.775C318.651 392.217 319.256 391.945 320.011 391.945C320.837 391.945 321.708 392.454 322.455 393.33L324.149 391.718C323.044 390.29 321.634 389.626 319.952 389.626C318.544 389.626 317.323 390.136 316.324 391.138C315.331 392.135 314.827 393.402 314.827 394.907C314.827 396.413 315.33 397.684 316.323 398.686C317.317 399.69 318.538 400.199 319.952 400.199C321.809 400.199 323.307 399.404 324.317 397.947L322.65 396.357ZM327.57 393.655C327.694 393.172 327.918 392.769 328.24 392.456C328.587 392.117 329.039 391.945 329.585 391.945C330.205 391.945 330.687 392.12 331.013 392.467C331.318 392.788 331.488 393.188 331.524 393.655H327.57ZM333.175 391.275C332.811 390.773 332.316 390.367 331.702 390.072C331.09 389.776 330.377 389.626 329.583 389.626C328.152 389.626 326.981 390.15 326.102 391.185C325.247 392.211 324.816 393.486 324.816 394.976C324.816 396.508 325.29 397.777 326.226 398.746C327.158 399.71 328.403 400.199 329.93 400.199C331.659 400.199 333.078 399.505 334.147 398.136L334.206 398.063L332.532 396.468C332.377 396.653 332.157 396.864 331.958 397.051C331.704 397.288 331.466 397.472 331.211 397.598C330.828 397.787 330.398 397.88 329.918 397.88C329.207 397.88 328.619 397.672 328.168 397.264C327.748 396.881 327.502 396.365 327.437 395.728H334.231L334.253 394.8C334.253 394.143 334.164 393.509 333.986 392.917C333.81 392.328 333.535 391.773 333.175 391.275ZM338.47 396.11C338.76 395.908 339.172 395.807 339.69 395.807C340.308 395.807 340.963 395.929 341.638 396.173V397.164C341.081 397.678 340.336 397.939 339.424 397.939C338.98 397.939 338.636 397.841 338.398 397.648C338.165 397.458 338.052 397.217 338.052 396.912C338.052 396.565 338.188 396.302 338.47 396.11ZM343.022 390.62C342.245 389.961 341.171 389.626 339.83 389.626C338.976 389.626 338.178 389.812 337.457 390.176C336.79 390.511 336.133 391.068 335.716 391.795L335.743 391.828L337.384 393.387C338.061 392.316 338.813 391.945 339.811 391.945C340.346 391.945 340.791 392.088 341.132 392.369C341.472 392.648 341.638 393.003 341.638 393.453V393.944C341.002 393.752 340.368 393.655 339.751 393.655C338.475 393.655 337.436 393.953 336.665 394.541C335.883 395.135 335.487 395.986 335.487 397.069C335.487 398.019 335.822 398.791 336.483 399.364C337.149 399.917 337.982 400.199 338.958 400.199C339.935 400.199 340.848 399.809 341.677 399.141V399.972H344.202V393.473C344.202 392.243 343.806 391.282 343.022 390.62ZM354.067 390.817C353.353 390.027 352.349 389.626 351.083 389.626C350.066 389.626 349.24 389.917 348.621 390.488V389.862H346.107V399.972H348.672V394.397C348.672 393.63 348.855 393.023 349.218 392.588C349.578 392.156 350.076 391.945 350.737 391.945C351.318 391.945 351.758 392.134 352.082 392.52C352.408 392.908 352.573 393.443 352.573 394.112V399.972H355.138V394.112C355.138 392.712 354.778 391.603 354.067 390.817ZM286.404 396.11C286.695 395.908 287.105 395.807 287.626 395.807C288.244 395.807 288.898 395.929 289.573 396.173V397.164C289.015 397.678 288.271 397.939 287.359 397.939C286.915 397.939 286.57 397.841 286.333 397.648C286.1 397.458 285.987 397.217 285.987 396.912C285.987 396.565 286.123 396.302 286.404 396.11ZM290.957 390.62C290.179 389.961 289.105 389.626 287.764 389.626C286.911 389.626 286.114 389.812 285.391 390.176C284.723 390.511 284.068 391.068 283.652 391.795L283.677 391.828L285.32 393.387C285.995 392.316 286.748 391.945 287.745 391.945C288.28 391.945 288.725 392.088 289.067 392.369C289.407 392.648 289.573 393.003 289.573 393.453V393.944C288.936 393.752 288.302 393.655 287.685 393.655C286.409 393.655 285.371 393.953 284.599 394.541C283.818 395.135 283.423 395.986 283.423 397.069C283.423 398.019 283.756 398.791 284.417 399.364C285.083 399.917 285.916 400.199 286.894 400.199C287.87 400.199 288.782 399.809 289.612 399.141V399.972H292.137V393.473C292.137 392.243 291.74 391.282 290.957 390.62ZM306.048 387.997C303.385 387.997 301.218 390.147 301.218 392.789C301.218 395.431 303.385 397.581 306.048 397.581C308.711 397.581 310.878 395.431 310.878 392.789C310.878 390.147 308.711 387.997 306.048 387.997ZM306.048 400.189C301.935 400.189 298.59 396.869 298.59 392.789C298.59 388.709 301.935 385.389 306.048 385.389C310.16 385.389 313.506 388.709 313.506 392.789C313.506 396.869 310.16 400.189 306.048 400.189Z" fill="#F2F8FF"/>
<path d="M372.761 395.922H374.013V392.86H377.075V391.608H374.013V388.545H372.761V391.608H369.7V392.86H372.761V395.922Z" fill="#93C2DB"/>
<path d="M395.044 383.356H391.636V386.765H395.044V383.356Z" fill="white"/>
<path d="M394.958 401.116V388.836H391.73V401.116H394.958ZM416.405 401.238V398.228C415.931 398.228 415.531 398.203 415.24 398.154C414.9 398.106 414.645 397.985 414.476 397.815C414.306 397.645 414.197 397.403 414.136 397.087C414.087 396.784 414.063 396.383 414.063 395.898V391.603H416.405V388.836H414.063V384.042H410.824V395.922C410.824 396.93 410.909 397.779 411.08 398.458C411.249 399.126 411.54 399.671 411.94 400.084C412.341 400.496 412.874 400.788 413.517 400.97C414.172 401.151 414.997 401.238 415.98 401.238H416.405ZM434.939 401.116V383.095H431.7V401.116H434.939ZM407.707 390.036C406.81 389.066 405.547 388.581 403.946 388.581C403.17 388.581 402.467 388.739 401.824 389.054C401.193 389.369 400.647 389.806 400.222 390.365L400.041 390.595V390.389V388.836H396.85V401.116H400.065V394.575V395.024C400.065 394.951 400.065 394.879 400.065 394.805C400.1 393.653 400.38 392.804 400.913 392.258C401.484 391.675 402.175 391.384 402.964 391.384C403.898 391.384 404.613 391.675 405.086 392.233C405.547 392.792 405.79 393.58 405.79 394.587V394.612V401.103H409.053V394.138C409.065 392.391 408.605 391.007 407.707 390.036ZM430.027 394.951C430.027 394.066 429.869 393.241 429.566 392.463C429.25 391.7 428.814 391.02 428.268 390.438C427.71 389.855 427.042 389.406 426.267 389.079C425.49 388.751 424.629 388.593 423.695 388.593C422.81 388.593 421.972 388.762 421.196 389.091C420.419 389.431 419.74 389.879 419.17 390.449C418.6 391.02 418.139 391.7 417.812 392.476C417.472 393.253 417.314 394.089 417.314 394.976C417.314 395.862 417.472 396.699 417.787 397.475C418.102 398.251 418.551 398.932 419.11 399.502C419.668 400.072 420.359 400.534 421.159 400.861C421.96 401.2 422.845 401.371 423.792 401.371C426.533 401.371 428.232 400.12 429.25 398.955L426.921 397.184C426.437 397.767 425.272 398.555 423.816 398.555C422.907 398.555 422.154 398.349 421.584 397.924C421.014 397.512 420.626 396.93 420.419 396.213L420.384 396.104H430.027V394.951ZM420.407 393.823C420.407 392.924 421.439 391.36 423.658 391.347C425.878 391.347 426.921 392.913 426.921 393.811L420.407 393.823Z" fill="white"/>
<path d="M452.565 395.922H453.817V392.86H456.879V391.608H453.817V388.545H452.565V391.608H449.504V392.86H452.565V395.922Z" fill="#93C2DB"/>
<path d="M492.728 404.811C486.07 404.167 479.409 403.52 472.751 402.877C472.637 402.82 472.519 402.767 472.406 402.706C471.74 402.357 471.377 401.7 471.451 400.963C472.08 394.44 472.711 387.917 473.348 381.397C473.361 381.247 473.401 381.093 473.468 380.959C473.814 380.255 474.54 379.859 475.328 379.936C481.755 380.56 488.181 381.18 494.612 381.803C495.654 381.903 496.395 382.812 496.294 383.857C495.673 390.269 495.05 396.685 494.431 403.098C494.37 403.724 494.066 404.207 493.522 404.515C493.278 404.653 492.993 404.713 492.728 404.811ZM476.742 395.197C476.775 395.211 476.795 395.224 476.815 395.224C477.576 395.298 478.333 395.395 479.094 395.439C480.012 395.492 480.947 394.741 481.051 393.847C481.198 392.609 481.316 391.367 481.413 390.123C481.483 389.217 480.682 388.282 479.78 388.175C479.047 388.088 478.309 388.028 477.572 387.957C477.529 387.954 477.485 387.964 477.442 387.967C477.208 390.388 476.973 392.791 476.742 395.197ZM486.794 388.856C486.794 388.913 486.784 388.953 486.791 388.986C487.132 391.064 487.464 393.147 487.826 395.224C487.876 395.522 488.03 395.825 488.212 396.069C488.52 396.491 489.093 396.541 489.471 396.183C489.692 395.972 489.894 395.704 490.004 395.422C490.628 393.813 491.217 392.194 491.82 390.578C491.964 390.186 492.108 389.795 492.256 389.391C491.757 389.345 491.29 389.298 490.802 389.251C490.225 390.823 489.649 392.396 489.076 393.968C489.019 393.87 488.995 393.766 488.979 393.665C488.738 392.168 488.5 390.669 488.255 389.171C488.245 389.104 488.184 389 488.137 388.994C487.692 388.936 487.247 388.899 486.794 388.856ZM483.393 391.531C483.426 391.182 483.454 390.87 483.491 390.558C483.517 390.334 483.483 390.026 483.614 389.908C483.728 389.804 484.037 389.908 484.258 389.929C484.793 389.979 485.326 390.032 485.869 390.082C485.913 389.633 485.953 389.211 485.996 388.775C485.028 388.681 484.08 388.581 483.129 388.507C482.971 388.494 482.787 388.584 482.642 388.675C482.354 388.852 482.287 389.157 482.257 389.472C482.096 391.151 481.932 392.83 481.771 394.513C481.758 394.644 481.751 394.775 481.751 394.906C481.751 395.382 482.073 395.738 482.548 395.784C483.393 395.868 484.238 395.948 485.078 396.029C485.152 396.035 485.226 396.036 485.296 396.038C485.339 395.596 485.38 395.178 485.424 394.731C484.646 394.658 483.886 394.584 483.125 394.51C483.179 393.947 483.232 393.414 483.285 392.855C483.758 392.902 484.214 392.945 484.68 392.989C484.723 392.536 484.764 392.114 484.807 391.671C484.337 391.62 483.886 391.577 483.393 391.531Z" fill="white"/>
<path d="M478.169 394.03C478.32 392.472 478.468 390.943 478.615 389.411C478.94 389.442 479.268 389.438 479.577 389.515C479.935 389.602 480.113 389.911 480.076 390.323C479.986 391.352 479.888 392.378 479.777 393.403C479.727 393.869 479.443 394.107 478.967 394.104C478.709 394.101 478.45 394.057 478.169 394.03Z" fill="white"/>
</svg>
